<svg xmlns="http://www.w3.org/2000/svg" xmlns:xlink="http://www.w3.org/1999/xlink" width="600" viewBox="0 0 1122.85 893">
  <defs>
    <linearGradient id="linear-gradient" x1="-13.654" y1="-26.304" x2="-13.622" y2="-26.304" gradientUnits="objectBoundingBox">
      <stop offset="0" stop-color="#fff"/>
      <stop offset="0.995" stop-color="#83d4f6"/>
      <stop offset="1" stop-color="#83d4f6"/>
    </linearGradient>
    <linearGradient id="linear-gradient-2" x1="-10.406" y1="-17.697" x2="-10.383" y2="-17.697" xlink:href="#linear-gradient"/>
    <linearGradient id="linear-gradient-3" x1="-15.933" y1="-32.565" x2="-15.901" y2="-32.565" xlink:href="#linear-gradient"/>
  </defs>
  <g id="Group_7" data-name="Group 7" transform="translate(-1036.055 -1652)">
    <path id="Path_247" data-name="Path 247" d="M2145.736,2214.042a257.109,257.109,0,0,1-33.655,76.912q-6.205,9.528-13.144,18.392c-2.53,3.292-5.144,6.465-7.855,9.6-2.334,2.754-4.738,5.451-7.205,8.134a323.784,323.784,0,0,1-38,34.857,424.536,424.536,0,0,1-54.99,36.2l-.727.426h-.021q-13,7.2-26.478,13.795H1201.03a231.82,231.82,0,0,1-44.578-28.134c-5.744-4.529-11.335-9.393-16.771-14.487-1.042-.957-2.069-1.943-3.1-2.942q-5.083-4.884-10.007-10.119c-2.831-3.012-5.626-6.1-8.351-9.252-5.472-6.282-10.685-12.83-15.723-19.588a350.121,350.121,0,0,1-22.2-34.011,354.329,354.329,0,0,1-21.349-44.053c-2.571-6.339-4.905-12.74-7.078-19.162-15.095-45.283-20.154-92.188-11.831-133.732,18.029-87.149,111.181-102.167,183.292-108.177,78.113-6.009,120.175-27.044,153.229-102.152,33.047-75.123,42.068-159.239,120.189-204.313,63.1-36.059,162.237-42.069,225.34-6.017,78.12,45.074,81.125,132.2,123.187,201.308,51.083,84.13,102.153,36.059,177.275,33.054C2169.789,1904.565,2172.787,2117.9,2145.736,2214.042Z" fill="#83d4f6"/>
    <path id="Path_248" data-name="Path 248" d="M1459.325,2082.05a28.285,28.285,0,0,0-18.253,6.646,28.295,28.295,0,0,0-33.1-18.288,28.406,28.406,0,0,0-43.99-21.279,50,50,0,0,0-95.849-15.989,19.571,19.571,0,0,0-4.011-.405,20.054,20.054,0,0,0-18.435,12.138,37.9,37.9,0,0,0-49.281,46.29,20.091,20.091,0,0,0-12.529,10.251h302.391A28.443,28.443,0,0,0,1459.325,2082.05Z" fill="url(#linear-gradient)"/>
    <path id="Path_249" data-name="Path 249" d="M1798.726,1928.255a39.346,39.346,0,0,0-25.409,9.266,39.6,39.6,0,0,0-37.345-26.492,40.036,40.036,0,0,0-8.777,1.006,39.565,39.565,0,0,0-61.265-29.629,69.628,69.628,0,0,0-133.474-22.279,28.446,28.446,0,0,0-5.6-.573,27.932,27.932,0,0,0-25.668,16.919,52.775,52.775,0,0,0-68.63,64.465,28.022,28.022,0,0,0-17.457,14.291h421.134A39.579,39.579,0,0,0,1798.726,1928.255Z" fill="url(#linear-gradient-2)"/>
    <path id="Path_250" data-name="Path 250" d="M2091.327,2101.785a13.23,13.23,0,0,0-4.221.691l.021-.691a42.8,42.8,0,0,0-68.121-34.48,33.478,33.478,0,0,0-66.576,3.781,18.591,18.591,0,0,0-22.9,9.51,12.775,12.775,0,0,0-20.252.734,37.917,37.917,0,0,0-73.263,4.612l-1.657-.091a15.634,15.634,0,0,0-15.045,19.952l-.608-.042a11.4,11.4,0,0,0-11.349,10.447h297.3l.063-1.034A13.4,13.4,0,0,0,2091.327,2101.785Z" fill="url(#linear-gradient-3)"/>
    <path id="Path_251" data-name="Path 251" d="M1650.13,2245.58h98.9a10.6,10.6,0,0,0-1.216-4.752c-2.509-5.849-5.451-11.4-8.176-17.023-3.913-8.079-7.827-16.171-12.2-23.739a119.818,119.818,0,0,0-14.186-19.979c-4.64-5.206-9.623-9.728-14.284-14.892a115.364,115.364,0,0,1-12.537-17.212c-3.606-5.884-6.981-12.439-11.383-17.177-3.683-3.969-7.925-5.632-12.425-3.8-4.927,2.005-9.134,6.792-13.278,10.922-3.124,3.131-7.219,7.7-11.314,6.758-4.186-.979-6.6-7.666-8.372-12.46-4.94-13.375-9.161-32.055-20.377-36.974-10.594-4.647-22.215,4.926-31.433,11.369L1551,2232.98c6.932.335,13.878.678,20.825,1.139C1598.11,2235.9,1624.064,2241.037,1650.13,2245.58Z" fill="#ab6c3c"/>
    <path id="Path_252" data-name="Path 252" d="M1650.13,2245.58h25.905c-1.139-2.118-1.349-5.989-1.545-8.379-.363-4.41,2.118-5.185,4.641-6.408,3.1-1.5,6.212-2.97,9.252-4.7-2.369-2.712-5.122-4.277-7.736-6.366-2.18-1.741-3.1-3.494-.5-5.3,2.1-1.467,5.311-2.18,6.709-5.164,1.18-2.536-.112-5.073-1.594-6.59-4.158-4.29-9.811-4.011-14.521-6.219-1.768-.839-3.879-2.453-3.781-5.563a6.079,6.079,0,0,1,3.11-5.115c4.053-2.369,8.449-3.732,12.635-5.472,4.332-1.81,1.761-8.4-.462-11.411-5.129-7-11.677-10.853-18.281-14.074-3.626-1.775-9.266-3.376-9.238-10.217a43.592,43.592,0,0,1,2.544-14l.181-.413a103.275,103.275,0,0,0-8.106,7.743c-3.124,3.131-7.219,7.7-11.314,6.758-4.186-.979-6.6-7.666-8.372-12.46-4.94-13.375-9.161-32.055-20.377-36.974-10.594-4.647-22.215,4.926-31.433,11.369L1551,2232.98c6.932.335,13.878.678,20.825,1.139C1598.11,2235.9,1624.064,2241.037,1650.13,2245.58Z" fill="#81471e"/>
    <path id="Path_253" data-name="Path 253" d="M1712.22,2203.707a60.315,60.315,0,0,0,8,4.856c1.593.86,3.277,1.6,3.452,4.41.168,2.837-1.006,5.87-2.068,8.113-.762,1.614-2.7,3.921-2.614,6.066.112,2.683,3.229,4.521,4.556,5.66,2.8,2.4,5.787,4.536,8.463,7.247a15.033,15.033,0,0,1,3.354,5.521h13.669a10.6,10.6,0,0,0-1.216-4.752c-2.509-5.849-5.451-11.4-8.176-17.023-3.913-8.079-7.827-16.171-12.2-23.739a121.168,121.168,0,0,0-13.32-18.931,12.774,12.774,0,0,1-3.836,6.548c-2.53,2.124-4.983,4.591-3.536,9.476C1707.691,2200.324,1710.2,2202.2,1712.22,2203.707Z" fill="#a15e27"/>
    <path id="Path_254" data-name="Path 254" d="M1383.35,2208.333c.364-13.837,1.328-27.3,8.078-38.03,6.437-10.258,15.34-16.7,22.537-25.772,6.974-8.8,12.474-19.518,18.9-29.057,5.521-8.183,12.006-14.842,17.513-23.04,6.38-9.5,11.4-21.139,18.623-29.434,2.823-3.228,6.143-5.863,9.825-6.142,3.1-.231,6,1.265,8.833,2.8a25.237,25.237,0,0,0,8.365,3.284c3.061.462,6.164,0,9.239.524,10.23,1.727,14.367,16.758,16.785,29.281,4.151,21.474,4.472,43.99,8.351,65.514,2.8,15.486,8.113,29.671,13.075,43.906Z" fill="#81471e"/>
    <path id="Path_255" data-name="Path 255" d="M1487.732,2245.58q-1.017-1.845-2.019-3.683c-4.864-9.008-9.728-18.253-13.453-28.365a123.942,123.942,0,0,1-5.611-21.37c-1.356-7.771-2.075-15.744-3.522-23.494-1.258-6.722-3.291-12.921-6.723-17.938-3.207-4.717-7.19-8.128-10.81-12.125a52.172,52.172,0,0,1-8.218-12.376c-1.9-3.906-3.7-8.218-6.646-10.643-7.037-5.758-16.709.2-23.1,5.15-7.862,6.1-15.066,14.228-21.873,22.467-7.03,8.512-13.494,17.89-20.964,25.689a131.237,131.237,0,0,0-12.2,13.913,89.566,89.566,0,0,0-10.524,19.777c-2.145,5.527-3.85,12.082-7.058,16.61-2.837,3.991-6.729,4.878-10.489,5.78-4.528,1.062-9.134,2.348-12.781,6.6-3.152,3.655-5.053,8.771-6.639,14.012Z" fill="#ab6c3c"/>
    <path id="Path_256" data-name="Path 256" d="M1388,2245.58h99.735q-1.017-1.845-2.019-3.683c-4.864-9.008-9.728-18.253-13.453-28.365a123.942,123.942,0,0,1-5.611-21.37c-1.356-7.771-2.075-15.744-3.522-23.494-1.258-6.722-3.291-12.921-6.723-17.938-3.207-4.717-7.19-8.128-10.81-12.125a52.172,52.172,0,0,1-8.218-12.376c-1.9-3.906-3.7-8.218-6.646-10.643-3.592-2.942-7.876-2.83-12.055-1.349,1.412,4.019,3.844,7.666,4.046,12.67a11.977,11.977,0,0,1-3.668,9.161c-1.58,1.747-4.033,3.641-4.584,6.632-.525,2.865.929,6.234,1.313,9a75.32,75.32,0,0,1,.266,13.808c-.468,8.736-1.8,17.017-6.828,22.516-3.913,4.305-9.343,7.191-12.18,13.222-2.593,5.486-.5,12.928-.273,18.952.259,6.953-1.348,14.374-4.633,19.56C1390.828,2241.8,1389.36,2243.63,1388,2245.58Z" fill="#995e2a"/>
    <path id="Path_257" data-name="Path 257" d="M1661.646,2245.58l-.216-.475c-7.513-17.422-13.606-35.85-20.259-53.97a220.169,220.169,0,0,0-23.25-46.3A321.952,321.952,0,0,1,1591,2096.271c-6.925-15.793-13.263-34.333-24.843-44.207-11.139-9.525-25.513-10.433-38.1-8.707-13.62,1.872-26,8.819-36.6,21.244-10.811,12.648-10.769,23.095-19.448,38.679-15.192-11.3-23.8,34.256-30.636,49.218-7.89,17.274-16.779,33.606-24.319,51.167a229.655,229.655,0,0,0-12.956,41.915Z" fill="#bc8055"/>
    <path id="Path_258" data-name="Path 258" d="M1517.537,2126.781c6.429,5.346,13.291,10.35,18.553,18.03,5.22,7.631,7.589,17.421,7.023,28.043-.741,13.886-5.255,27.121-9.923,39.085-4.521,11.572-9.762,22.5-14.773,33.641h36.975c.013-5.6-.1-11.237-.084-16.828.042-21.6,1.991-44.4-1.468-65.6-2.963-18.135-11.4-30.189-22.39-39.19-8.421-6.89-17.289-12.334-24.892-21.118a125.516,125.516,0,0,0-16.394-15.989c2.865,7.631,5.919,15.073,10.035,21.439C1505.161,2115.95,1511.282,2121.568,1517.537,2126.781Z" fill="#ad6b3d"/>
    <path id="Path_259" data-name="Path 259" d="M1449.724,2245.58a94,94,0,0,1,4.1-21.908c3.291-11.035,5.828-22.642,9.748-33.229a103.137,103.137,0,0,0,5.472-19.042c1.223-7.268,1.775-14.711,3.445-21.81,2.739-11.7,7.282-24.131,13.026-33.418-7.659,9.993-14.025,21.8-19.693,34.13-3.095,6.744-6.086,13.543-8.944,20.5-2.677,6.534-5.612,13.026-7.646,20.035-1.809,6.2-3.228,12.523-5.618,18.344a180.4,180.4,0,0,1-8.3,17.387,72.81,72.81,0,0,0-6.226,15.535c-.329,1.167-.65,2.327-.979,3.48Z" fill="#ad6b3d"/>
    <path id="Path_260" data-name="Path 260" d="M1535.182,2110.038c8.267,7.141,17.3,12.173,26.876,13.682,3.1.475,6.2.734,9.281,1.314,1.593.287,3.815.482,5.045,2.173,1.076,1.447,1,3.641,1.111,5.584a25.116,25.116,0,0,0,1.384,7.414c2.411,6.422,7.358,9.693,10.531,15.193,3.564,6.2,3.508,13.78,1.586,21.006-1.677,6.254-5.276,12.935-3.005,19.811,2.928,8.847,10.622,13.557,15.968,18.764,1.684,1.642,4.57,4.116,4.493,7.526-.055,2.977-2.313,5.339-3.766,6.981-4.857,5.528-10.049,10.287-14.731,16.094h30.21c-.224-4.871.139-10.042.139-14.787,0-5.206-.062-10.42-.021-15.626.042-2.83-.831-4.542-1.537-7.156-.587-2.222-1.719-5.7-1.572-8.085,1.293.72,2.383,1.1,3.291,2.97a8.974,8.974,0,0,0,1.475,2.544l1.621,1.824a19.041,19.041,0,0,0-1.223-6.045c-.447-1.293-1-2.376-1.356-3.7-.517-1.992-.88-4.088-1.376-6.114-.671-2.831-1.328-5.689-2.02-8.519-.86-3.459-1.922-6.667-2.816-10.084-1.265-4.808-3.194-9.4-4.011-14.542-.427-2.726-1.1-5.213-1.594-7.911-.279-1.53-.3-3.871-1.272-4.9,1.852,3.039,4.158,5.331,6.017,8.42a49.763,49.763,0,0,1,5.088,9.93c1.467,4.382,3.165,8.6,4.731,12.907,1.852,5.053,4.542,9.309,6.526,14.319,1.573,3.976,2.88,7.939,4.662,11.754a28.861,28.861,0,0,1,2.5,6.366c.329,1.517.888,3.138,2.237,3.11l1.4-.866c.9-.133,1.265.74,1.712,1.642.874,1.775,1.3,3.969,2.153,5.6a18.82,18.82,0,0,1,1.7,3.942c.852,2.767,1.935,5.373,2.907,8.057.859,2.313,1.894,4.319,2.711,6.709.93,2.725,1.887,5.478,2.768,8.232h6.638l-.216-.475c-7.513-17.422-13.606-35.85-20.259-53.97a220.169,220.169,0,0,0-23.25-46.3A321.952,321.952,0,0,1,1591,2096.271c-6.925-15.793-13.263-34.333-24.843-44.207a36.953,36.953,0,0,0-10.3-6.213,41.258,41.258,0,0,0,5.4,11.077c2.083,2.886,7.317,8.4,4.1,12.928-2.495,3.508-7.946,2.914-9.344,8.008-.894,3.306,1.147,8.414-.992,11.021-1.216,1.495-3.277,1.243-4.745,1.229a30.59,30.59,0,0,0-6.289.28c-4.2.859-8.477,3.948-11.356,8.463C1529.556,2103.636,1531.925,2107.221,1535.182,2110.038Z" fill="#ad6b3d"/>
    <path id="Path_261" data-name="Path 261" d="M1610.759,2158.263c.817,5.143,2.746,9.734,4.011,14.542.894,3.417,1.956,6.625,2.816,10.084.692,2.83,1.349,5.688,2.02,8.519.5,2.026.859,4.122,1.376,6.114.357,1.321.909,2.4,1.356,3.7a19.041,19.041,0,0,1,1.223,6.045l-1.621-1.824a8.974,8.974,0,0,1-1.475-2.544c-.908-1.866-2-2.25-3.291-2.97-.147,2.383.985,5.863,1.572,8.085.706,2.614,1.579,4.326,1.537,7.156-.041,5.206.021,10.42.021,15.626,0,4.745-.363,9.916-.139,14.787h34.843c-.881-2.754-1.838-5.507-2.768-8.232-.817-2.39-1.852-4.4-2.711-6.709-.972-2.684-2.055-5.29-2.907-8.057a18.82,18.82,0,0,0-1.7-3.942c-.853-1.635-1.279-3.829-2.153-5.6-.447-.9-.817-1.775-1.712-1.642l-1.4.866c-1.349.028-1.908-1.593-2.237-3.11a28.861,28.861,0,0,0-2.5-6.366c-1.782-3.815-3.089-7.778-4.662-11.754-1.984-5.01-4.674-9.266-6.526-14.319-1.566-4.3-3.264-8.525-4.731-12.907a49.763,49.763,0,0,0-5.088-9.93c-1.859-3.089-4.165-5.381-6.017-8.42.972,1.027.993,3.368,1.272,4.9C1609.661,2153.05,1610.332,2155.537,1610.759,2158.263Z" fill="#81471e"/>
    <path id="Path_262" data-name="Path 262" d="M1897.517,2309.8h98.9a10.572,10.572,0,0,0-1.223-4.752c-2.5-5.856-5.436-11.384-8.176-17.044-3.913-8.065-7.826-16.15-12.194-23.718a120.555,120.555,0,0,0-14.186-19.993c-4.633-5.2-9.623-9.721-14.27-14.878a115.31,115.31,0,0,1-12.55-17.2c-3.6-5.912-6.982-12.439-11.384-17.2-3.683-3.976-7.918-5.632-12.418-3.794-4.941,2-9.133,6.792-13.277,10.915-3.138,3.138-7.226,7.715-11.328,6.751-4.172-.971-6.59-7.645-8.351-12.467-4.941-13.347-9.189-32.041-20.392-36.96-10.6-4.647-22.215,4.933-31.425,11.37l-26.863,126.359c6.947.343,13.893.671,20.832,1.139C1845.505,2300.108,1871.458,2305.252,1897.517,2309.8Z" fill="#ba8043"/>
    <path id="Path_263" data-name="Path 263" d="M1897.517,2309.8h25.905c-1.146-2.125-1.342-6-1.551-8.4-.35-4.4,2.124-5.178,4.64-6.394,3.11-1.5,6.213-2.97,9.252-4.7-2.376-2.7-5.122-4.256-7.735-6.366-2.174-1.74-3.089-3.474-.5-5.3,2.111-1.461,5.325-2.174,6.716-5.172,1.174-2.529-.126-5.059-1.6-6.582-4.144-4.3-9.812-4.026-14.508-6.227-1.775-.832-3.885-2.439-3.787-5.542a6.079,6.079,0,0,1,3.116-5.129c4.053-2.383,8.442-3.731,12.628-5.471,4.326-1.818,1.747-8.4-.454-11.405-5.137-7-11.691-10.853-18.281-14.081-3.634-1.775-9.273-3.362-9.253-10.217a43.542,43.542,0,0,1,2.551-14.011l.168-.406a109.572,109.572,0,0,0-8.085,7.743c-3.138,3.138-7.226,7.715-11.328,6.751-4.172-.971-6.59-7.645-8.351-12.467-4.941-13.347-9.189-32.041-20.392-36.96-10.6-4.647-22.215,4.933-31.425,11.37l-26.863,126.359c6.947.343,13.893.671,20.832,1.139C1845.505,2300.108,1871.458,2305.252,1897.517,2309.8Z" fill="#925b26"/>
    <path id="Path_264" data-name="Path 264" d="M1959.6,2267.914a59.742,59.742,0,0,0,8,4.863c1.608.86,3.285,1.615,3.452,4.417.182,2.837-1.006,5.863-2.068,8.127-.748,1.6-2.7,3.9-2.606,6.038.1,2.7,3.221,4.528,4.549,5.667,2.809,2.4,5.793,4.536,8.455,7.247a14.77,14.77,0,0,1,3.362,5.528h13.675a10.572,10.572,0,0,0-1.223-4.752c-2.5-5.856-5.436-11.384-8.176-17.044-3.913-8.065-7.826-16.15-12.194-23.718a121.773,121.773,0,0,0-13.305-18.938,12.989,12.989,0,0,1-3.851,6.548c-2.53,2.124-4.975,4.591-3.529,9.476C1955.072,2264.546,1957.587,2266.411,1959.6,2267.914Z" fill="#b1722c"/>
    <path id="Path_265" data-name="Path 265" d="M1630.745,2272.547c.363-13.837,1.334-27.3,8.057-38.03,6.457-10.237,15.353-16.708,22.551-25.772,6.988-8.8,12.474-19.518,18.91-29.057,5.513-8.176,12-14.856,17.505-23.039,6.387-9.5,11.4-21.147,18.616-29.428,2.831-3.242,6.143-5.863,9.84-6.149,3.081-.238,5.982,1.251,8.833,2.816a25.97,25.97,0,0,0,8.344,3.277c3.081.455,6.184,0,9.245.518,10.231,1.733,14.375,16.771,16.792,29.3,4.151,21.454,4.473,43.969,8.351,65.5,2.789,15.479,8.121,29.665,13.068,43.9Z" fill="#925b26"/>
    <path id="Path_266" data-name="Path 266" d="M1735.113,2309.8c-.671-1.223-1.349-2.446-2.02-3.7-4.85-9-9.727-18.246-13.445-28.351a124.273,124.273,0,0,1-5.612-21.377c-1.348-7.77-2.075-15.73-3.515-23.487-1.271-6.722-3.305-12.935-6.722-17.945-3.222-4.724-7.191-8.128-10.825-12.118a52.307,52.307,0,0,1-8.211-12.383c-1.908-3.9-3.69-8.218-6.653-10.643-7.03-5.772-16.708.2-23.1,5.151-7.841,6.093-15.053,14.234-21.859,22.459-7.038,8.519-13.487,17.911-20.965,25.7A130.712,130.712,0,0,0,1599.976,2247a89.384,89.384,0,0,0-10.51,19.8c-2.167,5.52-3.865,12.075-7.065,16.589-2.838,4-6.737,4.892-10.5,5.794-4.529,1.062-9.12,2.348-12.782,6.61-3.145,3.641-5.038,8.757-6.639,14.005Z" fill="#ba8043"/>
    <path id="Path_267" data-name="Path 267" d="M1635.385,2309.8h99.728c-.671-1.223-1.349-2.446-2.02-3.7-4.85-9-9.727-18.246-13.445-28.351a124.273,124.273,0,0,1-5.612-21.377c-1.348-7.77-2.075-15.73-3.515-23.487-1.271-6.722-3.305-12.935-6.722-17.945-3.222-4.724-7.191-8.128-10.825-12.118a52.307,52.307,0,0,1-8.211-12.383c-1.908-3.9-3.69-8.218-6.653-10.643-3.592-2.942-7.854-2.823-12.04-1.341,1.411,4.011,3.836,7.652,4.046,12.669a12.008,12.008,0,0,1-3.683,9.155c-1.579,1.739-4.025,3.64-4.584,6.617-.531,2.879.922,6.241,1.321,9.015a75.308,75.308,0,0,1,.258,13.815c-.468,8.722-1.8,17-6.813,22.509-3.921,4.3-9.35,7.191-12.188,13.215-2.592,5.507-.5,12.935-.272,18.966.265,6.939-1.342,14.367-4.64,19.553C1638.208,2306.006,1636.755,2307.837,1635.385,2309.8Z" fill="#aa7231"/>
    <path id="Path_268" data-name="Path 268" d="M1909.034,2309.8l-.21-.468c-7.526-17.436-13.613-35.871-20.266-53.963a219.474,219.474,0,0,0-23.242-46.31,323.478,323.478,0,0,1-26.939-48.568c-6.926-15.793-13.271-34.34-24.843-44.214-11.125-9.525-25.507-10.44-38.093-8.7-13.627,1.88-25.989,8.812-36.6,21.237-10.824,12.641-10.768,23.089-19.441,38.679-15.185-11.293-23.794,34.249-30.629,49.225-7.889,17.246-16.778,33.592-24.332,51.181a229.875,229.875,0,0,0-12.957,41.9Z" fill="#cb955d"/>
    <path id="Path_269" data-name="Path 269" d="M1764.931,2190.981c6.422,5.353,13.278,10.364,18.554,18.058,5.2,7.624,7.582,17.407,7.009,28.036-.741,13.865-5.248,27.114-9.916,39.078-4.529,11.572-9.777,22.495-14.766,33.648h36.953c.035-5.612-.1-11.244-.077-16.835.056-21.579,2-44.388-1.46-65.6-2.977-18.142-11.405-30.2-22.4-39.176-8.406-6.9-17.288-12.348-24.877-21.132a127.172,127.172,0,0,0-16.394-15.975c2.858,7.61,5.918,15.059,10.035,21.419C1752.548,2180.157,1758.656,2185.782,1764.931,2190.981Z" fill="#bc7f44"/>
    <path id="Path_270" data-name="Path 270" d="M1697.1,2309.8a93.824,93.824,0,0,1,4.116-21.922c3.278-11.027,5.814-22.635,9.742-33.222a103.856,103.856,0,0,0,5.478-19.042c1.209-7.268,1.775-14.711,3.432-21.81,2.746-11.7,7.288-24.131,13.039-33.411-7.659,9.972-14.039,21.782-19.7,34.137-3.1,6.744-6.094,13.536-8.938,20.483-2.691,6.534-5.612,13.019-7.645,20.049-1.824,6.205-3.229,12.515-5.618,18.33a179.028,179.028,0,0,1-8.317,17.386,73.265,73.265,0,0,0-6.212,15.549c-.335,1.146-.664,2.313-.992,3.473Z" fill="#bc7f44"/>
    <path id="Path_271" data-name="Path 271" d="M1782.576,2174.252c8.26,7.135,17.289,12.18,26.87,13.668,3.088.49,6.2.748,9.273,1.321,1.593.294,3.815.489,5.059,2.2,1.063,1.446.993,3.626,1.111,5.562a24.578,24.578,0,0,0,1.384,7.428c2.4,6.416,7.352,9.672,10.517,15.186,3.571,6.177,3.522,13.78,1.587,21.006-1.671,6.255-5.269,12.935-3.005,19.812,2.935,8.84,10.636,13.556,15.975,18.763,1.684,1.642,4.577,4.109,4.5,7.533-.056,2.963-2.327,5.332-3.781,6.988-4.856,5.514-10.049,10.28-14.745,16.087h30.224c-.224-4.878.14-10.049.14-14.794,0-5.2-.063-10.419-.007-15.626.028-2.83-.839-4.535-1.545-7.156-.587-2.229-1.712-5.7-1.565-8.085,1.279.713,2.383,1.1,3.271,2.963a9.486,9.486,0,0,0,1.481,2.558l1.635,1.824a19.614,19.614,0,0,0-1.244-6.052c-.419-1.293-.978-2.376-1.341-3.7-.525-1.991-.881-4.1-1.377-6.107-.678-2.837-1.335-5.7-2.013-8.526-.859-3.473-1.921-6.667-2.823-10.07-1.265-4.822-3.2-9.413-4.011-14.549-.419-2.746-1.1-5.227-1.6-7.9-.266-1.544-.294-3.885-1.265-4.912,1.852,3.053,4.151,5.332,6.017,8.413a49.44,49.44,0,0,1,5.087,9.937c1.467,4.375,3.159,8.6,4.738,12.894,1.838,5.066,4.535,9.322,6.513,14.332,1.572,3.977,2.886,7.946,4.682,11.754a29.282,29.282,0,0,1,2.474,6.367c.335,1.516.894,3.137,2.25,3.123l1.391-.88c.894-.133,1.265.747,1.726,1.642.866,1.768,1.285,3.976,2.138,5.611a18.569,18.569,0,0,1,1.719,3.935c.846,2.781,1.922,5.374,2.893,8.057.867,2.32,1.894,4.319,2.719,6.709.929,2.725,1.894,5.478,2.767,8.239h6.639l-.21-.468c-7.526-17.436-13.613-35.871-20.266-53.963a219.474,219.474,0,0,0-23.242-46.31,323.478,323.478,0,0,1-26.939-48.568c-6.926-15.793-13.271-34.34-24.843-44.214a36.706,36.706,0,0,0-10.294-6.212,40.794,40.794,0,0,0,5.4,11.076c2.068,2.893,7.31,8.392,4.088,12.928-2.481,3.522-7.953,2.914-9.336,8.008-.9,3.306,1.132,8.428-.985,11.021-1.216,1.481-3.285,1.243-4.752,1.229a31.63,31.63,0,0,0-6.3.273c-4.193.86-8.462,3.969-11.348,8.47C1776.937,2167.851,1779.32,2171.435,1782.576,2174.252Z" fill="#bc7f44"/>
    <path id="Path_272" data-name="Path 272" d="M1858.146,2222.484c.811,5.136,2.746,9.727,4.011,14.549.9,3.4,1.964,6.6,2.823,10.07.678,2.83,1.335,5.689,2.013,8.526.5,2.005.852,4.116,1.377,6.107.363,1.321.922,2.4,1.341,3.7a19.614,19.614,0,0,1,1.244,6.052l-1.635-1.824a9.486,9.486,0,0,1-1.481-2.558c-.888-1.859-1.992-2.25-3.271-2.963-.147,2.39.978,5.856,1.565,8.085.706,2.621,1.573,4.326,1.545,7.156-.056,5.207.007,10.427.007,15.626,0,4.745-.364,9.916-.14,14.794h34.85c-.873-2.761-1.838-5.514-2.767-8.239-.825-2.39-1.852-4.389-2.719-6.709-.971-2.683-2.047-5.276-2.893-8.057a18.569,18.569,0,0,0-1.719-3.935c-.853-1.635-1.272-3.843-2.138-5.611-.461-.9-.832-1.775-1.726-1.642l-1.391.88c-1.356.014-1.915-1.607-2.25-3.123a29.282,29.282,0,0,0-2.474-6.367c-1.8-3.808-3.11-7.777-4.682-11.754-1.978-5.01-4.675-9.266-6.513-14.332-1.579-4.291-3.271-8.519-4.738-12.894a49.44,49.44,0,0,0-5.087-9.937c-1.866-3.081-4.165-5.36-6.017-8.413.971,1.027,1,3.368,1.265,4.912C1857.049,2217.257,1857.727,2219.738,1858.146,2222.484Z" fill="#925b26"/>
    <path id="Path_273" data-name="Path 273" d="M1433.5,2412.345h164.746c.23-2-.9-4.347-2.027-6.527-4.193-8.071-9.084-15.688-13.634-23.459-6.506-11.111-13.032-22.258-20.3-32.677a170.933,170.933,0,0,0-23.662-27.5c-7.722-7.17-16.01-13.39-23.781-20.489a163.918,163.918,0,0,1-20.873-23.69c-6-8.121-11.65-17.121-18.98-23.669-6.129-5.458-13.194-7.757-20.692-5.227-8.211,2.774-15.2,9.357-22.124,15.038-5.214,4.305-12.02,10.608-18.841,9.28-6.967-1.32-10.978-10.517-13.948-17.134-8.225-18.393-15.269-44.124-33.948-50.9-17.645-6.4-37.01,6.792-52.355,15.653L1268.339,2395c11.559.469,23.131.937,34.69,1.566C1346.816,2399.025,1390.066,2406.084,1433.5,2412.345Z" fill="#df9f52"/>
    <path id="Path_274" data-name="Path 274" d="M1433.5,2412.345h43.131c-1.894-2.914-2.243-8.232-2.564-11.538-.6-6.058,3.535-7.134,7.728-8.812,5.165-2.075,10.336-4.088,15.4-6.478-3.948-3.738-8.525-5.884-12.893-8.77-3.613-2.39-5.15-4.787-.818-7.288,3.508-2.02,8.861-3,11.182-7.107,1.963-3.494-.2-6.982-2.649-9.085-6.918-5.912-16.359-5.507-24.193-8.56-2.949-1.14-6.457-3.362-6.31-7.639.14-3.535,2.69-5.835,5.213-7.058,6.736-3.277,14.06-5.122,21.02-7.533,7.219-2.487,2.921-11.558-.755-15.7-8.553-9.637-19.455-14.941-30.447-19.385-6.059-2.446-15.451-4.633-15.423-14.06a51.318,51.318,0,0,1,4.249-19.3l.3-.552c-4.738,3.124-9.134,7.072-13.5,10.657-5.214,4.305-12.02,10.608-18.841,9.28-6.967-1.32-10.978-10.517-13.948-17.134-8.225-18.393-15.269-44.124-33.948-50.9-17.645-6.4-37.01,6.792-52.355,15.653L1268.339,2395c11.559.469,23.131.937,34.69,1.566C1346.816,2399.025,1390.066,2406.084,1433.5,2412.345Z" fill="#b57932"/>
    <path id="Path_275" data-name="Path 275" d="M1536.915,2354.686a106.833,106.833,0,0,0,13.312,6.7c2.677,1.188,5.479,2.223,5.758,6.08.294,3.892-1.67,8.064-3.445,11.167-1.272,2.229-4.5,5.388-4.36,8.337.188,3.7,5.381,6.226,7.589,7.785,4.682,3.3,9.644,6.268,14.109,9.972a20.513,20.513,0,0,1,5.583,7.617h22.782c.23-2-.9-4.347-2.027-6.527-4.193-8.071-9.084-15.688-13.634-23.459-6.506-11.111-13.032-22.258-20.3-32.677a172.825,172.825,0,0,0-22.188-26.059,17.359,17.359,0,0,1-6.4,9c-4.214,2.942-8.309,6.338-5.891,13.047C1529.368,2350.045,1533.554,2352.617,1536.915,2354.686Z" fill="#d48f37"/>
    <path id="Path_276" data-name="Path 276" d="M1452.673,2412.359H1201.03a231.82,231.82,0,0,1-44.578-28.134c-5.744-4.529-11.335-9.393-16.771-14.487-1.042-.957-2.069-1.943-3.1-2.942q-5.083-4.884-10.007-10.119c-2.831-3.012-5.626-6.1-8.351-9.252-5.472-6.282-10.685-12.83-15.723-19.588a350.121,350.121,0,0,1-22.2-34.011c1.8-3.194,3.634-6.4,5.409-9.63,2.5-4.5,5.108-11.013,7.974-18.288,10.209-25.982,23.277-61.628,43.088-49.455,14.452-21.482,14.354-35.849,32.384-53.271,1.1-1.083,2.215-2.1,3.333-3.116l2.075-1.775a104.133,104.133,0,0,1,21.81-14.48,103.69,103.69,0,0,1,33.739-9.874c14.941-1.677,31.37-1.53,46.3,3.466,1.5.517,3.005,1.048,4.493,1.656l2.187.93,2.46,1.139c1.076.531,2.166,1.1,3.222,1.74l2.187,1.321,1.314.845,1.335.9c19.252,13.606,29.818,39.112,41.376,60.845l.965,1.775c.768,1.44,1.551,2.873,2.334,4.319,5.164,9.294,10.664,18.19,16.471,26.772,1.307,1.984,2.669,3.976,4.053,5.926l.447.657c.58.866,1.174,1.705,1.81,2.543l1.733,2.439.692,1c2.746,3.788,5.528,7.534,8.386,11.244,1.223,1.622,2.5,3.264,3.787,4.892,1.349,1.761,2.768,3.543,4.165,5.318,4.074,5.074,7.911,10.217,11.58,15.472,1.139,1.621,2.278,3.277,3.361,4.92,1.055,1.572,2.068,3.158,3.1,4.723,1.02,1.629,2.075,3.271,3.067,4.927,1.028,1.684,2.013,3.333,3.005,5.025s1.95,3.389,2.886,5.1c.958,1.719,1.887,3.417,2.817,5.171.908,1.733,1.831,3.508,2.711,5.283.867,1.642,1.677,3.361,2.488,5.046l.021.09.035.056.028.077.042.056.055.112.483,1c.447.923.866,1.838,1.3,2.768.588,1.271,1.195,2.585,1.762,3.906,3.13,7.079,6.226,14.2,9.294,21.293l.028.07c.957,2.236,1.949,4.535,2.914,6.778,1.922,4.438,3.871,8.9,5.863,13.313.985,2.222,1.978,4.444,2.956,6.645,2.257,4.955,4.549,9.875,6.946,14.787.608,1.223,1.216,2.488,1.831,3.718l.251.447c1.168,2.439,2.425,4.843,3.662,7.247Z" fill="#f2b86d"/>
    <path id="Path_277" data-name="Path 277" d="M1212.588,2248.794c10.713,7.359,22.159,14.249,30.923,24.836,8.693,10.5,12.634,23.962,11.684,38.6-1.23,19.119-8.743,37.337-16.52,53.794-7.541,15.94-16.276,31-24.613,46.325h61.587c.035-7.729-.161-15.479-.14-23.18.084-29.706,3.319-61.1-2.446-90.308-4.933-24.975-18.98-41.565-37.282-53.934-14.032-9.5-28.805-17-41.453-29.085a197.416,197.416,0,0,0-27.324-22c4.759,10.476,9.853,20.727,16.73,29.511C1191.994,2233.874,1202.183,2241.624,1212.588,2248.794Z" fill="#e09d53"/>
    <path id="Path_278" data-name="Path 278" d="M1242,2225.74c13.76,9.819,28.812,16.765,44.766,18.819,5.15.678,10.329,1.042,15.458,1.824,2.655.413,6.359.678,8.421,3.012,1.768,1.992,1.649,5,1.844,7.673a29.433,29.433,0,0,0,2.293,10.21c4.025,8.847,12.257,13.347,17.547,20.908,5.933,8.519,5.842,18.98,2.627,28.931-2.781,8.61-8.77,17.806-5,27.268,4.891,12.187,17.7,18.659,26.611,25.835,2.8,2.264,7.617,5.661,7.505,10.357-.112,4.1-3.885,7.365-6.3,9.622-8.093,7.6-16.73,14.165-24.543,22.146h50.343c-.377-6.7.237-13.823.237-20.35,0-7.17-.125-14.36-.034-21.523.055-3.879-1.391-6.241-2.558-9.839-1-3.068-2.872-7.848-2.621-11.14,2.125,1,3.963,1.517,5.451,4.075a12.507,12.507,0,0,0,2.474,3.515c.929.943,1.831,1.635,2.7,2.515a22.567,22.567,0,0,0-2.054-8.33c-.727-1.775-1.642-3.256-2.229-5.094-.867-2.725-1.482-5.625-2.306-8.407-1.14-3.9-2.216-7.84-3.362-11.726-1.418-4.766-3.207-9.182-4.7-13.871-2.1-6.639-5.325-12.949-6.667-20.028-.712-3.76-1.83-7.177-2.655-10.874-.461-2.138-.5-5.339-2.124-6.771,3.095,4.2,6.925,7.351,10.014,11.607,3.109,4.256,6.429,8.553,8.5,13.669,2.439,6.031,5.255,11.838,7.869,17.764,3.075,6.939,7.582,12.816,10.859,19.706,2.628,5.486,4.8,10.937,7.778,16.192,1.628,2.865,3.285,5.443,4.165,8.756.531,2.1,1.475,4.312,3.718,4.3,1.041-.021,1.544-1.1,2.313-1.2,1.509-.2,2.138,1.006,2.893,2.25,1.447,2.432,2.138,5.458,3.564,7.722a24.231,24.231,0,0,1,2.851,5.415c1.412,3.823,3.2,7.4,4.836,11.091,1.425,3.193,3.145,5.933,4.507,9.252,1.552,3.739,3.152,7.533,4.633,11.321h11.042l-.343-.65c-12.529-23.983-22.683-49.364-33.739-74.291a287.518,287.518,0,0,0-38.749-63.739c-16.708-20.929-31.873-42.432-44.85-66.877-11.551-21.74-22.117-47.26-41.384-60.859a64.847,64.847,0,0,0-17.155-8.533,52.631,52.631,0,0,0,8.986,15.234c3.452,3.977,12.174,11.566,6.814,17.8-4.137,4.836-13.243,4-15.556,11.02-1.495,4.557,1.887,11.6-1.649,15.172-2.013,2.054-5.465,1.712-7.918,1.7a60.241,60.241,0,0,0-10.468.377,31.435,31.435,0,0,0-18.924,11.642C1232.616,2216.942,1236.578,2221.869,1242,2225.74Z" fill="#e09d53"/>
    <path id="Path_279" data-name="Path 279" d="M1367.9,2292.142c1.342,7.079,4.564,13.389,6.667,20.028,1.5,4.689,3.285,9.1,4.7,13.871,1.146,3.886,2.222,7.827,3.362,11.726.824,2.782,1.439,5.682,2.306,8.407.587,1.838,1.5,3.319,2.229,5.094a22.567,22.567,0,0,1,2.054,8.33c-.873-.88-1.775-1.572-2.7-2.515a12.507,12.507,0,0,1-2.474-3.515c-1.488-2.558-3.326-3.075-5.451-4.075-.251,3.292,1.622,8.072,2.621,11.14,1.167,3.6,2.613,5.96,2.558,9.839-.091,7.163.034,14.353.034,21.523,0,6.527-.614,13.648-.237,20.35h58.05c-1.481-3.788-3.081-7.582-4.633-11.321-1.362-3.319-3.082-6.059-4.507-9.252-1.635-3.69-3.424-7.268-4.836-11.091a24.231,24.231,0,0,0-2.851-5.415c-1.426-2.264-2.117-5.29-3.564-7.722-.755-1.244-1.384-2.446-2.893-2.25-.769.091-1.272,1.174-2.313,1.2-2.243.014-3.187-2.2-3.718-4.3-.88-3.313-2.537-5.891-4.165-8.756-2.977-5.255-5.15-10.706-7.778-16.192-3.277-6.89-7.784-12.767-10.859-19.706-2.614-5.926-5.43-11.733-7.869-17.764-2.068-5.116-5.388-9.413-8.5-13.669-3.089-4.256-6.919-7.408-10.014-11.607,1.621,1.432,1.663,4.633,2.124,6.771C1366.069,2284.965,1367.187,2288.382,1367.9,2292.142Z" fill="#b57932"/>
    <path id="Path_280" data-name="Path 280" d="M2112.081,2290.954q-6.205,9.528-13.144,18.392c-2.53,3.292-5.144,6.465-7.855,9.6-2.334,2.754-4.738,5.451-7.205,8.134a323.784,323.784,0,0,1-38,34.857,424.536,424.536,0,0,1-54.99,36.2l-.727.426h-.021c-2.054-.091-4.123-.167-6.156-.21l7.351-24.1v-.063l29.085-95.367,6.4-21.02c6.667-3.25,14.13-7.254,21.88-10.119,9.315-3.466,19.008-5.36,28.267-2.53,17.883,5.451,24.612,26.262,32.495,41.1C2110.222,2287.718,2111.1,2289.354,2112.081,2290.954Z" fill="#df9f52"/>
    <path id="Path_281" data-name="Path 281" d="M2112.081,2290.954q-6.205,9.528-13.144,18.392c-2.53,3.292-5.144,6.465-7.855,9.6-2.334,2.754-4.738,5.451-7.205,8.134a323.784,323.784,0,0,1-38,34.857,424.536,424.536,0,0,1-54.99,36.2l-.727.426h-.021c-2.054-.091-4.123-.167-6.156-.21l7.351-24.1v-.063l29.085-95.367,6.4-21.02c6.667-3.25,14.13-7.254,21.88-10.119,9.315-3.466,19.008-5.36,28.267-2.53,17.883,5.451,24.612,26.262,32.495,41.1C2110.222,2287.718,2111.1,2289.354,2112.081,2290.954Z" fill="#b57932"/>
    <path id="Path_282" data-name="Path 282" d="M1716.6,2370.912c.566-15.388,2.1-30.363,12.851-42.271,10.287-11.412,24.494-18.6,35.975-28.694,11.118-9.762,19.888-21.705,30.147-32.313,8.805-9.091,19.148-16.513,27.925-25.618,10.182-10.566,18.176-23.515,29.7-32.726,4.515-3.613,9.791-6.541,15.675-6.841,4.92-.252,9.56,1.384,14.109,3.13a52.259,52.259,0,0,0,13.312,3.641c4.906.5,9.861,0,14.738.566,16.332,1.936,22.922,18.659,26.786,32.586,6.625,23.879,7.135,48.91,13.326,72.859,4.452,17.218,12.935,33,20.846,48.826Z" fill="#b57932"/>
    <path id="Path_283" data-name="Path 283" d="M1883.073,2412.345c-1.062-1.363-2.146-2.726-3.222-4.109-7.757-10.014-15.507-20.294-21.446-31.538a105.828,105.828,0,0,1-8.952-23.759c-2.16-8.645-3.313-17.506-5.619-26.122-2.012-7.484-5.262-14.389-10.726-19.958-5.123-5.255-11.468-9.05-17.24-13.494a62.867,62.867,0,0,1-13.117-13.76c-3.04-4.333-5.877-9.14-10.6-11.838-11.209-6.408-26.646.224-36.835,5.73-12.529,6.779-24.025,15.814-34.877,24.983-11.223,9.469-21.531,19.909-33.446,28.575-6.715,4.9-13.466,9.7-19.469,15.457a95.063,95.063,0,0,0-16.757,22.006c-3.452,6.143-6.171,13.445-11.265,18.47-4.528,4.458-10.741,5.436-16.744,6.429-7.225,1.2-14.563,2.634-20.4,7.351-5.011,4.06-8.051,9.756-10.58,15.577Z" fill="#df9f52"/>
    <path id="Path_284" data-name="Path 284" d="M1723.995,2412.345h159.078c-1.062-1.363-2.146-2.726-3.222-4.109-7.757-10.014-15.507-20.294-21.446-31.538a105.828,105.828,0,0,1-8.952-23.759c-2.16-8.645-3.313-17.506-5.619-26.122-2.012-7.484-5.262-14.389-10.726-19.958-5.123-5.255-11.468-9.05-17.24-13.494a62.867,62.867,0,0,1-13.117-13.76c-3.04-4.333-5.877-9.14-10.6-11.838-5.723-3.277-12.551-3.145-19.21-1.5,2.25,4.458,6.128,8.532,6.443,14.088.272,4.612-2.4,7.568-5.842,10.2-2.53,1.929-6.437,4.039-7.324,7.373-.86,3.173,1.481,6.925,2.1,10.007a58.593,58.593,0,0,1,.42,15.367c-.748,9.713-2.859,18.917-10.881,25.045-6.24,4.766-14.906,7.988-19.434,14.7-4.13,6.121-.783,14.381-.433,21.076a30.5,30.5,0,0,1-7.394,21.761C1728.509,2408.145,1726.189,2410.178,1723.995,2412.345Z" fill="#cd8f3e"/>
    <path id="Path_285" data-name="Path 285" d="M2098.937,2309.346c-2.53,3.292-5.144,6.465-7.855,9.6-2.334,2.754-4.738,5.451-7.205,8.134a323.784,323.784,0,0,1-38,34.857,424.536,424.536,0,0,1-54.99,36.2l-.727.426h-.021q-13,7.2-26.478,13.795H1749.676a206.985,206.985,0,0,1,18.414-42.83c.727-1.258,1.474-2.509,2.257-3.781,1.495-2.432,3.005-4.836,4.577-7.205,10.741-16.527,22.705-32.278,33.55-48.735l.664-.979a100.959,100.959,0,0,0,5.744-10.768c.622-1.3,1.251-2.621,1.887-4,5.262-11.272,11.293-24.815,18.687-33.376,6.38-7.421,13.766-11.146,22.536-6.583a100.332,100.332,0,0,0,6.429-9.077c1.894-3,3.487-5.849,5.018-8.6,1.963-3.592,3.78-7.023,5.989-10.384a62.833,62.833,0,0,1,13.571-15c1.048-.859,2.131-1.705,3.214-2.515a104.767,104.767,0,0,1,28.365-15.242,114.149,114.149,0,0,1,26.793-5.842c14.339-1.362,30.056-1.216,44.353,2.816v-.034c1.44.391,2.887.852,4.3,1.327a54.678,54.678,0,0,1,5.689,2.223l1.348.628c.874.4,1.74.846,2.579,1.293.88.448,1.684.93,2.523,1.419,18.448,11,28.574,31.614,39.643,49.182l.9,1.391c12.229,19.148,26.408,36.1,42.027,52.628Q2094.971,2304.777,2098.937,2309.346Z" fill="#f2b86d"/>
    <path id="Path_286" data-name="Path 286" d="M1991.333,2374.189v.063c-.2,6.52-.447,12.977-.482,19.379,0,1.509,0,3.011.035,4.507l-.727.426h-.021q-13,7.2-26.478,13.795h-31.628c7.98-12.418,16.331-24.557,23.557-37.45,1.914-3.417,3.808-6.925,5.611-10.538a125.538,125.538,0,0,0,5.1-11.572v-.028a73.64,73.64,0,0,0,5.115-21.307,39.263,39.263,0,0,0-11.2-31.188,78.3,78.3,0,0,0-14.06-11.02h-.028c-5.081-3.18-10.364-6.087-15.507-9.057-.964-.531-1.922-1.1-2.851-1.67-8.987-5.346-17.645-11.174-24.787-18.868-6.59-7.093-11.461-15.388-16.017-23.865a193.376,193.376,0,0,1,26.171,17.8l1.286.978c9.077,7.065,19.2,12.174,29.266,17.527,3.068,1.621,6.108,3.235,9.133,4.982a97.528,97.528,0,0,1,14.969,10.364,63.193,63.193,0,0,1,17.093,22.362,59.748,59.748,0,0,1,3.641,10.838C1992.57,2337.991,1992,2356.216,1991.333,2374.189Z" fill="#e09d53"/>
    <path id="Path_287" data-name="Path 287" d="M1822.444,2412.345c.559-8.484,3.494-17.177,6.561-24.368,5.242-12.264,9.281-25.178,15.535-36.96,3.655-6.835,6.9-13.613,8.728-21.181,1.957-8.072,2.844-16.339,5.493-24.256,4.388-13.019,11.621-26.835,20.79-37.163-12.2,11.111-22.376,24.242-31.412,37.967-4.934,7.491-9.721,15.059-14.263,22.788-4.27,7.282-8.952,14.479-12.208,22.292-2.886,6.9-5.136,13.921-8.952,20.4a189.256,189.256,0,0,1-13.229,19.337,69.527,69.527,0,0,0-9.944,17.281c-.524,1.293-1.048,2.579-1.558,3.865Z" fill="#e09d53"/>
    <path id="Path_288" data-name="Path 288" d="M2098.937,2309.346c-2.53,3.292-5.144,6.465-7.855,9.6a66.934,66.934,0,0,0-6.751-8.6c-2.767-3.18-6.065-5.591-8.93-8.651.929,1.327,1.027,3.333,1.39,4.744.776,3.005,1.859,5.738,2.53,8.771.922,4.185,2.809,8.029,4.556,11.872a323.784,323.784,0,0,1-38,34.857,22.976,22.976,0,0,1-2.893-4.472c-3.606-7.666,2.131-15.123,4.821-22.069,3.04-8.008,3.131-16.45-2.536-23.361-5.074-6.108-12.949-9.749-16.793-16.89a20.2,20.2,0,0,1-2.194-8.26c-.217-2.132-.091-4.578-1.775-6.2a8.529,8.529,0,0,0-4.088-1.866c-1.384-.265-2.788-.419-4-.573-4.892-.615-9.847-.922-14.78-1.425a96.2,96.2,0,0,1-22.984-5.563,120.318,120.318,0,0,1-19.889-9.679,18.449,18.449,0,0,1-4.954-4.032v-.028c-1.859-2.369-2.139-5.108.866-8.378a29.371,29.371,0,0,1,5.912-4.871,31.707,31.707,0,0,1,12.2-4.535,70.763,70.763,0,0,1,10.049-.308c2.334,0,5.646.28,7.568-1.37,3.389-2.9.146-8.574,1.593-12.271,2.187-5.639,10.9-4.982,14.864-8.875,5.15-5.066-3.215-11.181-6.513-14.4a41.727,41.727,0,0,1-8.631-12.258v-.034c1.44.391,2.887.852,4.3,1.327q2.883,1,5.689,2.223l1.348.628c.874.4,1.74.846,2.579,1.293.88.448,1.684.93,2.523,1.419,18.448,11,28.574,31.614,39.643,49.182l.9,1.391c12.229,19.148,26.408,36.1,42.027,52.628Q2094.971,2304.777,2098.937,2309.346Z" fill="#e09d53"/>
    <path id="Path_289" data-name="Path 289" d="M2091.082,2318.948c-2.334,2.754-4.738,5.451-7.205,8.134-1.747-3.843-3.634-7.687-4.556-11.872-.671-3.033-1.754-5.766-2.53-8.771-.363-1.411-.461-3.417-1.39-4.744,2.865,3.06,6.163,5.471,8.93,8.651A66.934,66.934,0,0,1,2091.082,2318.948Z" fill="#b57932"/>
    <path id="Path_290" data-name="Path 290" d="M1435.81,2397.963h-.23c-2.292.091-4.571.175-6.856.238-9.021.328-18.029.657-27.016,1.076-3.543.189-7.086.37-10.636.58-2.488.147-4.989.322-7.477.524-3.669.252-7.331.517-10.972.818q-5.5.461-10.964.971h-.063l-2.4.2q-8.616.817-17.253,1.775c-4.172.447-8.351.936-12.551,1.418-2.222.238-4.445.489-6.7.748q-11.76,1.4-23.529,2.886c-3.941.475-7.841.965-11.754,1.44s-7.834.957-11.775,1.439l-2.1.28H1201.03a231.82,231.82,0,0,1-44.578-28.134c-5.744-4.529-11.335-9.393-16.771-14.487,2.375-3.138,4.807-6.275,7.323-9.336,1.272-1.524,2.558-3.026,3.886-4.5,1.376-1.573,2.823-3.131,4.269-4.634q2.433-2.516,4.955-4.9c1.418-1.321,2.823-2.614,4.27-3.879,1.432-1.257,2.914-2.487,4.409-3.7l1.447-1.195c7.589-5.954,15.744-11.112,23.368-17.01a147.26,147.26,0,0,0,20.524-19.615c5.682-6.485,11.09-13.7,17.9-19.015l.72-.608a24.385,24.385,0,0,1,12.746-5.136,21.426,21.426,0,0,1,7.6.81,38.036,38.036,0,0,1,8.477,3.641c1.167.657,2.32,1.349,3.431,2.034,1.474.936,2.907,1.928,4.319,2.914h.042v.042c1.851,1.286,3.654,2.571,5.464,3.822,5.137,3.585,11.831,8.8,18.533,7.715l.154-.035,1.111-.265,1.167-.427a11.544,11.544,0,0,0,2.942-1.775l.845-.747.811-.783.776-.839.733-.908,1.377-1.887c.964-1.446,1.831-2.97,2.642-4.416l1.139-2.125c.636-1.216,1.264-2.474,1.887-3.738.7-1.384,1.362-2.789,2.047-4.2,1.244-2.558,2.5-5.144,3.788-7.729v-.028c.517-.964,1.027-1.929,1.53-2.886.573-1.055,1.153-2.111,1.747-3.117a67.6,67.6,0,0,1,5.08-7.694l1.894-2.355,1.656-1.789,1.894-1.859,2.439-2.019,1.041-.727,1.021-.685,2.152-1.237,1.16-.573,1.978-.866,2.04-.72a33.188,33.188,0,0,1,4.808-1.055,34.4,34.4,0,0,1,7.149-.28l2.383.217a40.71,40.71,0,0,1,4.116.671l2.131.475c.93.2,1.824.44,2.733.72.908.244,1.8.538,2.7.838,1,.3,1.95.657,2.963,1.027,1.789.657,3.592,1.405,5.367,2.2,1.5.636,3,1.32,4.472,2.019,4.424,2.034,8.666,4.228,12.621,6.15l6.576,21.593,16.408,54,.021.09.035.056.028.077.042.056.055.112,13.257,43.473v.028Z" fill="#df9f52"/>
    <path id="Path_291" data-name="Path 291" d="M1273.538,2412.345h-42.39c1.887-2.418,2.216-6.835,2.523-9.567.6-5.024-3.466-5.912-7.582-7.309-5.08-1.72-10.147-3.39-15.136-5.367,3.885-3.1,8.371-4.864,12.662-7.275,3.55-1.971,5.074-3.969.8-6.045-3.438-1.67-8.693-2.481-10.972-5.891-1.928-2.893.182-5.786,2.607-7.519,6.786-4.913,16.059-4.577,23.739-7.1,2.914-.95,6.373-2.781,6.212-6.338-.133-2.921-2.627-4.829-5.1-5.856-6.632-2.7-13.816-4.242-20.671-6.234-7.093-2.061-2.872-9.58.748-13.033,8.392-7.98,19.112-12.383,29.916-16.058,5.947-2.027,15.171-3.837,15.143-11.65a36.907,36.907,0,0,0-4.172-16l-.279-.447c4.626,2.572,8.952,5.863,13.242,8.826,5.137,3.571,11.817,8.8,18.526,7.708,6.834-1.125,10.783-8.742,13.7-14.221,8.078-15.248,15-36.583,33.354-42.2,17.345-5.29,36.359,5.639,51.433,12.984l43.969,144.221c-11.369.384-22.732.762-34.095,1.3C1358.7,2401.3,1316.215,2407.146,1273.538,2412.345Z" fill="#b57932"/>
    <path id="Path_292" data-name="Path 292" d="M1710.2,2369.829c-.587-15.793-2.166-31.146-13.2-43.4-10.545-11.706-25.115-19.071-36.9-29.428-11.419-10.028-20.419-22.271-30.944-33.158-9.035-9.336-19.65-16.947-28.658-26.29-10.447-10.831-18.644-24.13-30.475-33.578-4.64-3.7-10.042-6.7-16.073-7.03-5.066-.251-9.818,1.44-14.487,3.2a53.511,53.511,0,0,1-13.668,3.745c-5.032.531-10.1,0-15.123.6-16.75,1.978-23.515,19.127-27.484,33.432-6.779,24.5-7.31,50.188-13.669,74.766-4.563,17.673-13.284,33.857-21.377,50.1Z" fill="#b57932"/>
    <path id="Path_293" data-name="Path 293" d="M1539.375,2412.345c1.1-1.4,2.194-2.795,3.3-4.221,7.966-10.266,15.912-20.818,22.006-32.348a109.4,109.4,0,0,0,9.189-24.389c2.222-8.875,3.389-17.98,5.758-26.82,2.069-7.673,5.4-14.759,11.007-20.483,5.255-5.38,11.761-9.259,17.694-13.836a63.594,63.594,0,0,0,13.459-14.123c3.11-4.459,6.045-9.378,10.88-12.152,11.5-6.569,27.345.223,37.8,5.89,12.858,6.961,24.648,16.241,35.787,25.633,11.53,9.727,22.1,20.447,34.318,29.336,6.884,5,13.83,9.93,19.973,15.87a96.723,96.723,0,0,1,17.2,22.558c3.557,6.31,6.332,13.795,11.566,18.952,4.654,4.57,11.02,5.583,17.191,6.611,7.4,1.209,14.94,2.683,20.922,7.54,5.143,4.158,8.26,10,10.86,15.982Z" fill="#df9f52"/>
    <path id="Path_294" data-name="Path 294" d="M1702.6,2412.345H1539.375c1.1-1.4,2.194-2.795,3.3-4.221,7.966-10.266,15.912-20.818,22.006-32.348a109.4,109.4,0,0,0,9.189-24.389c2.222-8.875,3.389-17.98,5.758-26.82,2.069-7.673,5.4-14.759,11.007-20.483,5.255-5.38,11.761-9.259,17.694-13.836a63.594,63.594,0,0,0,13.459-14.123c3.11-4.459,6.045-9.378,10.88-12.152,5.878-3.348,12.873-3.208,19.714-1.531-2.313,4.6-6.282,8.749-6.6,14.465-.272,4.732,2.446,7.757,5.989,10.455,2.6,1.992,6.6,4.144,7.519,7.554.867,3.278-1.53,7.114-2.159,10.28a58.924,58.924,0,0,0-.419,15.765c.768,9.965,2.935,19.42,11.146,25.7,6.415,4.906,15.3,8.2,19.944,15.088,4.249,6.275.817,14.759.447,21.621-.419,7.945,2.194,16.415,7.582,22.334C1697.971,2408.033,1700.361,2410.109,1702.6,2412.345Z" fill="#cd8f3e"/>
    <path id="Path_295" data-name="Path 295" d="M1254.706,2412.345l.342-.538c12.306-19.889,22.292-40.93,33.166-61.6a234.39,234.39,0,0,1,38.057-52.823c16.408-17.352,31.321-35.192,44.067-55.458,11.342-18.009,21.719-39.176,40.65-50.434,18.247-10.866,41.776-11.914,62.384-9.937,22.285,2.132,42.523,10.056,59.909,24.235,17.694,14.438,17.617,26.359,31.817,44.165,24.871-12.914,38.945,39.071,50.133,56.15,12.907,19.714,27.443,38.351,39.811,58.414,9.393,15.234,16,31.174,21.217,47.827Z" fill="#f2b86d"/>
    <path id="Path_296" data-name="Path 296" d="M1490.583,2276.754c-10.531,6.1-21.768,11.81-30.384,20.587a40.214,40.214,0,0,0-11.475,32.006c1.2,15.842,8.589,30.95,16.234,44.591,7.4,13.221,15.975,25.7,24.179,38.407h-60.5c-.048-6.4.154-12.823.14-19.211-.084-24.633-3.27-50.657,2.4-74.885,4.843-20.691,18.652-34.451,36.632-44.71,13.774-7.861,28.3-14.081,40.727-24.109a194.19,194.19,0,0,1,26.841-18.246c-4.675,8.693-9.678,17.2-16.429,24.48C1510.828,2264.385,1500.807,2270.807,1490.583,2276.754Z" fill="#e09d53"/>
    <path id="Path_297" data-name="Path 297" d="M1601.576,2412.345c-.573-8.707-3.578-17.624-6.729-25-5.36-12.592-9.5-25.842-15.947-37.917-3.739-7.024-7.079-13.977-8.945-21.755-2-8.274-2.914-16.771-5.64-24.884-4.5-13.362-11.921-27.541-21.334-38.135,12.522,11.405,22.956,24.871,32.236,38.966,5.059,7.673,9.972,15.444,14.633,23.383,4.389,7.477,9.182,14.856,12.53,22.872,2.956,7.072,5.255,14.291,9.2,20.929a186.227,186.227,0,0,0,13.585,19.847,71.949,71.949,0,0,1,10.182,17.722c.531,1.334,1.069,2.655,1.607,3.976Z" fill="#e09d53"/>
    <path id="Path_298" data-name="Path 298" d="M1461.68,2257.648c-13.508,8.141-28.308,13.893-43.983,15.6-5.052.545-10.14.859-15.178,1.509-2.6.343-6.241.566-8.267,2.488-1.74,1.642-1.628,4.144-1.824,6.366a21.458,21.458,0,0,1-2.25,8.47c-3.942,7.33-12.055,11.055-17.247,17.316-5.828,7.079-5.73,15.738-2.579,23.991,2.74,7.121,8.638,14.78,4.906,22.62-4.794,10.084-17.38,15.458-26.143,21.405-2.746,1.88-7.477,4.7-7.358,8.589.105,3.389,3.808,6.093,6.191,7.987,7.946,6.289,16.43,11.733,24.116,18.351H1322.6c.371-5.563-.237-11.461-.237-16.876,0-5.941.112-11.894.028-17.841-.035-3.215,1.362-5.165,2.515-8.155.979-2.537,2.824-6.506,2.586-9.232-2.1.825-3.906,1.258-5.36,3.383a11.167,11.167,0,0,1-2.418,2.921c-.929.761-1.81,1.341-2.683,2.068a16.558,16.558,0,0,1,2.019-6.9,47.434,47.434,0,0,0,2.195-4.214c.866-2.278,1.453-4.675,2.264-6.974,1.125-3.229,2.18-6.5,3.319-9.728,1.391-3.955,3.145-7.6,4.6-11.509,2.083-5.493,5.248-10.727,6.569-16.59.685-3.117,1.789-5.961,2.6-9.022.468-1.775.5-4.444,2.1-5.6-3.047,3.473-6.806,6.086-9.853,9.615s-6.31,7.093-8.337,11.321c-2.4,5-5.171,9.826-7.729,14.731-3.026,5.765-7.449,10.629-10.685,16.352-2.571,4.536-4.71,9.057-7.631,13.4-1.607,2.39-3.221,4.521-4.095,7.267-.531,1.733-1.453,3.585-3.655,3.564-1.027-.007-1.53-.915-2.278-1.006-1.474-.14-2.1.846-2.83,1.887-1.433,2.012-2.1,4.514-3.522,6.394a19.679,19.679,0,0,0-2.781,4.486c-1.391,3.166-3.145,6.129-4.759,9.2-1.4,2.662-3.082,4.919-4.438,7.659-1.509,3.109-3.088,6.254-4.535,9.4h-10.859l.342-.538c12.306-19.889,22.292-40.93,33.166-61.6a234.39,234.39,0,0,1,38.057-52.823c16.408-17.352,31.321-35.192,44.067-55.458,11.342-18.009,21.719-39.176,40.65-50.434a69.43,69.43,0,0,1,16.87-7.1,42.75,42.75,0,0,1-8.833,12.642c-3.389,3.291-11.964,9.588-6.7,14.759,4.074,4.011,13.005,3.319,15.29,9.134,1.475,3.78-1.859,9.615,1.622,12.585,1.984,1.7,5.359,1.412,7.777,1.4a71.083,71.083,0,0,1,10.28.321,32.1,32.1,0,0,1,18.588,9.644C1470.905,2250.346,1467.012,2254.434,1461.68,2257.648Z" fill="#e09d53"/>
    <path id="Path_299" data-name="Path 299" d="M1338,2312.694c-1.321,5.863-4.486,11.1-6.569,16.59-1.453,3.913-3.207,7.554-4.6,11.509-1.139,3.229-2.194,6.5-3.319,9.728-.811,2.3-1.4,4.7-2.264,6.974a47.434,47.434,0,0,1-2.195,4.214,16.558,16.558,0,0,0-2.019,6.9c.873-.727,1.754-1.307,2.683-2.068a11.167,11.167,0,0,0,2.418-2.921c1.454-2.125,3.264-2.558,5.36-3.383.238,2.726-1.607,6.7-2.586,9.232-1.153,2.99-2.55,4.94-2.515,8.155.084,5.947-.028,11.9-.028,17.841,0,5.415.608,11.313.237,16.876h-57.037c1.447-3.145,3.026-6.29,4.535-9.4,1.356-2.74,3.033-5,4.438-7.659,1.614-3.068,3.368-6.031,4.759-9.2a19.679,19.679,0,0,1,2.781-4.486c1.419-1.88,2.089-4.382,3.522-6.394.734-1.041,1.356-2.027,2.83-1.887.748.091,1.251,1,2.278,1.006,2.2.021,3.124-1.831,3.655-3.564.874-2.746,2.488-4.877,4.095-7.267,2.921-4.347,5.06-8.868,7.631-13.4,3.236-5.723,7.659-10.587,10.685-16.352,2.558-4.905,5.332-9.727,7.729-14.731,2.027-4.228,5.283-7.792,8.337-11.321s6.806-6.142,9.853-9.615c-1.6,1.153-1.628,3.822-2.1,5.6C1339.786,2306.733,1338.682,2309.577,1338,2312.694Z" fill="#b57932"/>
    <path id="Path_300" data-name="Path 300" d="M2027.9,2477.293c15.255-8.421,93.488-12.362,93.914-28.575.384-14.319-83.781-13.312-100.161-19.189-29.735-11.775,10.824-11.349-2.369-23.886-5.912-3.885-20.455-4.116-49.434-5.3-315.278-12.844-643.231,1.992-763.672,5.752-97.708,3.053-124.83,13.368-92.293,32.788,17.736,10.7,91.475,6.708,77.254,33.277-11.027,18.952-72.607,18.295-96.9,27.59-56.15,21.327,14.116,34.493,45.569,37.687,89.966,7.645,184.634,6.743,274.809,5.807,31.58-.615,102,6.813,129.386-6.255,30.454-14.94-75.9-27.526.95-35.29,31.643-3.473,246.912-19.287,228.03,12.942-6.254,9.476-53.005,15.647-33.78,27.3,10.363,5.842,52.544,1.516,64.563,1.656,45.06.475,90.154,0,133.767-1.439,36.094-1.524,108.219-1.712,134.264-20.511C2108.5,2497.23,1986.686,2501.66,2027.9,2477.293Z" fill="#a77135"/>
    <path id="Path_301" data-name="Path 301" d="M1821.011,2431.709c0,13.725-100.084,24.857-223.537,24.857s-223.544-11.132-223.544-24.857,100.084-24.836,223.544-24.836S1821.011,2418,1821.011,2431.709Z" fill="#8b5f2d"/>
    <path id="Path_302" data-name="Path 302" d="M1597.474,1777.576v344.075h117.673V1802.5Z" fill="#fff"/>
    <path id="Path_303" data-name="Path 303" d="M1479.815,1802.5v319.149h117.659V1777.576Z" fill="#6c9bc0"/>
    <path id="Path_304" data-name="Path 304" d="M1597.474,2087.634v344.075h117.673V2112.553Z" fill="#2f81c2"/>
    <path id="Path_305" data-name="Path 305" d="M1479.815,2112.553v319.156h117.659V2087.634Z" fill="#24618b"/>
    <path id="Path_306" data-name="Path 306" d="M1597.474,1714.313v75.661l117.673,12.53Z" fill="#c8dded"/>
    <path id="Path_307" data-name="Path 307" d="M1479.815,1802.5l117.659-12.53v-75.661Z" fill="#87abcc"/>
    <path id="Path_308" data-name="Path 308" d="M1752.017,2475.441c0,8.12,57.1,14.7,127.534,14.7s127.54-6.576,127.54-14.7-57.1-14.7-127.54-14.7S1752.017,2467.307,1752.017,2475.441Z" fill="#8b5f2d"/>
    <path id="Path_309" data-name="Path 309" d="M1900.69,2436.349l3.466,15.381s56.548-5.017,59.357-5.437c1.475-.2,8.058,2.614,9.476,3.061a54.646,54.646,0,0,1,5.612,2.278c1.963.86,3.92,1.726,5.968,2.39,1.278.412,2.886.937,4.227.559,2.439-.678.727-4.458.14-5.891a42.909,42.909,0,0,0-1.894-3.962,12.731,12.731,0,0,0-2.075-2.935c-1.705-1.663-4.088-2.013-6.345-2.446a18.281,18.281,0,0,1-7.771-3.159c-1.174-.894-2.243-1.907-3.382-2.872a10.544,10.544,0,0,0-3.32-2.082c-2.655-.839-4.8,1.132-6.331,3.061C1956.057,2436.51,1900.69,2436.349,1900.69,2436.349Z" fill="#e78d6a"/>
    <path id="Path_310" data-name="Path 310" d="M1906.693,2447.432l3.473,15.388s56.562-5.024,59.357-5.437c1.468-.209,8.057,2.607,9.462,3.047a56.521,56.521,0,0,1,5.626,2.285,62.129,62.129,0,0,0,5.967,2.39c1.286.413,2.887.944,4.228.559,2.439-.671.734-4.451.154-5.891a39.526,39.526,0,0,0-1.908-3.955,13.123,13.123,0,0,0-2.068-2.935c-1.7-1.677-4.1-2.026-6.352-2.46a17.97,17.97,0,0,1-7.771-3.151c-1.174-.888-2.237-1.915-3.376-2.845a9.985,9.985,0,0,0-3.326-2.1c-2.648-.846-4.808,1.132-6.338,3.061C1962.074,2447.6,1906.693,2447.432,1906.693,2447.432Z" fill="#e8936b"/>
    <path id="Path_311" data-name="Path 311" d="M1791.794,2239.325a3.309,3.309,0,0,1,2.152-2.278,3.846,3.846,0,0,1,2.914,1.013,21.443,21.443,0,0,1,2.886,2.81,15.552,15.552,0,0,1,3.166,4.192c1.272-1.767,2.816-.705,3.389-.335l2.362,2.516c1.53,2.411,1.586,5.269,2.718,7.848,2.712,6.156,7.722,11.1,11.88,16.3,1.831,2.215,3.578,4.5,5.353,6.75s3.494,4.557,5.22,6.842,3.431,4.584,5.116,6.911q1.131,1.583,2.257,3.159v32.187l-4.095-3.263a35.165,35.165,0,0,1-3.215-3.047q-1.5-1.572-2.865-3.25a73.008,73.008,0,0,1-5-6.981c-1.523-2.432-2.983-4.891-4.458-7.351s-2.914-4.934-4.326-7.422-2.872-4.968-4.241-7.5c-3.781-6.932-7.044-14.158-11.042-20.978-1.062-1.824-2.257-3.564-3.256-5.409-1.475-2.677-2.935-3.571-4.354-6.262a26.861,26.861,0,0,1-3.207-11.348A12.887,12.887,0,0,1,1791.794,2239.325Z" fill="#e78d6a"/>
    <path id="Path_312" data-name="Path 312" d="M1864.135,2235.049c10.776-3.117,17.086.1,25.017,9.881,11.573,14.284,10.867,24.067,13.788,47.785.552,4.423,1.027,8.84,1.474,13.27.853,8.372,1.768,16.772,2.341,25.157.189,2.8.1,14.354.909,17.345,1.23,4.521,2.5,9.022,4.053,13.452a224.8,224.8,0,0,0,9.679,22.481c3.361,7.044,7.323,13.641,11.286,20.343,3.193,5.415,5.932,11.048,8.93,16.576a45.026,45.026,0,0,1,4.648,13.829c2.117,11.705,1.8,26.01-4.424,36.429-6.66,11.181-19.189,14.27-31.44,14.64a351.015,351.015,0,0,1-42.075-1.76c-7.974-.706-15.926-1.489-23.893-2.279-8.036-.782-16.066-1.537-24.116-2.124-18.351-1.349-40.741-2.753-52.474-19.175-5.486-7.681-5.513-17.611-3.843-26.52,3.494-18.54,13.333-34.711,31.272-41.846a134.124,134.124,0,0,1,17.393-5.248c7.526-1.824,15.255-5.017,23.131-4.465,1.251.091,5.178.168,5.416,1.8-3.264-22.013-9.148-63.334-6.737-85.472,2.062-18.8,4.011-42.376,17.876-56.772A26.521,26.521,0,0,1,1864.135,2235.049Z" fill="#f1f1f2"/>
    <path id="Path_313" data-name="Path 313" d="M1888.545,2289.563l-.189.762c-4.053,15.423-21.65,21.572-35.437,14.836a26.7,26.7,0,0,1-10.021-8.568c-1.859-2.627-7-10.119-6.541-13.368,2.089-14.892,5.849-30.329,15.989-40.853a26.521,26.521,0,0,1,11.789-7.323c6.6-1.9,15.318-1.957,17.6,5.688,1.118,3.718,2.788,7.191,3.837,10.915C1889.069,2264.126,1891.682,2276.726,1888.545,2289.563Z" fill="#e8936b"/>
    <path id="Path_314" data-name="Path 314" d="M1771.318,2244.853a3.342,3.342,0,0,1,2.146-2.278,3.891,3.891,0,0,1,2.914.992,21.247,21.247,0,0,1,2.886,2.816,15.64,15.64,0,0,1,3.179,4.214c1.272-1.782,2.817-.713,3.383-.356l2.369,2.543c1.53,2.376,1.593,5.255,2.711,7.82,2.719,6.171,7.722,11.111,11.894,16.3,1.831,2.209,3.564,4.5,5.346,6.758s3.473,4.549,5.206,6.841,3.452,4.585,5.122,6.912c1.671,2.3,3.334,4.591,4.948,6.925l1.237-2.572,2.187-4.353c.72-1.468,1.509-2.872,2.243-4.312,1.524-2.879,3.082-5.681,4.647-8.518,1.545-2.838,3.11-5.64,4.71-8.435.8-1.384,1.559-2.8,2.369-4.165l2.4-4.137,4.773-8.12,2.132-3.634.775-1.244,1.091-2.117.3-.553a15.3,15.3,0,0,1,27.463,13.474l-1.034,2.243c-.51,1.006-1.055,1.991-1.593,2.984l-.8,1.439-.678,1.1-1.341,2.223c-.9,1.481-1.81,2.844-2.726,4.248s-1.824,2.775-2.767,4.137c-1.873,2.726-3.767,5.4-5.7,8.051s-3.872,5.283-5.891,7.861c-1.978,2.593-3.97,5.193-6.024,7.736-1.034,1.265-2.048,2.551-3.124,3.795l-3.173,3.739-3.263,3.682c-1.083,1.251-2.229,2.425-3.34,3.641s-2.3,2.369-3.446,3.564-4.227,5.059-4.779,5.751a6.57,6.57,0,0,1-9.225,1.014l-4.193-3.383a33.022,33.022,0,0,1-3.221-3.019q-1.509-1.582-2.858-3.256a75.815,75.815,0,0,1-5-7c-1.509-2.425-2.984-4.878-4.451-7.345s-2.914-4.926-4.333-7.421-2.872-4.969-4.228-7.5c-3.787-6.926-7.065-14.165-11.048-20.979-1.069-1.824-2.257-3.578-3.27-5.409-1.461-2.669-2.935-3.564-4.333-6.254a26.968,26.968,0,0,1-3.222-11.349A12.9,12.9,0,0,1,1771.318,2244.853Z" fill="#e8936b"/>
    <path id="Path_315" data-name="Path 315" d="M1853.492,2214.364l-1.572,26.268c0,5.66,1.013,8.91,8.861,8.91s19.566-3.25,19.566-8.91l-1.586-26.268Z" fill="#e8936b"/>
    <path id="Path_316" data-name="Path 316" d="M1878.8,2215.035l-.035-.671h-25.269l-.839,13.969A38.739,38.739,0,0,0,1878.8,2215.035Z" fill="#1f0000"/>
    <path id="Path_317" data-name="Path 317" d="M1851.92,2224.392c-3.578-.28-5.605-2.782-6.569-5.542-1.181-3.452-.979-7.589-.573-11.824-2.237-.657-6.632-3.473-4.074-5.584,1.46-1.209,2.5-3.109,4.332-5.464,3.7-4.878,2.111-11.321,3.3-16.842,2.9-13.955,21.181-12.893,30.517-6.981,5.919,3.816,7.372,10.531,6.583,17.1a146.312,146.312,0,0,0-.923,17.114c-.133,6.045-7.764,11.048-12.893,13.278C1868.733,2220.974,1858.621,2224.923,1851.92,2224.392Z" fill="#e8936b"/>
    <path id="Path_318" data-name="Path 318" d="M1890.99,2171.918a27.349,27.349,0,0,0-12.306-9.148,24.981,24.981,0,0,0-5.416-1.251,82.839,82.839,0,0,1-8.476,8.051c-1.733,1.509-3.564,2.914-5.437,4.255l.1.091a33.554,33.554,0,0,1,3.389,6.08,21.384,21.384,0,0,0,4.011,5.919,15.159,15.159,0,0,0,3.4,2.418c1.713.915,1.5.782,1.8,2.557.608,3.418,4.047,5.416,4.78,8.722l.322,2.452.1,1.776-.014.81-.042.713c1.083,2.97,2.278,5.919,3.214,8.917a30.259,30.259,0,0,0,9.595-8.491,34.278,34.278,0,0,0,5.7-16.317A25.718,25.718,0,0,0,1890.99,2171.918Z" fill="#1f0000"/>
    <path id="Path_319" data-name="Path 319" d="M1874.792,2201.415a9.292,9.292,0,0,1-.245-5.409,4.523,4.523,0,0,1,3.851-3.229,4.844,4.844,0,0,1,4.584,2.551,5.41,5.41,0,0,1,.279,3.054,13.058,13.058,0,0,1-1.348,3.794,6.276,6.276,0,0,1-2.8,2.935,5.954,5.954,0,0,1-3.528-.007Z" fill="#e8936b"/>
    <path id="Path_320" data-name="Path 320" d="M1845.12,2173.77c1.174,4.388,3.445,10.125,17.666,11.558l.734-4.438a17.739,17.739,0,0,0,7.1,3.222c4.256.894,8.232,4,8.379,7.638l6.631-24.515s-11.39-14.507-34.256-8.777C1846.86,2159.6,1843.429,2167.487,1845.12,2173.77Z" fill="#1f0000"/>
    <path id="Path_321" data-name="Path 321" d="M1893.639,2350.989a22.958,22.958,0,0,1-10.2.838,29.1,29.1,0,0,1-10.07-3.528,34.563,34.563,0,0,1-4.836-3.648,30.947,30.947,0,0,1-4.269-4.55,45.466,45.466,0,0,1-6.094-10.51c-1.719-3.48-2.439-7.037-3.361-9.951-.825-2.949-1-5.542-1.356-7.275-.28-1.754-.447-2.753-.447-2.753s1.244,3.9,3.193,9.595a94.38,94.38,0,0,0,4.011,9.434,44.189,44.189,0,0,0,6.087,9.853,31.194,31.194,0,0,0,17.408,11.9A26.254,26.254,0,0,0,1893.639,2350.989Z" fill="#d3d4d6"/>
    <path id="Path_322" data-name="Path 322" d="M1874.219,2374.05a17.666,17.666,0,0,1-2.726,1.027,17.146,17.146,0,0,1-12.8-1.132,17.629,17.629,0,0,1-4.7-3.669c-2.942-2.984-4.8-7.016-6.324-11.055-.524-2.083-1.055-4.158-1.566-6.213-.293-2.075-.594-4.123-.873-6.1a42.743,42.743,0,0,1-.315-5.723c-.028-1.81-.055-3.529-.09-5.116.419-6.338.838-10.51.838-10.51s.336,4.221.622,10.475c.329,3.117.664,6.758,1.188,10.594.329,1.915.664,3.886,1.006,5.891.545,1.943,1.1,3.914,1.657,5.884,1.327,3.83,2.956,7.624,5.513,10.35a20.311,20.311,0,0,0,3.97,3.557,17.03,17.03,0,0,0,4.423,1.873,20.889,20.889,0,0,0,7.358.468A17.249,17.249,0,0,0,1874.219,2374.05Z" fill="#d3d4d6"/>
    <path id="Path_323" data-name="Path 323" d="M1474.322,2499.249c0,8.114-57.1,14.7-127.541,14.7s-127.533-6.582-127.533-14.7c0-8.134,57.1-14.717,127.533-14.717S1474.322,2491.115,1474.322,2499.249Z" fill="#8b5f2d"/>
    <path id="Path_324" data-name="Path 324" d="M1325.642,2460.151l-3.466,15.381s-56.534-5.018-59.357-5.43c-1.475-.224-8.058,2.606-9.455,3.04a56.921,56.921,0,0,0-5.626,2.278,55.2,55.2,0,0,1-5.975,2.39c-1.264.412-2.872.957-4.227.566-2.439-.678-.734-4.445-.133-5.884a38.053,38.053,0,0,1,1.9-3.969,12.359,12.359,0,0,1,2.068-2.921c1.7-1.685,4.088-2.034,6.338-2.453a18.2,18.2,0,0,0,7.771-3.166c1.174-.88,2.25-1.908,3.368-2.851a10.1,10.1,0,0,1,3.334-2.09c2.669-.831,4.808,1.118,6.338,3.061C1270.268,2460.3,1325.642,2460.151,1325.642,2460.151Z" fill="#e78d6a"/>
    <path id="Path_325" data-name="Path 325" d="M1319.632,2471.234l-3.459,15.381s-56.548-5.011-59.357-5.43c-1.475-.217-8.065,2.6-9.469,3.04-1.929.615-3.781,1.488-5.618,2.278-1.971.867-3.928,1.747-5.968,2.411-1.293.4-2.894.922-4.249.552-2.418-.671-.706-4.444-.126-5.884a38.973,38.973,0,0,1,1.9-3.969,13.231,13.231,0,0,1,2.054-2.928c1.719-1.684,4.109-2.027,6.366-2.46a18.118,18.118,0,0,0,7.764-3.152c1.181-.887,2.251-1.907,3.369-2.858a10.3,10.3,0,0,1,3.34-2.089c2.656-.853,4.8,1.139,6.331,3.06C1264.258,2471.388,1319.632,2471.234,1319.632,2471.234Z" fill="#e8936b"/>
    <path id="Path_326" data-name="Path 326" d="M1434.538,2263.12a3.252,3.252,0,0,0-2.145-2.264,3.808,3.808,0,0,0-2.914.992,20.383,20.383,0,0,0-2.886,2.816,15.506,15.506,0,0,0-3.18,4.193c-1.272-1.761-2.8-.692-3.375-.335l-2.362,2.529c-1.53,2.39-1.586,5.249-2.711,7.834-2.719,6.164-7.722,11.1-11.887,16.29-1.852,2.222-3.578,4.5-5.36,6.764s-3.48,4.556-5.22,6.841-3.445,4.585-5.116,6.912c-.754,1.055-1.495,2.11-2.25,3.151v32.2l4.088-3.285a38.084,38.084,0,0,0,3.236-3.025q1.477-1.594,2.851-3.257a73.371,73.371,0,0,0,4.99-6.988c1.523-2.432,2.983-4.878,4.451-7.345,1.488-2.467,2.921-4.933,4.34-7.435,1.418-2.481,2.865-4.955,4.234-7.484,3.795-6.947,7.065-14.165,11.049-20.986,1.055-1.824,2.243-3.571,3.27-5.409,1.454-2.669,2.921-3.564,4.333-6.247a27.2,27.2,0,0,0,3.221-11.37A13.1,13.1,0,0,0,1434.538,2263.12Z" fill="#e78d6a"/>
    <path id="Path_327" data-name="Path 327" d="M1362.2,2258.85c-10.776-3.11-17.086.1-25.024,9.888-11.566,14.277-10.867,24.047-13.788,47.771-.552,4.417-1.027,8.854-1.481,13.271-.832,8.372-1.769,16.771-2.328,25.171-.188,2.8-.09,14.347-.908,17.331-1.23,4.514-2.5,9.021-4.046,13.459a231.453,231.453,0,0,1-9.686,22.481c-3.368,7.037-7.33,13.641-11.286,20.349-3.193,5.409-5.94,11.035-8.924,16.555a44.418,44.418,0,0,0-4.654,13.844c-2.117,11.691-1.81,26,4.417,36.429,6.667,11.181,19.189,14.263,31.447,14.633a349.616,349.616,0,0,0,42.075-1.768c7.974-.706,15.933-1.481,23.886-2.257,8.029-.783,16.072-1.551,24.123-2.138,18.358-1.349,40.741-2.754,52.467-19.176,5.492-7.673,5.514-17.61,3.85-26.527-3.508-18.539-13.333-34.7-31.286-41.824a133.07,133.07,0,0,0-17.386-5.248c-7.533-1.838-15.241-5.039-23.124-4.48-1.258.091-5.171.168-5.416,1.8,3.271-22,9.148-63.326,6.723-85.472-2.048-18.805-4-42.39-17.869-56.785A26.53,26.53,0,0,0,1362.2,2258.85Z" fill="#f1f1f2"/>
    <path id="Path_328" data-name="Path 328" d="M1337.788,2313.365l.2.754c4.032,15.437,21.643,21.58,35.423,14.836a26.66,26.66,0,0,0,10.035-8.567c1.859-2.614,7-10.1,6.548-13.361-2.089-14.892-5.863-30.329-16-40.867a26.53,26.53,0,0,0-11.782-7.31c-6.583-1.908-15.311-1.971-17.6,5.7-1.118,3.7-2.781,7.176-3.837,10.9C1337.263,2287.921,1334.65,2300.535,1337.788,2313.365Z" fill="#e8936b"/>
    <path id="Path_329" data-name="Path 329" d="M1455.014,2268.654a3.266,3.266,0,0,0-2.139-2.278,3.841,3.841,0,0,0-2.928,1,21.115,21.115,0,0,0-2.879,2.816,15.271,15.271,0,0,0-3.172,4.2c-1.279-1.789-2.824-.706-3.39-.35l-2.362,2.537c-1.53,2.39-1.586,5.248-2.718,7.827-2.7,6.156-7.722,11.1-11.887,16.31-1.838,2.2-3.571,4.486-5.353,6.751-1.789,2.236-3.487,4.556-5.213,6.848s-3.445,4.577-5.115,6.9c-1.663,2.292-3.327,4.6-4.941,6.912l-1.237-2.558-2.208-4.354c-.72-1.467-1.482-2.886-2.229-4.325-1.517-2.859-3.082-5.675-4.647-8.519-1.545-2.837-3.11-5.625-4.7-8.421-.818-1.4-1.573-2.8-2.383-4.171l-2.4-4.137-4.752-8.128-2.139-3.613-.775-1.25-1.111-2.125-.28-.545a15.306,15.306,0,0,0-27.47,13.48l1.027,2.222c.5,1.028,1.062,2.006,1.607,3l.79,1.426.685,1.111,1.334,2.222c.888,1.468,1.817,2.823,2.726,4.242s1.831,2.774,2.774,4.137c1.866,2.732,3.753,5.388,5.716,8.043,1.908,2.656,3.851,5.283,5.863,7.862,1.992,2.614,3.984,5.192,6.038,7.743,1.034,1.258,2.048,2.551,3.11,3.788l3.179,3.752,3.264,3.683c1.083,1.237,2.222,2.418,3.34,3.641,1.118,1.2,2.3,2.348,3.445,3.543,1.167,1.181,4.228,5.08,4.787,5.772a6.564,6.564,0,0,0,9.225,1.006l4.186-3.375a37.058,37.058,0,0,0,3.228-3.026c1.006-1.055,1.95-2.145,2.858-3.27a71.164,71.164,0,0,0,5-6.981c1.516-2.418,2.984-4.885,4.451-7.352s2.914-4.934,4.34-7.422c1.411-2.487,2.865-4.961,4.228-7.484,3.794-6.946,7.058-14.165,11.048-20.992,1.062-1.81,2.25-3.564,3.27-5.4,1.461-2.669,2.929-3.578,4.326-6.254a26.6,26.6,0,0,0,3.222-11.356A12.7,12.7,0,0,0,1455.014,2268.654Z" fill="#e8936b"/>
    <path id="Path_330" data-name="Path 330" d="M1372.826,2238.172l1.6,26.262c0,5.66-1.02,8.9-8.868,8.9s-19.559-3.236-19.559-8.9l1.586-26.262Z" fill="#e8936b"/>
    <path id="Path_331" data-name="Path 331" d="M1347.543,2238.822l.042-.65h25.241l.853,13.963A38.78,38.78,0,0,1,1347.543,2238.822Z" fill="#1f0000"/>
    <path id="Path_332" data-name="Path 332" d="M1374.426,2248.186c3.564-.272,5.6-2.774,6.555-5.534,1.174-3.453.986-7.6.566-11.817,2.243-.678,6.639-3.494,4.088-5.6-1.46-1.2-2.5-3.089-4.346-5.451-3.683-4.877-2.111-11.327-3.292-16.841-2.893-13.948-21.174-12.893-30.517-6.988-5.926,3.829-7.365,10.531-6.576,17.107a144.57,144.57,0,0,1,.916,17.1c.132,6.052,7.764,11.055,12.886,13.3C1357.613,2244.762,1367.711,2248.717,1374.426,2248.186Z" fill="#e8936b"/>
    <path id="Path_333" data-name="Path 333" d="M1335.335,2195.726a27.236,27.236,0,0,1,12.306-9.154,24.1,24.1,0,0,1,5.416-1.244,84.759,84.759,0,0,0,8.483,8.036c1.747,1.517,3.564,2.914,5.423,4.249l-.07.1a33.043,33.043,0,0,0-3.389,6.086,21.7,21.7,0,0,1-4.025,5.912,14.889,14.889,0,0,1-3.4,2.4c-1.712.923-1.488.8-1.795,2.572-.6,3.424-4.04,5.416-4.773,8.714l-.322,2.46-.1,1.782.007.8.049.705c-1.1,2.971-2.292,5.912-3.228,8.917a30.536,30.536,0,0,1-9.6-8.483,34.579,34.579,0,0,1-5.695-16.311A25.7,25.7,0,0,1,1335.335,2195.726Z" fill="#e6e7e8"/>
    <path id="Path_334" data-name="Path 334" d="M1351.54,2225.209a9.191,9.191,0,0,0,.245-5.4,4.526,4.526,0,0,0-3.837-3.242,4.8,4.8,0,0,0-4.584,2.565,5.24,5.24,0,0,0-.279,3.039,12.208,12.208,0,0,0,1.341,3.8,6.162,6.162,0,0,0,2.8,2.928,5.869,5.869,0,0,0,3.536-.007Z" fill="#e8936b"/>
    <path id="Path_335" data-name="Path 335" d="M1381.233,2197.564c-1.2,4.389-3.466,10.14-17.673,11.552l-.741-4.424a17.977,17.977,0,0,1-7.093,3.229c-4.263.887-8.246,4-8.386,7.617l-6.638-24.508s11.4-14.514,34.249-8.777C1379.486,2183.385,1382.9,2191.282,1381.233,2197.564Z" fill="#e6e7e8"/>
    <path id="Path_336" data-name="Path 336" d="M1332.707,2374.777a26.278,26.278,0,0,0,9.93-.594,31.116,31.116,0,0,0,17.4-11.894,44.679,44.679,0,0,0,6.079-9.854,92.563,92.563,0,0,0,4.005-9.427c1.956-5.709,3.2-9.6,3.2-9.6s-.16,1-.447,2.753c-.356,1.74-.531,4.319-1.356,7.275-.922,2.914-1.642,6.471-3.361,9.951a45.78,45.78,0,0,1-6.087,10.5,30.209,30.209,0,0,1-4.262,4.549,34.212,34.212,0,0,1-4.829,3.648,29,29,0,0,1-10.084,3.529A22.787,22.787,0,0,1,1332.707,2374.777Z" fill="#d3d4d6"/>
    <path id="Path_337" data-name="Path 337" d="M1352.113,2397.837a16.243,16.243,0,0,0,2.809.6,20.855,20.855,0,0,0,7.359-.468,17.028,17.028,0,0,0,4.423-1.866,20.493,20.493,0,0,0,3.97-3.557c2.557-2.718,4.193-6.527,5.513-10.356.552-1.971,1.1-3.941,1.657-5.884.342-2.006.677-3.976,1-5.891.531-3.837.86-7.477,1.181-10.594.293-6.254.629-10.475.629-10.475s.426,4.172.838,10.51c-.028,1.586-.062,3.305-.09,5.115a40.537,40.537,0,0,1-.322,5.723c-.279,1.985-.566,4.026-.859,6.1-.517,2.055-1.042,4.137-1.566,6.22-1.523,4.032-3.382,8.064-6.324,11.048a17.633,17.633,0,0,1-4.7,3.683,17.184,17.184,0,0,1-12.809,1.118A16.822,16.822,0,0,1,1352.113,2397.837Z" fill="#d3d4d6"/>
  </g>
</svg>
