<svg xmlns="http://www.w3.org/2000/svg" width="263.069" height="263.069" viewBox="0 0 263.069 263.069">
<style>
g {
fill: #4cd964;
}
</style>
  <g id="Icon_ionic-ios-checkmark-circle-outline" data-name="Icon ionic-ios-checkmark-circle-outline" transform="translate(-3.375 -3.375)">
    <path id="Path_6" data-name="Path 6" d="M145.89,24.411,134.76,12.965a2.393,2.393,0,0,0-1.771-.759h0a2.3,2.3,0,0,0-1.771.759L54.068,90.684,25.991,62.607a2.445,2.445,0,0,0-3.541,0L11.193,73.863a2.52,2.52,0,0,0,0,3.6l35.413,35.413c2.277,2.277,5.059,3.6,7.4,3.6,3.352,0,6.261-2.466,7.336-3.478H61.4l84.549-84.991A2.7,2.7,0,0,0,145.89,24.411Z" transform="translate(56.431 70.595)"/>
    <path id="Path_7" data-name="Path 7" d="M134.909,21.082a113.846,113.846,0,0,1,80.5,194.329,113.846,113.846,0,0,1-161-161,113.075,113.075,0,0,1,80.5-33.326m0-17.707A131.534,131.534,0,1,0,266.444,134.909,131.514,131.514,0,0,0,134.909,3.375Z"/>
  </g>
</svg>
