<svg xmlns="http://www.w3.org/2000/svg" width="23.323" height="23.323" viewBox="0 0 23.323 23.323">
  <path id="Icon_awesome-facebook-square" data-name="Icon awesome-facebook-square" d="M20.825,2.25H2.5A2.5,2.5,0,0,0,0,4.749V23.075a2.5,2.5,0,0,0,2.5,2.5H9.644V17.644H6.364V13.912h3.28V11.067c0-3.236,1.926-5.023,4.877-5.023a19.87,19.87,0,0,1,2.89.252V9.472H15.783a1.866,1.866,0,0,0-2.1,2.016v2.423H17.26l-.573,3.732H13.679v7.929h7.145a2.5,2.5,0,0,0,2.5-2.5V4.749a2.5,2.5,0,0,0-2.5-2.5Z" transform="translate(0 -2.25)" fill="#fff"/>
</svg>
