<svg xmlns="http://www.w3.org/2000/svg" width="23.336" height="23.331" viewBox="0 0 23.336 23.331">
  <path id="Icon_awesome-instagram" data-name="Icon awesome-instagram" d="M11.666,7.921A5.982,5.982,0,1,0,17.647,13.9,5.972,5.972,0,0,0,11.666,7.921Zm0,9.871A3.889,3.889,0,1,1,15.555,13.9,3.9,3.9,0,0,1,11.666,17.792ZM19.287,7.677a1.4,1.4,0,1,1-1.4-1.4A1.392,1.392,0,0,1,19.287,7.677Zm3.962,1.416A6.9,6.9,0,0,0,21.365,4.2,6.95,6.95,0,0,0,16.476,2.32c-1.926-.109-7.7-.109-9.626,0A6.94,6.94,0,0,0,1.961,4.2,6.927,6.927,0,0,0,.077,9.088c-.109,1.926-.109,7.7,0,9.626A6.9,6.9,0,0,0,1.961,23.6,6.959,6.959,0,0,0,6.85,25.487c1.926.109,7.7.109,9.626,0A6.9,6.9,0,0,0,21.365,23.6a6.95,6.95,0,0,0,1.885-4.889c.109-1.926.109-7.695,0-9.621ZM20.761,20.781A3.937,3.937,0,0,1,18.543,23c-1.536.609-5.18.469-6.877.469S6.319,23.6,4.788,23A3.937,3.937,0,0,1,2.57,20.781C1.961,19.245,2.1,15.6,2.1,13.9s-.135-5.347.469-6.877A3.937,3.937,0,0,1,4.788,4.808c1.536-.609,5.18-.469,6.877-.469s5.347-.135,6.877.469a3.937,3.937,0,0,1,2.218,2.218c.609,1.536.469,5.18.469,6.877S21.37,19.25,20.761,20.781Z" transform="translate(0.005 -2.238)" fill="#fff"/>
</svg>
