<svg xmlns="http://www.w3.org/2000/svg" width="23.315" height="23.315" viewBox="0 0 23.315 23.315">
  <path id="Icon_awesome-linkedin" data-name="Icon awesome-linkedin" d="M21.649,2.25H1.66A1.673,1.673,0,0,0,0,3.931V23.884a1.673,1.673,0,0,0,1.66,1.681H21.649a1.677,1.677,0,0,0,1.665-1.681V3.931A1.677,1.677,0,0,0,21.649,2.25ZM7.046,22.234H3.591V11.107H7.052V22.234ZM5.319,9.588a2,2,0,1,1,2-2,2,2,0,0,1-2,2ZM20,22.234H16.544V16.822c0-1.291-.026-2.951-1.8-2.951-1.8,0-2.076,1.405-2.076,2.857v5.506H9.217V11.107h3.315v1.52h.047a3.64,3.64,0,0,1,3.273-1.8c3.5,0,4.148,2.305,4.148,5.3Z" transform="translate(0 -2.25)" fill="#fff"/>
</svg>
