<svg xmlns="http://www.w3.org/2000/svg" xmlns:xlink="http://www.w3.org/1999/xlink" viewBox="0 0 335.535 551.582">
  <defs>
    <clipPath id="clip-path">
      <path id="Path_946" data-name="Path 946" d="M-600.648,2037.053H-716.979A109.071,109.071,0,0,1-826.05,1927.982v-316.47a29.763,29.763,0,0,1,12.763-24.431l136.865-95.246a29.765,29.765,0,0,1,33.912-.064l138.078,95.317a29.765,29.765,0,0,1,12.856,24.5v316.4A109.072,109.072,0,0,1-600.648,2037.053Z" fill="none"/>
    </clipPath>
    <clipPath id="clip-path-2">
      <path id="Rectangle_12" data-name="Rectangle 12" d="M43.892,0h78.073a44.272,44.272,0,0,1,44.272,44.272V171.433a0,0,0,0,1,0,0H0a0,0,0,0,1,0,0V43.892A43.892,43.892,0,0,1,43.892,0Z" transform="translate(-749.37 1808.017)" fill="none"/>
    </clipPath>
  </defs>
  <g id="Group_102" data-name="Group 102" transform="translate(826.581 -1486)">
    <g id="Group_69" data-name="Group 69">
      <g id="Group_68" data-name="Group 68">
        <path id="Path_937" data-name="Path 937" d="M-600.648,2037.053H-716.979A109.071,109.071,0,0,1-826.05,1927.982v-316.47a29.763,29.763,0,0,1,12.763-24.431l136.865-95.246a29.765,29.765,0,0,1,33.912-.064l138.078,95.317a29.765,29.765,0,0,1,12.856,24.5v316.4A109.072,109.072,0,0,1-600.648,2037.053Z" fill="#366d26"/>
      </g>
    </g>
    <g id="Group_71" data-name="Group 71">
      <g id="Group_70" data-name="Group 70">
        <path id="Path_938" data-name="Path 938" d="M-785.244,1991.754a102.189,102.189,0,0,1-31.2-73.846V1620.62a28.5,28.5,0,0,1,12.216-23.385l128.57-89.473a28.621,28.621,0,0,1,32.459-.062l129.708,89.541a28.488,28.488,0,0,1,12.308,23.446v320.262h-1.06V1620.687a27.431,27.431,0,0,0-11.848-22.574L-643.8,1508.572a27.558,27.558,0,0,0-31.253.06l-128.57,89.472a27.446,27.446,0,0,0-11.761,22.516v297.288a101.14,101.14,0,0,0,30.877,73.084Z" fill="#f0f1f1"/>
      </g>
    </g>
    <g id="Group_92" data-name="Group 92">
      <g id="Group_91" data-name="Group 91" clip-path="url(#clip-path)">
        <g id="Group_90" data-name="Group 90">
          <g id="Group_89" data-name="Group 89">
            <g id="Group_73" data-name="Group 73">
              <g id="Group_72" data-name="Group 72">
                <path id="Path_939" data-name="Path 939" d="M-600.231,1948.83a118.45,118.45,0,0,1,19.509-20,11.018,11.018,0,0,0-5.146-1.188,20.266,20.266,0,0,0-8.027,1.921c-5.472,2.4-9.474,7.124-14.54,13.11-2.875,3.4-6.133,7.244-10.133,11.18-5.324,5.245-13.215,9.987-23.454,14.1-3.255,1.309-6.717,2.545-10.353,3.7.069.006.138.015.208.024,3.406.395,6.833.75,10.212,1.067l.49.047a96.855,96.855,0,0,0,11.009-4.21C-622.988,1964.995-610.386,1956.507-600.231,1948.83Z" fill="#ecd3bb"/>
              </g>
            </g>
            <g id="Group_75" data-name="Group 75">
              <g id="Group_74" data-name="Group 74">
                <path id="Path_940" data-name="Path 940" d="M-565.889,1942.969c7.424-6.113,15.6-12.835,24.072-16.4-4.984-3.224-10.4-3.587-17.279-1.331-6.534,2.142-10.512,5.345-28.233,20.12-10.7,8.92-29.639,22.227-39.71,27.062q-.827.4-1.788.814.93.059,1.833.112c.486.029.987.062,1.461.085,1.292.07,2.542.129,3.72.173q1.961.07,4,.023c.441-.011.9-.047,1.346-.064.932-.038,1.861-.07,2.821-.141.545-.041,1.112-.111,1.665-.164.887-.085,1.768-.158,2.677-.27.6-.073,1.225-.178,1.835-.263.813-.115,1.62-.226,2.451-.364,8.971-5.649,27.674-20.19,34.224-25.4C-569.219,1945.709-567.581,1944.358-565.889,1942.969Z" fill="#cfb5a3"/>
              </g>
            </g>
            <g id="Group_77" data-name="Group 77">
              <g id="Group_76" data-name="Group 76">
                <path id="Path_941" data-name="Path 941" d="M-562.847,1946.664c-1.713,1.41-3.372,2.775-4.967,4.044-.18.141-13.487,10.713-24.762,18.892.418-.111.837-.223,1.253-.34.262-.073.528-.146.79-.223,2.083-.594,4.129-1.225,6.116-1.872l.439-.147q1.295-.426,2.558-.861c.172-.059.342-.117.51-.176q1.345-.469,2.646-.941c.053-.017.107-.038.16-.055,1.931-.7,3.781-1.41,5.532-2.1.056-.024.112-.044.167-.068q1.218-.478,2.368-.946c.069-.03.139-.059.208-.085,2.431-.991,4.617-1.926,6.5-2.746.085-.038.169-.073.252-.111.547-.238,1.07-.469,1.561-.686.064-.029.133-.059.2-.085l1.492-.662c4.433-1.969,9.353-5.706,15.047-10.034,6.526-4.961,13.822-10.5,22.168-14.661-2.365-2.511-5.889-3.791-10.555-3.791C-543.009,1930.333-553.548,1939.01-562.847,1946.664Z" fill="#cfb5a3"/>
              </g>
            </g>
            <g id="Group_86" data-name="Group 86">
              <g id="Group_79" data-name="Group 79">
                <g id="Group_78" data-name="Group 78">
                  <path id="Rectangle_11" data-name="Rectangle 11" d="M46.706,0h72.824a46.706,46.706,0,0,1,46.706,46.706V171.433a0,0,0,0,1,0,0H0a0,0,0,0,1,0,0V46.706A46.706,46.706,0,0,1,46.706,0Z" transform="translate(-749.37 1808.017)" fill="#cfb5a3"/>
                  <path id="Path_942" data-name="Path 942" d="M-579.952,1982.631h-172.6V1852.905a48.123,48.123,0,0,1,48.069-48.069h76.461a48.123,48.123,0,0,1,48.069,48.069Zm-166.238-6.361h159.877V1852.905a41.755,41.755,0,0,0-41.708-41.708h-76.461a41.755,41.755,0,0,0-41.708,41.708Z" fill="#f0f1f1"/>
                </g>
              </g>
              <g id="Group_81" data-name="Group 81">
                <g id="Group_80" data-name="Group 80">
                  <circle id="Ellipse_6" data-name="Ellipse 6" cx="58.222" cy="58.222" r="58.222" transform="translate(-724.474 1690.757)" fill="#cfb5a3"/>
                  <path id="Path_943" data-name="Path 943" d="M-666.25,1810.381a61.472,61.472,0,0,1-61.4-61.4,61.472,61.472,0,0,1,61.4-61.4,61.472,61.472,0,0,1,61.4,61.4A61.471,61.471,0,0,1-666.25,1810.381Zm0-116.444a55.1,55.1,0,0,0-55.043,55.042,55.1,55.1,0,0,0,55.043,55.041,55.1,55.1,0,0,0,55.04-55.041A55.1,55.1,0,0,0-666.25,1693.937Z" fill="#f0f1f1"/>
                </g>
              </g>
              <g id="Group_85" data-name="Group 85">
                <g id="Group_84" data-name="Group 84" clip-path="url(#clip-path-2)">
                  <g id="Group_83" data-name="Group 83">
                    <g id="Group_82" data-name="Group 82">
                      <path id="Path_944" data-name="Path 944" d="M-719.223,1806.777s42.222,84.517,133.564,101v71.076l-80.271-1.4s-49.646-29.388-79.89-121.751c-4.955-15.131,2.252-32.9,17.211-43.639A46.991,46.991,0,0,1-719.223,1806.777Z" fill="#f0f1f1"/>
                    </g>
                  </g>
                </g>
              </g>
            </g>
            <g id="Group_88" data-name="Group 88">
              <g id="Group_87" data-name="Group 87">
                <path id="Path_945" data-name="Path 945" d="M-813.643,1999.167c5.431-6.291,8.445-13.371,11.361-20.219a104.461,104.461,0,0,1,5.648-11.886c14.851-25.459,33.891-29.371,54.048-33.511l3.012-.625a72.475,72.475,0,0,1,14.9-1.476c11.265,0,21.658,2.265,30.828,4.266,2.894.63,5.63,1.228,8.189,1.706,7.893,1.482,20.211,4.334,30.11,6.625,8.969,2.081,14.121,3.265,15.709,3.464a6.076,6.076,0,0,1,3.864,4.114c.722,3.174-2.485,6-5.295,7.807a17.714,17.714,0,0,1-2.314,1.242,29.7,29.7,0,0,1-12.022,2.154,68.128,68.128,0,0,1-18.037-2.775l-.26-.068c-.441-.09-10.864-2.159-17.665-2.159-2.959,0-6.139.307-7.3,2.59a3.864,3.864,0,0,0,.6,4.2c.967,1.334,3.912,5.383,34.784,9.817,7.5,1.081,15.573,2.025,23.335,2.731,6.728.607,13,1.032,18.151,1.222.864.032,1.736.047,2.607.047a94.718,94.718,0,0,0,15.627-1.418c19.193-3.3,37.889-11.6,45.87-15.144,4.943-2.2,10.07-6.09,16-10.6,7.2-5.472,15.354-11.669,24.633-15.7a9.155,9.155,0,0,1,3.67-.762c4.964,0,9.61,3.792,11.869,5.966-4.637,5.166-19.061,21.134-26.626,28.43-42.3,40.776-127.093,45.181-161.586,45.181-4.668,0-9.229-.217-13.567-.22-38.322-.031-51.917,11.193-88.8,18.643Z" fill="#cfb5a3"/>
              </g>
            </g>
          </g>
        </g>
      </g>
    </g>
    <g id="Group_94" data-name="Group 94">
      <g id="Group_93" data-name="Group 93">
        <path id="Path_947" data-name="Path 947" d="M-600.647,2037.582H-716.978a109.726,109.726,0,0,1-109.6-109.6V1611.513a30.312,30.312,0,0,1,12.991-24.867l136.865-95.246a30.426,30.426,0,0,1,34.514-.065l138.079,95.317a30.294,30.294,0,0,1,13.086,24.932v316.4A109.725,109.725,0,0,1-600.647,2037.582Zm-58.772-550.522a29.226,29.226,0,0,0-16.7,5.21l-136.864,95.245a29.254,29.254,0,0,0-12.536,24v316.468a108.665,108.665,0,0,0,108.543,108.541h116.331a108.666,108.666,0,0,0,108.541-108.541v-316.4a29.238,29.238,0,0,0-12.627-24.06l-138.078-95.317A29.23,29.23,0,0,0-659.419,1487.06Z" fill="#f0f1f1"/>
      </g>
    </g>
    <g id="Group_101" data-name="Group 101">
      <g id="Group_95" data-name="Group 95">
        <path id="Path_948" data-name="Path 948" d="M-748.852,1591.974q.732-6.539,6.623-6.84h6.666V1630.2q-.693,6.45-6.666,6.8h-6.623Z" fill="#eadac4"/>
      </g>
      <g id="Group_96" data-name="Group 96">
        <path id="Path_949" data-name="Path 949" d="M-693.052,1604.312v25.2a59.578,59.578,0,0,1-.346,6.753,21.22,21.22,0,0,1-1.428,5.672,19.494,19.494,0,0,1-3.073,5.044,28.732,28.732,0,0,1-5.282,4.784h-17.36q2.208-1.6,4.545-3.312a51.77,51.77,0,0,0,4.33-3.529,25.141,25.141,0,0,0,3.42-3.788,10.545,10.545,0,0,0,1.862-4.135h-15.153q-6.277.043-5.845-6.667l.043-19.136q.693-6.535,6.711-6.883Zm-13.332,19.4v-6.233h-7.533v6.233Z" fill="#eadac4"/>
      </g>
      <g id="Group_97" data-name="Group 97">
        <path id="Path_950" data-name="Path 950" d="M-668.507,1604.312v19.4h6.063V1637h-6.583a23.614,23.614,0,0,1-1.016,4.135,17.845,17.845,0,0,1-1.8,3.7,21.584,21.584,0,0,1-2.792,3.485,33.253,33.253,0,0,1-4,3.443h-17.4q2.209-1.6,4.481-3.312a49.418,49.418,0,0,0,4.2-3.529,23.2,23.2,0,0,0,3.268-3.788A10.171,10.171,0,0,0-682.4,1637l.044-22.252q-.218-8.789,6.883-10.434Z" fill="#eadac4"/>
      </g>
      <g id="Group_98" data-name="Group 98">
        <path id="Path_951" data-name="Path 951" d="M-623.566,1573.707a7.094,7.094,0,0,1,.755,1.558c.189.549.354,1.1.5,1.645a10.861,10.861,0,0,1,.131,2.9,8.768,8.768,0,0,1-.65,2.685,5.141,5.141,0,0,1-1.429,1.97,3.336,3.336,0,0,1-2.207.757,2.782,2.782,0,0,1-1.624-.389,12.218,12.218,0,0,1-1.19-1c-.174.288-.392.621-.651,1a6.444,6.444,0,0,1-.952,1.081,5.741,5.741,0,0,1-1.342.911,4.83,4.83,0,0,1-1.731.475,3.9,3.9,0,0,1-2.424-.433,3.414,3.414,0,0,1-1.344-1.515,5.914,5.914,0,0,1-.5-2.143,12.163,12.163,0,0,1,.087-2.316,11.8,11.8,0,0,1,.453-2.057,5.393,5.393,0,0,1,.607-1.363c0,.087.072.072.217-.044s.309-.244.5-.389.354-.267.5-.369.216-.107.216-.02a11.771,11.771,0,0,0-.584,2.012,6.963,6.963,0,0,0-.131,2.165,3.507,3.507,0,0,0,.607,1.71,1.77,1.77,0,0,0,1.623.65,2.557,2.557,0,0,0,1.926-.693,4.641,4.641,0,0,0,1.019-1.623,12.431,12.431,0,0,0,.54-1.927,6,6,0,0,1,.541-1.645c.029.086.1.086.217,0s.244-.2.389-.325.282-.245.412-.346.209-.109.238-.022a4.828,4.828,0,0,0-.109,2.338,3.638,3.638,0,0,0,.844,1.732,2.5,2.5,0,0,0,1.537.778,2.889,2.889,0,0,0,2.015-.605,1.586,1.586,0,0,0,.238-.953,4.866,4.866,0,0,0-.2-1.147,6.761,6.761,0,0,0-.476-1.169,9.332,9.332,0,0,0-.607-1.017q.563-.78,1.06-1.473C-624.21,1574.632-623.885,1574.169-623.566,1573.707Z" fill="#eadac4"/>
      </g>
      <g id="Group_99" data-name="Group 99">
        <path id="Path_952" data-name="Path 952" d="M-616.121,1623.707v-11.516a12.3,12.3,0,0,1,.692-3.03,8.968,8.968,0,0,1,1.344-2.425,6.324,6.324,0,0,1,1.99-1.666,6.785,6.785,0,0,1,2.642-.758h6.624v19.4h5.8V1637h-66.2v-13.291h6.624v-11.516a11.816,11.816,0,0,1,2.034-5.5,5.817,5.817,0,0,1,4.634-2.381h6.665v19.4h6.885v-11.516a10.791,10.791,0,0,1,2.012-5.5,5.969,5.969,0,0,1,4.655-2.381h6.667v19.4Z" fill="#eadac4"/>
      </g>
      <g id="Group_100" data-name="Group 100">
        <path id="Path_953" data-name="Path 953" d="M-598.111,1623.707h18.487v-11.516a13.66,13.66,0,0,1,.737-3.03,8.645,8.645,0,0,1,1.362-2.425,6.72,6.72,0,0,1,1.992-1.666,6.6,6.6,0,0,1,2.62-.758h6.623v19.4a16.655,16.655,0,0,1-.412,5.693,12.022,12.022,0,0,1-1.989,4.221,8.374,8.374,0,0,1-3.226,2.6,8.955,8.955,0,0,1-4.113.779h-22.081Zm9.915,17.534a6.565,6.565,0,0,1,2.662.541,7.218,7.218,0,0,1,2.166,1.451,6.721,6.721,0,0,1,1.472,2.164,6.705,6.705,0,0,1,.541,2.684,6.6,6.6,0,0,1-.541,2.641,7.282,7.282,0,0,1-1.472,2.209,6.863,6.863,0,0,1-2.166,1.492,6.532,6.532,0,0,1-2.662.542,6.572,6.572,0,0,1-2.64-.542,6.81,6.81,0,0,1-2.187-1.492,7.209,7.209,0,0,1-1.472-2.209,6.6,6.6,0,0,1-.541-2.641,6.705,6.705,0,0,1,.541-2.684,6.658,6.658,0,0,1,1.472-2.164,7.157,7.157,0,0,1,2.187-1.451A6.606,6.606,0,0,1-588.2,1641.241Zm14.632,0a6.736,6.736,0,0,1,2.686.541,7.169,7.169,0,0,1,2.187,1.451,6.737,6.737,0,0,1,1.472,2.164,6.722,6.722,0,0,1,.54,2.684,6.614,6.614,0,0,1-.54,2.641,7.3,7.3,0,0,1-1.472,2.209,6.82,6.82,0,0,1-2.187,1.492,6.7,6.7,0,0,1-2.686.542,6.579,6.579,0,0,1-2.64-.542,6.816,6.816,0,0,1-2.186-1.492,7.209,7.209,0,0,1-1.472-2.209,6.6,6.6,0,0,1-.541-2.641,6.705,6.705,0,0,1,.541-2.684,6.658,6.658,0,0,1,1.472-2.164,7.164,7.164,0,0,1,2.186-1.451A6.613,6.613,0,0,1-573.564,1641.241Z" fill="#eadac4"/>
      </g>
    </g>
  </g>
</svg>
