<svg xmlns="http://www.w3.org/2000/svg" xmlns:xlink="http://www.w3.org/1999/xlink" width="1087.954" height="551.582" viewBox="0 0 1087.954 551.582">
  <defs>
    <clipPath id="clip-path">
      <path id="Path_963" data-name="Path 963" d="M-600.648,2037.053H-716.979A109.071,109.071,0,0,1-826.05,1927.982v-316.47a29.763,29.763,0,0,1,12.763-24.431l136.865-95.246a29.765,29.765,0,0,1,33.912-.064l138.078,95.317a29.765,29.765,0,0,1,12.856,24.5v316.4A109.072,109.072,0,0,1-600.648,2037.053Z" fill="none"/>
    </clipPath>
    <clipPath id="clip-path-2">
      <path id="Rectangle_14" data-name="Rectangle 14" d="M43.892,0h78.073a44.272,44.272,0,0,1,44.272,44.272V171.433a0,0,0,0,1,0,0H0a0,0,0,0,1,0,0V43.892A43.892,43.892,0,0,1,43.892,0Z" transform="translate(-749.37 1808.017)" fill="none"/>
    </clipPath>
  </defs>
  <g id="Group_138" data-name="Group 138" transform="translate(1579 -1486)">
    <g id="Group_104" data-name="Group 104">
      <g id="Group_103" data-name="Group 103">
        <path id="Path_954" data-name="Path 954" d="M-600.648,2037.053H-716.979A109.071,109.071,0,0,1-826.05,1927.982v-316.47a29.763,29.763,0,0,1,12.763-24.431l136.865-95.246a29.765,29.765,0,0,1,33.912-.064l138.078,95.317a29.765,29.765,0,0,1,12.856,24.5v316.4A109.072,109.072,0,0,1-600.648,2037.053Z" fill="#366d26"/>
      </g>
    </g>
    <g id="Group_106" data-name="Group 106">
      <g id="Group_105" data-name="Group 105">
        <path id="Path_955" data-name="Path 955" d="M-785.244,1991.754a102.189,102.189,0,0,1-31.2-73.846V1620.62a28.5,28.5,0,0,1,12.216-23.385l128.57-89.473a28.621,28.621,0,0,1,32.459-.062l129.708,89.541a28.488,28.488,0,0,1,12.308,23.446v320.262h-1.06V1620.687a27.431,27.431,0,0,0-11.848-22.574L-643.8,1508.572a27.558,27.558,0,0,0-31.253.06l-128.57,89.472a27.446,27.446,0,0,0-11.761,22.516v297.288a101.14,101.14,0,0,0,30.877,73.084Z" fill="#f0f1f1"/>
      </g>
    </g>
    <g id="Group_127" data-name="Group 127">
      <g id="Group_126" data-name="Group 126" clip-path="url(#clip-path)">
        <g id="Group_125" data-name="Group 125">
          <g id="Group_124" data-name="Group 124">
            <g id="Group_108" data-name="Group 108">
              <g id="Group_107" data-name="Group 107">
                <path id="Path_956" data-name="Path 956" d="M-600.231,1948.83a118.45,118.45,0,0,1,19.509-20,11.018,11.018,0,0,0-5.146-1.188,20.266,20.266,0,0,0-8.027,1.921c-5.472,2.4-9.474,7.124-14.54,13.11-2.875,3.4-6.133,7.244-10.133,11.18-5.324,5.245-13.215,9.987-23.454,14.1-3.255,1.309-6.717,2.545-10.353,3.7.069.006.138.015.208.024,3.406.395,6.833.75,10.212,1.067l.49.047a96.855,96.855,0,0,0,11.009-4.21C-622.988,1964.995-610.386,1956.507-600.231,1948.83Z" fill="#ecd3bb"/>
              </g>
            </g>
            <g id="Group_110" data-name="Group 110">
              <g id="Group_109" data-name="Group 109">
                <path id="Path_957" data-name="Path 957" d="M-565.889,1942.969c7.424-6.113,15.6-12.835,24.072-16.4-4.984-3.224-10.4-3.587-17.279-1.331-6.534,2.142-10.512,5.345-28.233,20.12-10.7,8.92-29.639,22.227-39.71,27.062q-.827.4-1.788.814.93.059,1.833.112c.486.029.987.062,1.461.085,1.292.07,2.542.129,3.72.173q1.961.07,4,.023c.441-.011.9-.047,1.346-.064.932-.038,1.861-.07,2.821-.141.545-.041,1.112-.111,1.665-.164.887-.085,1.768-.158,2.677-.27.6-.073,1.225-.178,1.835-.263.813-.115,1.62-.226,2.451-.364,8.971-5.649,27.674-20.19,34.224-25.4C-569.219,1945.709-567.581,1944.358-565.889,1942.969Z" fill="#cfb5a3"/>
              </g>
            </g>
            <g id="Group_112" data-name="Group 112">
              <g id="Group_111" data-name="Group 111">
                <path id="Path_958" data-name="Path 958" d="M-562.847,1946.664c-1.713,1.41-3.372,2.775-4.967,4.044-.18.141-13.487,10.713-24.762,18.892.418-.111.837-.223,1.253-.34.262-.073.528-.146.79-.223,2.083-.594,4.129-1.225,6.116-1.872l.439-.147q1.295-.426,2.558-.861c.172-.059.342-.117.51-.176q1.345-.469,2.646-.941c.053-.017.107-.038.16-.055,1.931-.7,3.781-1.41,5.532-2.1.056-.024.112-.044.167-.068q1.218-.478,2.368-.946c.069-.03.139-.059.208-.085,2.431-.991,4.617-1.926,6.5-2.746.085-.038.169-.073.252-.111.547-.238,1.07-.469,1.561-.686.064-.029.133-.059.2-.085l1.492-.662c4.433-1.969,9.353-5.706,15.047-10.034,6.526-4.961,13.822-10.5,22.168-14.661-2.365-2.511-5.889-3.791-10.555-3.791C-543.009,1930.333-553.548,1939.01-562.847,1946.664Z" fill="#cfb5a3"/>
              </g>
            </g>
            <g id="Group_121" data-name="Group 121">
              <g id="Group_114" data-name="Group 114">
                <g id="Group_113" data-name="Group 113">
                  <path id="Rectangle_13" data-name="Rectangle 13" d="M46.706,0h72.824a46.706,46.706,0,0,1,46.706,46.706V171.433a0,0,0,0,1,0,0H0a0,0,0,0,1,0,0V46.706A46.706,46.706,0,0,1,46.706,0Z" transform="translate(-749.37 1808.017)" fill="#cfb5a3"/>
                  <path id="Path_959" data-name="Path 959" d="M-579.952,1982.631h-172.6V1852.905a48.123,48.123,0,0,1,48.069-48.069h76.461a48.123,48.123,0,0,1,48.069,48.069Zm-166.238-6.361h159.877V1852.905a41.755,41.755,0,0,0-41.708-41.708h-76.461a41.755,41.755,0,0,0-41.708,41.708Z" fill="#f0f1f1"/>
                </g>
              </g>
              <g id="Group_116" data-name="Group 116">
                <g id="Group_115" data-name="Group 115">
                  <circle id="Ellipse_7" data-name="Ellipse 7" cx="58.222" cy="58.222" r="58.222" transform="translate(-724.474 1690.757)" fill="#cfb5a3"/>
                  <path id="Path_960" data-name="Path 960" d="M-666.25,1810.381a61.472,61.472,0,0,1-61.4-61.4,61.472,61.472,0,0,1,61.4-61.4,61.472,61.472,0,0,1,61.4,61.4A61.471,61.471,0,0,1-666.25,1810.381Zm0-116.444a55.1,55.1,0,0,0-55.043,55.042,55.1,55.1,0,0,0,55.043,55.041,55.1,55.1,0,0,0,55.04-55.041A55.1,55.1,0,0,0-666.25,1693.937Z" fill="#f0f1f1"/>
                </g>
              </g>
              <g id="Group_120" data-name="Group 120">
                <g id="Group_119" data-name="Group 119" clip-path="url(#clip-path-2)">
                  <g id="Group_118" data-name="Group 118">
                    <g id="Group_117" data-name="Group 117">
                      <path id="Path_961" data-name="Path 961" d="M-719.223,1806.777s42.222,84.517,133.564,101v71.076l-80.271-1.4s-49.646-29.388-79.89-121.751c-4.955-15.131,2.252-32.9,17.211-43.639A46.991,46.991,0,0,1-719.223,1806.777Z" fill="#f0f1f1"/>
                    </g>
                  </g>
                </g>
              </g>
            </g>
            <g id="Group_123" data-name="Group 123">
              <g id="Group_122" data-name="Group 122">
                <path id="Path_962" data-name="Path 962" d="M-813.643,1999.167c5.431-6.291,8.445-13.371,11.361-20.219a104.461,104.461,0,0,1,5.648-11.886c14.851-25.459,33.891-29.371,54.048-33.511l3.012-.625a72.475,72.475,0,0,1,14.9-1.476c11.265,0,21.658,2.265,30.828,4.266,2.894.63,5.63,1.228,8.189,1.706,7.893,1.482,20.211,4.334,30.11,6.625,8.969,2.081,14.121,3.265,15.709,3.464a6.076,6.076,0,0,1,3.864,4.114c.722,3.174-2.485,6-5.295,7.807a17.714,17.714,0,0,1-2.314,1.242,29.7,29.7,0,0,1-12.022,2.154,68.128,68.128,0,0,1-18.037-2.775l-.26-.068c-.441-.09-10.864-2.159-17.665-2.159-2.959,0-6.139.307-7.3,2.59a3.864,3.864,0,0,0,.6,4.2c.967,1.334,3.912,5.383,34.784,9.817,7.5,1.081,15.573,2.025,23.335,2.731,6.728.607,13,1.032,18.151,1.222.864.032,1.736.047,2.607.047a94.718,94.718,0,0,0,15.627-1.418c19.193-3.3,37.889-11.6,45.87-15.144,4.943-2.2,10.07-6.09,16-10.6,7.2-5.472,15.354-11.669,24.633-15.7a9.155,9.155,0,0,1,3.67-.762c4.964,0,9.61,3.792,11.869,5.966-4.637,5.166-19.061,21.134-26.626,28.43-42.3,40.776-127.093,45.181-161.586,45.181-4.668,0-9.229-.217-13.567-.22-38.322-.031-51.917,11.193-88.8,18.643Z" fill="#cfb5a3"/>
              </g>
            </g>
          </g>
        </g>
      </g>
    </g>
    <g id="Group_129" data-name="Group 129">
      <g id="Group_128" data-name="Group 128">
        <path id="Path_964" data-name="Path 964" d="M-600.647,2037.582H-716.978a109.726,109.726,0,0,1-109.6-109.6V1611.513a30.312,30.312,0,0,1,12.991-24.867l136.865-95.246a30.426,30.426,0,0,1,34.514-.065l138.079,95.317a30.294,30.294,0,0,1,13.086,24.932v316.4A109.725,109.725,0,0,1-600.647,2037.582Zm-58.772-550.522a29.226,29.226,0,0,0-16.7,5.21l-136.864,95.245a29.254,29.254,0,0,0-12.536,24v316.468a108.665,108.665,0,0,0,108.543,108.541h116.331a108.666,108.666,0,0,0,108.541-108.541v-316.4a29.238,29.238,0,0,0-12.627-24.06l-138.078-95.317A29.23,29.23,0,0,0-659.419,1487.06Z" fill="#f0f1f1"/>
      </g>
    </g>
    <g id="Group_136" data-name="Group 136">
      <g id="Group_130" data-name="Group 130">
        <path id="Path_965" data-name="Path 965" d="M-748.852,1591.974q.732-6.539,6.623-6.84h6.666V1630.2q-.693,6.45-6.666,6.8h-6.623Z" fill="#eadac4"/>
      </g>
      <g id="Group_131" data-name="Group 131">
        <path id="Path_966" data-name="Path 966" d="M-693.052,1604.312v25.2a59.578,59.578,0,0,1-.346,6.753,21.22,21.22,0,0,1-1.428,5.672,19.494,19.494,0,0,1-3.073,5.044,28.732,28.732,0,0,1-5.282,4.784h-17.36q2.208-1.6,4.545-3.312a51.77,51.77,0,0,0,4.33-3.529,25.141,25.141,0,0,0,3.42-3.788,10.545,10.545,0,0,0,1.862-4.135h-15.153q-6.277.043-5.845-6.667l.043-19.136q.693-6.535,6.711-6.883Zm-13.332,19.4v-6.233h-7.533v6.233Z" fill="#eadac4"/>
      </g>
      <g id="Group_132" data-name="Group 132">
        <path id="Path_967" data-name="Path 967" d="M-668.507,1604.312v19.4h6.063V1637h-6.583a23.614,23.614,0,0,1-1.016,4.135,17.845,17.845,0,0,1-1.8,3.7,21.584,21.584,0,0,1-2.792,3.485,33.253,33.253,0,0,1-4,3.443h-17.4q2.209-1.6,4.481-3.312a49.418,49.418,0,0,0,4.2-3.529,23.2,23.2,0,0,0,3.268-3.788A10.171,10.171,0,0,0-682.4,1637l.044-22.252q-.218-8.789,6.883-10.434Z" fill="#eadac4"/>
      </g>
      <g id="Group_133" data-name="Group 133">
        <path id="Path_968" data-name="Path 968" d="M-623.566,1573.707a7.094,7.094,0,0,1,.755,1.558c.189.549.354,1.1.5,1.645a10.861,10.861,0,0,1,.131,2.9,8.768,8.768,0,0,1-.65,2.685,5.141,5.141,0,0,1-1.429,1.97,3.336,3.336,0,0,1-2.207.757,2.782,2.782,0,0,1-1.624-.389,12.218,12.218,0,0,1-1.19-1c-.174.288-.392.621-.651,1a6.444,6.444,0,0,1-.952,1.081,5.741,5.741,0,0,1-1.342.911,4.83,4.83,0,0,1-1.731.475,3.9,3.9,0,0,1-2.424-.433,3.414,3.414,0,0,1-1.344-1.515,5.914,5.914,0,0,1-.5-2.143,12.163,12.163,0,0,1,.087-2.316,11.8,11.8,0,0,1,.453-2.057,5.393,5.393,0,0,1,.607-1.363c0,.087.072.072.217-.044s.309-.244.5-.389.354-.267.5-.369.216-.107.216-.02a11.771,11.771,0,0,0-.584,2.012,6.963,6.963,0,0,0-.131,2.165,3.507,3.507,0,0,0,.607,1.71,1.77,1.77,0,0,0,1.623.65,2.557,2.557,0,0,0,1.926-.693,4.641,4.641,0,0,0,1.019-1.623,12.431,12.431,0,0,0,.54-1.927,6,6,0,0,1,.541-1.645c.029.086.1.086.217,0s.244-.2.389-.325.282-.245.412-.346.209-.109.238-.022a4.828,4.828,0,0,0-.109,2.338,3.638,3.638,0,0,0,.844,1.732,2.5,2.5,0,0,0,1.537.778,2.889,2.889,0,0,0,2.015-.605,1.586,1.586,0,0,0,.238-.953,4.866,4.866,0,0,0-.2-1.147,6.761,6.761,0,0,0-.476-1.169,9.332,9.332,0,0,0-.607-1.017q.563-.78,1.06-1.473C-624.21,1574.632-623.885,1574.169-623.566,1573.707Z" fill="#eadac4"/>
      </g>
      <g id="Group_134" data-name="Group 134">
        <path id="Path_969" data-name="Path 969" d="M-616.121,1623.707v-11.516a12.3,12.3,0,0,1,.692-3.03,8.968,8.968,0,0,1,1.344-2.425,6.324,6.324,0,0,1,1.99-1.666,6.785,6.785,0,0,1,2.642-.758h6.624v19.4h5.8V1637h-66.2v-13.291h6.624v-11.516a11.816,11.816,0,0,1,2.034-5.5,5.817,5.817,0,0,1,4.634-2.381h6.665v19.4h6.885v-11.516a10.791,10.791,0,0,1,2.012-5.5,5.969,5.969,0,0,1,4.655-2.381h6.667v19.4Z" fill="#eadac4"/>
      </g>
      <g id="Group_135" data-name="Group 135">
        <path id="Path_970" data-name="Path 970" d="M-598.111,1623.707h18.487v-11.516a13.66,13.66,0,0,1,.737-3.03,8.645,8.645,0,0,1,1.362-2.425,6.72,6.72,0,0,1,1.992-1.666,6.6,6.6,0,0,1,2.62-.758h6.623v19.4a16.655,16.655,0,0,1-.412,5.693,12.022,12.022,0,0,1-1.989,4.221,8.374,8.374,0,0,1-3.226,2.6,8.955,8.955,0,0,1-4.113.779h-22.081Zm9.915,17.534a6.565,6.565,0,0,1,2.662.541,7.218,7.218,0,0,1,2.166,1.451,6.721,6.721,0,0,1,1.472,2.164,6.705,6.705,0,0,1,.541,2.684,6.6,6.6,0,0,1-.541,2.641,7.282,7.282,0,0,1-1.472,2.209,6.863,6.863,0,0,1-2.166,1.492,6.532,6.532,0,0,1-2.662.542,6.572,6.572,0,0,1-2.64-.542,6.81,6.81,0,0,1-2.187-1.492,7.209,7.209,0,0,1-1.472-2.209,6.6,6.6,0,0,1-.541-2.641,6.705,6.705,0,0,1,.541-2.684,6.658,6.658,0,0,1,1.472-2.164,7.157,7.157,0,0,1,2.187-1.451A6.606,6.606,0,0,1-588.2,1641.241Zm14.632,0a6.736,6.736,0,0,1,2.686.541,7.169,7.169,0,0,1,2.187,1.451,6.737,6.737,0,0,1,1.472,2.164,6.722,6.722,0,0,1,.54,2.684,6.614,6.614,0,0,1-.54,2.641,7.3,7.3,0,0,1-1.472,2.209,6.82,6.82,0,0,1-2.187,1.492,6.7,6.7,0,0,1-2.686.542,6.579,6.579,0,0,1-2.64-.542,6.816,6.816,0,0,1-2.186-1.492,7.209,7.209,0,0,1-1.472-2.209,6.6,6.6,0,0,1-.541-2.641,6.705,6.705,0,0,1,.541-2.684,6.658,6.658,0,0,1,1.472-2.164,7.164,7.164,0,0,1,2.186-1.451A6.613,6.613,0,0,1-573.564,1641.241Z" fill="#eadac4"/>
      </g>
    </g>
    <g id="Group_137" data-name="Group 137">
      <path id="Path_971" data-name="Path 971" d="M-1555.071,1585.119h24.079v162.81q-2.5,23.3-24.079,24.554H-1579V1609.83Q-1576.352,1586.211-1555.071,1585.119Zm171.244,205.193a70.321,70.321,0,0,1-11.1,18.222,103.7,103.7,0,0,1-19.081,17.283h-62.714q7.977-5.79,16.419-11.965a187.089,187.089,0,0,0,15.641-12.746,91.066,91.066,0,0,0,12.357-13.685,38.1,38.1,0,0,0,6.725-14.938h-54.74q-22.677.157-21.117-24.086l.157-69.129q2.5-23.611,24.243-24.867h99.622v91.026a215.28,215.28,0,0,1-1.25,24.4A76.634,76.634,0,0,1-1383.827,1790.312Zm-41.754-88.364h-27.213v22.52h27.213Zm248.035-116.036a12.332,12.332,0,0,0,4.855,5.472q3.276,2.035,8.759,1.563a17.394,17.394,0,0,0,6.254-1.717,20.708,20.708,0,0,0,4.847-3.287,23.478,23.478,0,0,0,3.441-3.908q1.4-2.031,2.348-3.6a43.83,43.83,0,0,0,4.3,3.6q1.952,1.407,5.864,1.406a12.044,12.044,0,0,0,7.974-2.734,18.566,18.566,0,0,0,5.161-7.118,31.579,31.579,0,0,0,2.349-9.7,39.259,39.259,0,0,0-.471-10.48q-.786-2.967-1.8-5.943a25.506,25.506,0,0,0-2.73-5.628q-1.728,2.5-3.523,5t-3.83,5.318a33.779,33.779,0,0,1,2.191,3.677,24.266,24.266,0,0,1,1.721,4.223,17.51,17.51,0,0,1,.7,4.143,5.691,5.691,0,0,1-.86,3.441q-3.916,2.659-7.278,2.188a9.036,9.036,0,0,1-5.551-2.812,13.129,13.129,0,0,1-3.052-6.257,17.438,17.438,0,0,1,.4-8.446c-.1-.314-.4-.288-.861.079s-.964.782-1.488,1.249-.995.861-1.406,1.175-.681.31-.786,0a21.648,21.648,0,0,0-1.952,5.943,44.967,44.967,0,0,1-1.952,6.96,16.736,16.736,0,0,1-3.681,5.864q-2.422,2.5-6.956,2.5-4.074.156-5.865-2.345a12.648,12.648,0,0,1-2.191-6.179,25.151,25.151,0,0,1,.471-7.821,42.782,42.782,0,0,1,2.109-7.27c0-.315-.262-.288-.778.074s-1.122.812-1.8,1.332-1.279.991-1.8,1.406-.785.471-.785.157a19.562,19.562,0,0,0-2.192,4.926,42.894,42.894,0,0,0-1.638,7.432,44.289,44.289,0,0,0-.314,8.366A21.42,21.42,0,0,0-1177.546,1585.912Zm196.37,209.094a26.03,26.03,0,0,0-7.824-5.24,23.7,23.7,0,0,0-9.62-1.956,23.853,23.853,0,0,0-9.537,1.956,25.832,25.832,0,0,0-7.9,5.24,24.091,24.091,0,0,0-5.318,7.817,24.265,24.265,0,0,0-1.953,9.7,23.884,23.884,0,0,0,1.953,9.541,26.025,26.025,0,0,0,5.318,7.977,24.6,24.6,0,0,0,7.9,5.393,23.785,23.785,0,0,0,9.537,1.956,23.637,23.637,0,0,0,9.62-1.956,24.777,24.777,0,0,0,7.824-5.393,26.3,26.3,0,0,0,5.318-7.977,23.885,23.885,0,0,0,1.953-9.541,24.266,24.266,0,0,0-1.953-9.7A24.327,24.327,0,0,0-981.176,1795.006Zm53.02,0a25.844,25.844,0,0,0-7.9-5.24,24.3,24.3,0,0,0-9.7-1.956,23.858,23.858,0,0,0-9.538,1.956,25.814,25.814,0,0,0-7.9,5.24,24.078,24.078,0,0,0-5.319,7.817,24.264,24.264,0,0,0-1.952,9.7,23.883,23.883,0,0,0,1.952,9.541,26.01,26.01,0,0,0,5.319,7.977,24.586,24.586,0,0,0,7.9,5.393,23.789,23.789,0,0,0,9.538,1.956,24.235,24.235,0,0,0,9.7-1.956,24.613,24.613,0,0,0,7.9-5.393,26.313,26.313,0,0,0,5.318-7.977,23.883,23.883,0,0,0,1.952-9.541,24.264,24.264,0,0,0-1.952-9.7A24.342,24.342,0,0,0-928.156,1795.006Zm-11.654-25.339a30.26,30.26,0,0,0,11.654-9.384,43.479,43.479,0,0,0,7.188-15.249,60.24,60.24,0,0,0,1.489-20.566V1654.4h-23.93a23.873,23.873,0,0,0-9.462,2.737,24.241,24.241,0,0,0-7.2,6.022,31.145,31.145,0,0,0-4.922,8.759,49.386,49.386,0,0,0-2.663,10.948v41.6h-83.83V1654.4h-23.929a24.567,24.567,0,0,0-9.545,2.737,22.884,22.884,0,0,0-7.189,6.022,32.364,32.364,0,0,0-4.854,8.759,44.473,44.473,0,0,0-2.5,10.948v41.6h-25.021V1654.4H-1148.6q-10.794.628-16.815,8.6t-7.271,19.864v41.6h-24.872V1654.4h-24.078q-10.952.628-16.741,8.6t-7.346,19.864v41.6h-43.018V1654.4h-25.179q-25.648,5.946-24.864,37.692l-.157,80.39a36.7,36.7,0,0,1-6.1,14.938,83.849,83.849,0,0,1-11.8,13.685,179.739,179.739,0,0,1-15.17,12.746q-8.214,6.177-16.187,11.965h62.871a119.962,119.962,0,0,0,14.466-12.436,77.955,77.955,0,0,0,10.084-12.589,64.457,64.457,0,0,0,6.492-13.371,85.431,85.431,0,0,0,3.673-14.938h335.958A32.318,32.318,0,0,0-939.81,1769.667Z" fill="#eadac4"/>
      <path id="Path_972" data-name="Path 972" d="M-1569.525,1910.951a5.124,5.124,0,0,1-1.476-3.716,5.257,5.257,0,0,1,1.476-3.755,4.911,4.911,0,0,1,3.641-1.551,5,5,0,0,1,3.712,1.551,5.164,5.164,0,0,1,1.48,3.755,5.2,5.2,0,0,1-1.48,3.716,4.984,4.984,0,0,1-3.712,1.551A4.823,4.823,0,0,1-1569.525,1910.951ZM-1553,1912.5a4.817,4.817,0,0,0,3.638-1.551,5.2,5.2,0,0,0,1.48-3.716,5.168,5.168,0,0,0-1.48-3.755,4.828,4.828,0,0,0-3.638-1.551,4.915,4.915,0,0,0-3.64,1.551,5.254,5.254,0,0,0-1.477,3.755,5.121,5.121,0,0,0,1.477,3.716A4.827,4.827,0,0,0-1553,1912.5Zm28.129,5.877h10.234v36.505h-43.555q-20.812,0-20.811-18.005,0-8.268,4.925-13.572,5.535-5.916,15.658-5.913a45.511,45.511,0,0,1,16.222,2.69v26.727h17.327Zm-27.258,8.491a17.193,17.193,0,0,0-7.393-1.4,8.412,8.412,0,0,0-6.782,2.956,11.145,11.145,0,0,0-2.465,7.507q0,10.878,11.676,10.88h4.964Zm26.613,34.308a5.237,5.237,0,0,0-3.791,1.551,5.245,5.245,0,0,0-1.555,3.791,5.2,5.2,0,0,0,1.555,3.83,5.24,5.24,0,0,0,3.791,1.555,5.1,5.1,0,0,0,3.79-1.591,5.1,5.1,0,0,0,1.594-3.794,5.1,5.1,0,0,0-1.594-3.791A5.152,5.152,0,0,0-1525.513,1961.178Zm56.8-60.009a5.236,5.236,0,0,0-3.79,1.555,5.231,5.231,0,0,0-1.555,3.791,5.191,5.191,0,0,0,1.555,3.826,5.21,5.21,0,0,0,3.79,1.519,5.236,5.236,0,0,0,3.791-1.555,5.236,5.236,0,0,0,1.555-3.79,5.231,5.231,0,0,0-1.555-3.791A5.237,5.237,0,0,0-1468.709,1901.169Zm-5.117,45.642H-1491.3v-46.665h-10.234v54.738h37.946v-36.505h-10.235Zm34.931,20.583q0-2.274,3.488-2.275a29.83,29.83,0,0,1,3.9.417l.91-5.307a17.918,17.918,0,0,0-4.586-.456q-5.2,0-8.152,2.314a6.286,6.286,0,0,0-2.614,5.153,3.455,3.455,0,0,0,1.287,2.921,20.053,20.053,0,0,0-4.093-.3v5.459h19.559v-5.459h-4.736Q-1438.895,1969.858-1438.9,1967.394Zm3.791-26.421-11.333-41.358-10.16,1.4,11.105,39.957Zm5.687,5.838h-23.995v8.073h34.23v-54.738h-10.235Zm51.835,0h-17.474v-46.665h-10.235v54.738h37.943v-36.505h-10.234Zm-.646,14.367a5.234,5.234,0,0,0-3.79,1.551,5.244,5.244,0,0,0-1.555,3.791,5.2,5.2,0,0,0,1.555,3.83,5.238,5.238,0,0,0,3.79,1.555,5.1,5.1,0,0,0,3.791-1.591,5.106,5.106,0,0,0,1.594-3.794,5.1,5.1,0,0,0-1.594-3.791A5.154,5.154,0,0,0-1378.228,1961.178Zm65.739-48.676a4.815,4.815,0,0,0,3.637-1.551,5.2,5.2,0,0,0,1.48-3.716,5.164,5.164,0,0,0-1.48-3.755,4.826,4.826,0,0,0-3.637-1.551,4.917,4.917,0,0,0-3.641,1.551,5.257,5.257,0,0,0-1.476,3.755,5.124,5.124,0,0,0,1.476,3.716A4.829,4.829,0,0,0-1312.489,1912.5Zm11.789,42.382h-16.981q-20.814,0-20.812-17.93,0-8.381,5.079-13.761,5.494-5.8,15.2-5.8,17.514,0,17.513,17.855Zm-10.009-18.386q0-11.03-8.3-11.03a8.415,8.415,0,0,0-6.783,2.956,11.144,11.144,0,0,0-2.464,7.507q0,10.878,11.675,10.88h5.874Zm-14.668-24a4.986,4.986,0,0,0,3.713-1.551,5.2,5.2,0,0,0,1.48-3.716,5.168,5.168,0,0,0-1.48-3.755,5,5,0,0,0-3.713-1.551,4.908,4.908,0,0,0-3.64,1.551,5.254,5.254,0,0,0-1.477,3.755,5.121,5.121,0,0,0,1.477,3.716A4.823,4.823,0,0,0-1325.377,1912.5Zm164.574-12.356h10.234v54.738h-24.98a28.269,28.269,0,0,1-16-4.814q-10.766,4.817-25.625,4.814h-23.315q-12.545,0-17.4-6.066c-1.44,3.714-5.046,5.7-10.766,6v.062h-7.621v.3q0,19.41-19.181,19.41a27.408,27.408,0,0,1-6.519-.76l.759-8.148a23.088,23.088,0,0,0,6.291.909q4.209,0,6.18-2.275,2.234-2.576,2.236-8.569v-37.375h10.234v28.432h4.893q4.547,0,6.708-2.236,2.39-2.464,2.389-8.341a18.227,18.227,0,0,1,5-13.116q5.535-5.726,15.163-5.724,17.552,0,17.551,17.855v11.562h8.035a59.1,59.1,0,0,0,18.083-2.39q-10.35-9.7-16.3-11.332l.834-7.318q11.94-8.6,22.441-8.6,8.19,0,12.549,3.83a11.364,11.364,0,0,1,3.826,8.908q0,8.263-7.92,14.895a19.661,19.661,0,0,0,8.641,2.012h13.572Zm-73.767,36.352q0-11.03-8.3-11.03a8.537,8.537,0,0,0-6.825,2.956,11.265,11.265,0,0,0-2.425,7.507q0,10.878,11.636,10.88h5.916Zm49.315-5.306a6.111,6.111,0,0,0-1.819-4.625,7.722,7.722,0,0,0-5.574-1.894q-4.811,0-11.789,4.661,3.036,1.212,14.368,10.73Q-1185.254,1936.269-1185.255,1931.192Zm48.656,23.692h10.234v-54.738H-1136.6Zm37.7-37.49a45.511,45.511,0,0,1,16.222,2.69v34.953q0,8.64-5.645,13.722-6.3,5.687-18.65,5.685a69.845,69.845,0,0,1-11.829-1.024l.646-8.376a56.507,56.507,0,0,0,12.092,1.326q13.455,0,13.455-10.309v-1.177h-6.063q-20.812,0-20.811-18.005,0-8.268,4.925-13.572Q-1109.024,1917.391-1098.9,1917.394Zm6.291,9.476a17.193,17.193,0,0,0-7.393-1.4,8.412,8.412,0,0,0-6.782,2.956,11.144,11.144,0,0,0-2.464,7.507q0,10.878,11.675,10.88h4.964Zm67.1,34.308a5.15,5.15,0,0,0-3.791,1.551,5.182,5.182,0,0,0-1.593,3.791,5.139,5.139,0,0,0,1.593,3.83,5.153,5.153,0,0,0,3.791,1.555,5.061,5.061,0,0,0,3.751-1.591,5.1,5.1,0,0,0,1.595-3.794,5.1,5.1,0,0,0-1.595-3.791A5.111,5.111,0,0,0-1025.509,1961.178Zm96.058-61.032v46.665h-16.226v-46.665h-10.234v46.665h-14.478a62.6,62.6,0,0,0,.3-6.294q0-11.412-5.649-16.868-5.877-5.724-18.725-5.723a76.619,76.619,0,0,0-9.931.717v8a64.241,64.241,0,0,1,8.908-.643q8.184,0,11.825,3.752,3.413,3.564,3.412,11.144a49.3,49.3,0,0,1-.378,5.916h-34.2a62.577,62.577,0,0,0,.3-6.294q0-11.412-5.61-16.868-5.877-5.724-18.689-5.723a74.271,74.271,0,0,0-9.932.717v8a62.924,62.924,0,0,1,8.948-.643q8.11,0,11.714,3.752,3.413,3.564,3.412,11.144a48.714,48.714,0,0,1-.381,5.916h-5.267q-12.7,0-19.221,4.964a14.528,14.528,0,0,0-5.951,12.284,13.383,13.383,0,0,0,5.459,11.219q5.912,4.434,16.906,4.436l.682-8.073q-6.366,0-9.817-2.5a6.805,6.805,0,0,1-3.071-5.723q0-8.532,14.671-8.53h111.448v-54.738Z" fill="#eadac4"/>
    </g>
  </g>
</svg>
