<svg xmlns="http://www.w3.org/2000/svg" width="60" viewBox="0 0 109.437 72.424">

<style>
path {
fill: #007aff;
}
</style>
  <path id="Path_244" data-name="Path 244" d="M1786.693,40.952c.024-.094.059-.213.107-.355l.142-.285a6.608,6.608,0,0,1,2.524-3.271l6.116-4.088q2.737-1.777,4.231-2.987a6,6,0,0,1-2.561,3.947q-.072.071-5.511,3.7l-4.871,3.449C1786.752,41.107,1786.693,41.071,1786.693,40.952Zm26.967-6.226,4.871-3.449q5.44-3.625,5.511-3.7a5.993,5.993,0,0,0,2.56-3.947q-1.492,1.209-4.23,2.987l-6.116,4.088a6.61,6.61,0,0,0-2.524,3.272l-.143.284c-.047.142-.082.261-.107.355C1813.482,34.739,1813.542,34.774,1813.66,34.726Zm-24.3-1.489q1.991,0,4.125-2.809a2.627,2.627,0,0,0,1.884.213q2.488-.5,2.489-5.546l.142-2.418a3.738,3.738,0,0,0-1.742,2.987c0,.119.023.367.071.747v.71q0,.57-.746.676-1.6.178-1.6-.746a5.156,5.156,0,0,1,.072-1.067q.141-.534-.214-.534-.853.214-1.173,1.92-.462,2.6-2.169,2.881-.888.177-.888-1.067a4.9,4.9,0,0,1,.159-1.067,4.811,4.811,0,0,0,.16-1q0-.5-.249-.5-.711.106-1.315,2.026a9.562,9.562,0,0,0-.5,2.631Q1787.866,33.237,1789.359,33.237Zm-30.577,11.832c.023-.1.142-.19.355-.285a36.945,36.945,0,0,0,3.805-3.057,45.1,45.1,0,0,0,4.8-4.8q-3.661-.214-3.662-2.7a6.593,6.593,0,0,1,1.654-3.965,4.546,4.546,0,0,1,3.466-2.115q1.884,0,1.885,3.449a8.388,8.388,0,0,1-.569,2.915q1.812.462,1.813,1.458a4.192,4.192,0,0,1-.889,2.062,3.341,3.341,0,0,0-2.027-.889,21.752,21.752,0,0,1-8.106,7.5,8.262,8.262,0,0,1-2.169.5C1758.9,45.188,1758.782,45.164,1758.782,45.069Zm10.63-10.773v-1q0-2.773-1.671-2.631a2.6,2.6,0,0,0-1.333.711,1.717,1.717,0,0,0-.658,1.244Q1765.75,34.083,1769.412,34.3Zm-23.579,47.07q-3.805,3.127-13.262,9.635a10.375,10.375,0,0,0-1.134.606,7.966,7.966,0,0,1,1.134-1.85q2.523-2.027,7.466-6.2a51.914,51.914,0,0,0,9.493-11.04,34.564,34.564,0,0,1-6.684.853,9.709,9.709,0,0,1-1.884-.142q-5.547-1.137-5.547-5.3,0-3.342,6.24-10.346t9.4-7a.374.374,0,0,1,.32.142q.142.179-.64,1.1a3.181,3.181,0,0,0-.889,1.955,1.037,1.037,0,0,0,.072.392,27.225,27.225,0,0,0,3.2,7.182q2.738,4.907,2.738,7.359Q1755.859,73.154,1745.833,81.366Zm2.488-13.084q-.96-1.884-5.617-8.818a5.25,5.25,0,0,0-1.387,3.342,4.53,4.53,0,0,0,1.1,2.845Q1743.77,67.392,1748.321,68.282Zm74.666,9.671-2.454,3.733-4.978-3.733-2.524,3.946,5.014,3.7,2.382-3.556,5.048,3.485L1828,81.757Zm-3.272-22.862a3.155,3.155,0,0,1-.213-1.173,9.353,9.353,0,0,1,1.316-4.267,29.913,29.913,0,0,0-5.333,3.414q-3.2,2.595-3.2,4.373,0,1.529,2.222,5.884t2.222,5.742h-5.013a6.047,6.047,0,0,0-.214-1.671q-5.83-11.874-6.613-15.5a3.626,3.626,0,0,1,.107-2.062l.676-2.24q-3.094,2.595-4.658,3.875-3.059,2.7-3.058,4.8,0,1.92,2.435,6.773t2.436,5.529c0,.38-.166.569-.5.569q-5.193,0-7.787-12.657-3.378,2.667-5.048,4.017a3.462,3.462,0,0,0-1.529,3.058,6.753,6.753,0,0,0,.817,1.671,9.267,9.267,0,0,1,1.387,3.129q0,1.1-1.315,1.1a2.649,2.649,0,0,1-2.561-1.173q-.96-1.777-1.813-3.733L1780.392,68a3.715,3.715,0,0,1-1.956,1.067h-4.728q-5.619-8.213-6.827-11.271a4.828,4.828,0,0,1-.462-1.671q0,.142.818-2.844-4.2,2.808-5.475,3.84-2.1,1.778-2.1,3.093a2.366,2.366,0,0,0,.355,1.209q6.541,11.377,6.542,13.048,0,2.737-6.186,7.573-5.511,4.231-8.284,6.329a2.9,2.9,0,0,0-1.032,1.956q8.427-6.115,12.551-9.1,7.039-5.085,9-8.142h55.322Q1821.6,59.571,1819.715,55.091Zm-79.962,18.2c0-.071-.048-.119-.142-.142q-.106,0-2.489.977a10.783,10.783,0,0,1-3.84.978q-3.769,0-4.871-2.986a16.279,16.279,0,0,1-.5-4.871V19.288l-9.35,7.786a6.013,6.013,0,0,1,3.235,3.2,13.787,13.787,0,0,1,.5,4.373v32.6a12.152,12.152,0,0,0,1.884,7.04,7.3,7.3,0,0,0,6.329,3.093,13.8,13.8,0,0,0,6.435-1.671Q1739.752,74.219,1739.753,73.295ZM1731.4,91.712c.007-.029.028-.072.039-.1C1731.339,91.677,1731.325,91.712,1731.4,91.712Z" transform="translate(-1718.563 -19.288)"/>
</svg>
