<svg xmlns="http://www.w3.org/2000/svg" viewBox="0 0 659.783 435.874">
  <g id="Group_139" data-name="Group 139" transform="translate(1579 -2102.84)">
    <path id="Path_973" data-name="Path 973" d="M-1555.071,2144.119h24.079v162.81q-2.5,23.3-24.079,24.554H-1579V2168.83Q-1576.352,2145.211-1555.071,2144.119Zm171.244,205.193a70.321,70.321,0,0,1-11.1,18.222,103.683,103.683,0,0,1-19.081,17.283h-62.714q7.977-5.79,16.419-11.965a187.114,187.114,0,0,0,15.641-12.746,91.049,91.049,0,0,0,12.357-13.685,38.1,38.1,0,0,0,6.725-14.938h-54.74q-22.677.157-21.117-24.086l.157-69.129q2.5-23.611,24.243-24.867h99.622v91.026a215.278,215.278,0,0,1-1.25,24.4A76.633,76.633,0,0,1-1383.827,2349.312Zm-41.754-88.364h-27.213v22.52h27.213Zm248.035-116.036a12.332,12.332,0,0,0,4.855,5.472q3.276,2.035,8.759,1.563a17.394,17.394,0,0,0,6.254-1.717,20.711,20.711,0,0,0,4.847-3.287,23.469,23.469,0,0,0,3.441-3.908q1.4-2.031,2.348-3.6a43.827,43.827,0,0,0,4.3,3.6q1.952,1.407,5.864,1.406a12.044,12.044,0,0,0,7.974-2.734,18.566,18.566,0,0,0,5.161-7.118,31.58,31.58,0,0,0,2.349-9.7,39.261,39.261,0,0,0-.471-10.48q-.786-2.967-1.8-5.943a25.5,25.5,0,0,0-2.73-5.628q-1.728,2.5-3.523,5t-3.83,5.318a33.755,33.755,0,0,1,2.191,3.677,24.261,24.261,0,0,1,1.721,4.223,17.51,17.51,0,0,1,.7,4.143,5.691,5.691,0,0,1-.86,3.441q-3.916,2.659-7.278,2.188a9.037,9.037,0,0,1-5.551-2.812,13.128,13.128,0,0,1-3.052-6.257,17.437,17.437,0,0,1,.4-8.446c-.1-.314-.4-.288-.861.079s-.964.782-1.488,1.249-.995.861-1.406,1.175-.681.31-.786,0a21.648,21.648,0,0,0-1.952,5.943,44.963,44.963,0,0,1-1.952,6.96,16.739,16.739,0,0,1-3.681,5.864q-2.422,2.5-6.956,2.5-4.074.156-5.865-2.345a12.649,12.649,0,0,1-2.191-6.179,25.151,25.151,0,0,1,.471-7.821,42.78,42.78,0,0,1,2.109-7.27c0-.315-.262-.288-.778.074s-1.122.812-1.8,1.332-1.279.991-1.8,1.406-.785.471-.785.157a19.563,19.563,0,0,0-2.192,4.926,42.89,42.89,0,0,0-1.638,7.432,44.287,44.287,0,0,0-.314,8.366A21.422,21.422,0,0,0-1177.546,2144.912Zm196.37,209.094a26.025,26.025,0,0,0-7.824-5.24,23.7,23.7,0,0,0-9.62-1.956,23.853,23.853,0,0,0-9.537,1.956,25.827,25.827,0,0,0-7.9,5.24,24.091,24.091,0,0,0-5.318,7.817,24.265,24.265,0,0,0-1.953,9.7,23.885,23.885,0,0,0,1.953,9.541,26.029,26.029,0,0,0,5.318,7.977,24.6,24.6,0,0,0,7.9,5.393,23.783,23.783,0,0,0,9.537,1.956,23.635,23.635,0,0,0,9.62-1.956,24.778,24.778,0,0,0,7.824-5.393,26.3,26.3,0,0,0,5.318-7.977,23.886,23.886,0,0,0,1.953-9.541,24.266,24.266,0,0,0-1.953-9.7A24.327,24.327,0,0,0-981.176,2354.006Zm53.02,0a25.839,25.839,0,0,0-7.9-5.24,24.3,24.3,0,0,0-9.7-1.956,23.858,23.858,0,0,0-9.538,1.956,25.81,25.81,0,0,0-7.9,5.24,24.077,24.077,0,0,0-5.319,7.817,24.264,24.264,0,0,0-1.952,9.7,23.884,23.884,0,0,0,1.952,9.541,26.013,26.013,0,0,0,5.319,7.977,24.587,24.587,0,0,0,7.9,5.393,23.787,23.787,0,0,0,9.538,1.956,24.233,24.233,0,0,0,9.7-1.956,24.614,24.614,0,0,0,7.9-5.393,26.316,26.316,0,0,0,5.318-7.977,23.884,23.884,0,0,0,1.952-9.541,24.264,24.264,0,0,0-1.952-9.7A24.341,24.341,0,0,0-928.156,2354.006Zm-11.654-25.339a30.26,30.26,0,0,0,11.654-9.384,43.48,43.48,0,0,0,7.188-15.249,60.238,60.238,0,0,0,1.489-20.566V2213.4h-23.93a23.877,23.877,0,0,0-9.462,2.737,24.244,24.244,0,0,0-7.2,6.022,31.149,31.149,0,0,0-4.922,8.759,49.384,49.384,0,0,0-2.663,10.948v41.6h-83.83V2213.4h-23.929a24.571,24.571,0,0,0-9.545,2.737,22.887,22.887,0,0,0-7.189,6.022,32.369,32.369,0,0,0-4.854,8.759,44.472,44.472,0,0,0-2.5,10.948v41.6h-25.021V2213.4H-1148.6q-10.794.629-16.815,8.6t-7.271,19.864v41.6h-24.872V2213.4h-24.078q-10.952.629-16.741,8.6t-7.346,19.864v41.6h-43.018V2213.4h-25.179q-25.648,5.946-24.864,37.692l-.157,80.39a36.7,36.7,0,0,1-6.1,14.938,83.834,83.834,0,0,1-11.8,13.685,179.762,179.762,0,0,1-15.17,12.746q-8.214,6.177-16.187,11.965h62.871a119.951,119.951,0,0,0,14.466-12.436,77.967,77.967,0,0,0,10.084-12.589,64.452,64.452,0,0,0,6.492-13.371,85.426,85.426,0,0,0,3.673-14.938h335.958A32.319,32.319,0,0,0-939.81,2328.667Z" fill="#366d26"/>
    <path id="Path_974" data-name="Path 974" d="M-1569.525,2469.951a5.124,5.124,0,0,1-1.476-3.716,5.258,5.258,0,0,1,1.476-3.755,4.911,4.911,0,0,1,3.641-1.551,5,5,0,0,1,3.712,1.551,5.164,5.164,0,0,1,1.48,3.755,5.2,5.2,0,0,1-1.48,3.716,4.983,4.983,0,0,1-3.712,1.551A4.823,4.823,0,0,1-1569.525,2469.951ZM-1553,2471.5a4.816,4.816,0,0,0,3.638-1.551,5.2,5.2,0,0,0,1.48-3.716,5.168,5.168,0,0,0-1.48-3.755,4.828,4.828,0,0,0-3.638-1.551,4.915,4.915,0,0,0-3.64,1.551,5.255,5.255,0,0,0-1.477,3.755,5.121,5.121,0,0,0,1.477,3.716A4.827,4.827,0,0,0-1553,2471.5Zm28.129,5.877h10.234v36.505h-43.555q-20.812,0-20.811-18.005,0-8.268,4.925-13.572,5.535-5.916,15.658-5.913a45.511,45.511,0,0,1,16.222,2.69v26.727h17.327Zm-27.258,8.491a17.193,17.193,0,0,0-7.393-1.4,8.412,8.412,0,0,0-6.782,2.956,11.144,11.144,0,0,0-2.465,7.507q0,10.878,11.676,10.88h4.964Zm26.613,34.308a5.237,5.237,0,0,0-3.791,1.551,5.245,5.245,0,0,0-1.555,3.791,5.2,5.2,0,0,0,1.555,3.83,5.241,5.241,0,0,0,3.791,1.555,5.1,5.1,0,0,0,3.79-1.591,5.1,5.1,0,0,0,1.594-3.794,5.1,5.1,0,0,0-1.594-3.791A5.153,5.153,0,0,0-1525.513,2520.178Zm56.8-60.009a5.236,5.236,0,0,0-3.79,1.555,5.231,5.231,0,0,0-1.555,3.791,5.192,5.192,0,0,0,1.555,3.826,5.211,5.211,0,0,0,3.79,1.519,5.236,5.236,0,0,0,3.791-1.555,5.236,5.236,0,0,0,1.555-3.79,5.231,5.231,0,0,0-1.555-3.791A5.236,5.236,0,0,0-1468.709,2460.169Zm-5.117,45.642H-1491.3v-46.665h-10.234v54.738h37.946v-36.505h-10.235Zm34.931,20.583q0-2.274,3.488-2.275a29.852,29.852,0,0,1,3.9.417l.91-5.307a17.918,17.918,0,0,0-4.586-.456q-5.2,0-8.152,2.314a6.286,6.286,0,0,0-2.614,5.153,3.454,3.454,0,0,0,1.287,2.921,20.062,20.062,0,0,0-4.093-.3v5.459h19.559v-5.459h-4.736Q-1438.895,2528.858-1438.9,2526.394Zm3.791-26.421-11.333-41.358-10.16,1.4,11.105,39.957Zm5.687,5.838h-23.995v8.073h34.23v-54.738h-10.235Zm51.835,0h-17.474v-46.665h-10.235v54.738h37.943v-36.505h-10.234Zm-.646,14.367a5.235,5.235,0,0,0-3.79,1.551,5.244,5.244,0,0,0-1.555,3.791,5.2,5.2,0,0,0,1.555,3.83,5.238,5.238,0,0,0,3.79,1.555,5.1,5.1,0,0,0,3.791-1.591,5.106,5.106,0,0,0,1.594-3.794,5.1,5.1,0,0,0-1.594-3.791A5.155,5.155,0,0,0-1378.228,2520.178Zm65.739-48.676a4.814,4.814,0,0,0,3.637-1.551,5.2,5.2,0,0,0,1.48-3.716,5.164,5.164,0,0,0-1.48-3.755,4.826,4.826,0,0,0-3.637-1.551,4.917,4.917,0,0,0-3.641,1.551,5.258,5.258,0,0,0-1.476,3.755,5.124,5.124,0,0,0,1.476,3.716A4.829,4.829,0,0,0-1312.489,2471.5Zm11.789,42.382h-16.981q-20.814,0-20.812-17.93,0-8.381,5.079-13.761,5.494-5.8,15.2-5.8,17.514,0,17.513,17.855Zm-10.009-18.386q0-11.03-8.3-11.03a8.415,8.415,0,0,0-6.783,2.956,11.143,11.143,0,0,0-2.464,7.507q0,10.878,11.675,10.88h5.874Zm-14.668-24a4.986,4.986,0,0,0,3.713-1.551,5.2,5.2,0,0,0,1.48-3.716,5.168,5.168,0,0,0-1.48-3.755,5,5,0,0,0-3.713-1.551,4.908,4.908,0,0,0-3.64,1.551,5.255,5.255,0,0,0-1.477,3.755,5.121,5.121,0,0,0,1.477,3.716A4.822,4.822,0,0,0-1325.377,2471.5Zm164.574-12.356h10.234v54.738h-24.98a28.27,28.27,0,0,1-16-4.814q-10.766,4.816-25.625,4.814h-23.315q-12.545,0-17.4-6.066c-1.44,3.714-5.046,5.7-10.766,6v.062h-7.621v.3q0,19.41-19.181,19.41a27.4,27.4,0,0,1-6.519-.76l.759-8.148a23.093,23.093,0,0,0,6.291.909q4.209,0,6.18-2.275,2.234-2.576,2.236-8.569v-37.375h10.234v28.432h4.893q4.547,0,6.708-2.236,2.39-2.465,2.389-8.341a18.228,18.228,0,0,1,5-13.116q5.535-5.725,15.163-5.724,17.552,0,17.551,17.855v11.562h8.035a59.1,59.1,0,0,0,18.083-2.39q-10.35-9.7-16.3-11.332l.834-7.318q11.94-8.6,22.441-8.6,8.19,0,12.549,3.83a11.363,11.363,0,0,1,3.826,8.908q0,8.264-7.92,14.9a19.664,19.664,0,0,0,8.641,2.012h13.572Zm-73.767,36.352q0-11.03-8.3-11.03a8.536,8.536,0,0,0-6.825,2.956,11.265,11.265,0,0,0-2.425,7.507q0,10.878,11.636,10.88h5.916Zm49.315-5.306a6.112,6.112,0,0,0-1.819-4.625,7.722,7.722,0,0,0-5.574-1.894q-4.811,0-11.789,4.661,3.036,1.212,14.368,10.73Q-1185.254,2495.269-1185.255,2490.192Zm48.656,23.692h10.234v-54.738H-1136.6Zm37.7-37.49a45.511,45.511,0,0,1,16.222,2.69v34.953q0,8.64-5.645,13.722-6.3,5.687-18.65,5.685a69.833,69.833,0,0,1-11.829-1.024l.646-8.376a56.507,56.507,0,0,0,12.092,1.326q13.455,0,13.455-10.309v-1.177h-6.063q-20.812,0-20.811-18.005,0-8.268,4.925-13.572Q-1109.024,2476.391-1098.9,2476.394Zm6.291,9.476a17.193,17.193,0,0,0-7.393-1.4,8.412,8.412,0,0,0-6.782,2.956,11.143,11.143,0,0,0-2.464,7.507q0,10.878,11.675,10.88h4.964Zm67.1,34.308a5.15,5.15,0,0,0-3.791,1.551,5.182,5.182,0,0,0-1.593,3.791,5.139,5.139,0,0,0,1.593,3.83,5.154,5.154,0,0,0,3.791,1.555,5.061,5.061,0,0,0,3.751-1.591,5.1,5.1,0,0,0,1.595-3.794,5.1,5.1,0,0,0-1.595-3.791A5.112,5.112,0,0,0-1025.509,2520.178Zm96.058-61.032v46.665h-16.226v-46.665h-10.234v46.665h-14.478a62.6,62.6,0,0,0,.3-6.294q0-11.412-5.649-16.868-5.877-5.724-18.725-5.723a76.621,76.621,0,0,0-9.931.717v8a64.241,64.241,0,0,1,8.908-.643q8.184,0,11.825,3.752,3.413,3.564,3.412,11.144a49.3,49.3,0,0,1-.378,5.916h-34.2a62.576,62.576,0,0,0,.3-6.294q0-11.412-5.61-16.868-5.877-5.724-18.689-5.723a74.272,74.272,0,0,0-9.932.717v8a62.924,62.924,0,0,1,8.948-.643q8.11,0,11.714,3.752,3.413,3.564,3.412,11.144a48.713,48.713,0,0,1-.381,5.916h-5.267q-12.7,0-19.221,4.964a14.529,14.529,0,0,0-5.951,12.284,13.383,13.383,0,0,0,5.459,11.219q5.912,4.434,16.906,4.436l.682-8.073q-6.366,0-9.817-2.5a6.805,6.805,0,0,1-3.071-5.723q0-8.532,14.671-8.53h111.448v-54.738Z" fill="#366d26"/>
  </g>
</svg>
