<svg xmlns="http://www.w3.org/2000/svg" viewBox="0 0 741.97 1165.984">
  <g id="Group_11" data-name="Group 11" transform="translate(-1046.31 -3253)">
    <path id="Path_597" data-name="Path 597" d="M1696.678,3868.152v.192c-3.359,108.527-32.968,316.019-52.956,473.891-1.409,10.849-2.686,21.481-3.974,31.776-98.039,51.849-203.266,55.124-305.146,28.814-41.048-10.584-81.554-26-120.845-44.949-7.778-62.518-17.387-133.97-26.37-204.506q-2.583-20.645-5.177-41.157c-3.552-29.031-6.984-57.544-10.067-84.914l-.289-2.842c-12.209-109.923-18.555-199.87-7.79-223.4l1.372-2.758,1.674-2.866,1.192-1.962.674-1.12.1-.036c31.4-47.165,137.425-91.537,181.845-108.539,12.245-4.7,19.819-7.309,19.819-7.309l57.027-22.408,57.027,22.408s7.562,2.613,19.819,7.309c16.991,6.454,42.987,17,70.369,30.127,11.222,5.406,22.709,11.271,33.884,17.424,3.756,2.01,7.441,4.142,11.077,6.321,15.666,9.139,30.392,18.953,42.554,29.116l2.48,2.131,2.757,2.408,2.24,2.059,1.349,1.288,1.9,1.9.337.3.807.795c1.866,1.878,3.636,3.793,5.274,5.7a84.51,84.51,0,0,1,6.815,8.838l1.855,2.963a46.946,46.946,0,0,1,3.166,5.912l.314.782C1696.341,3812.678,1697.653,3836.11,1696.678,3868.152Z" fill="#e8936b"/>
    <path id="Path_598" data-name="Path 598" d="M1659.736,4338.971q-1.824,12.951-3.781,25.961c-5.394,3.2-10.8,6.2-16.207,9.079-98.039,51.849-203.266,55.124-305.146,28.814-41.048-10.584-81.554-26-120.845-44.949-2.167-1.06-4.395-2.131-6.526-3.2l-.132-.686c-.47-2.457-.964-4.925-1.385-7.394q-1.462-7.675-2.793-15.388l-.1-.422c-.975-5.539-1.9-11.029-2.769-16.556l-.362-2.264c-.867-5.467-1.734-10.97-2.54-16.448-.867-5.948-1.7-11.848-2.517-17.749l-.132-.855c-.759-5.623-1.53-11.21-2.2-16.785-.506-3.853-.963-7.658-1.385-11.451-2-16.569-3.72-32.812-5.274-48.682l-.132-1.481c-.771-7.851-1.481-15.533-2.119-23.167l-.133-1.59c-.421-4.84-.783-9.6-1.216-14.3l-.3-3.624c-.168-2-.349-3.962-.482-5.912-.24-3.227-.457-6.382-.7-9.573-.734-8.814-1.288-17.387-1.9-25.635-2.589-36.678-4.4-67.154-6.515-87.407l-.289-2.842c8.923-4.334,17.833-8.657,26.671-13.1,2.445-1.252,4.853-2.481,7.273-3.709h.048c68.815-34.883,135.258-74.258,196.969-121.3L1405.8,3884q10.1-7.7,19.916-15.7l3.781-3.167c5.431-4.443,10.765-8.982,16.075-13.546a939.959,939.959,0,0,0,108.093-110.513q10.982-13.239,21.313-27.165c11.222,5.406,22.709,11.271,33.884,17.424,3.7,2.059,7.441,4.2,11.077,6.321,15.666,9.139,30.392,18.953,42.554,29.116l2.48,2.131,2.757,2.408,2.24,2.059,1.349,1.288,1.9,1.9.337.3.807.795c1.89,1.878,3.661,3.793,5.274,5.7a84.51,84.51,0,0,1,6.815,8.838l1.855,2.963a46.946,46.946,0,0,1,3.166,5.912l.314.782c2.877,7.622,4.671,31.066,4.888,66.311v.192C1697.365,3963.951,1687.057,4146.651,1659.736,4338.971Z" fill="#fff"/>
    <path id="Path_599" data-name="Path 599" d="M1612.7,4385.125c-49.742-11.331-99.773-11.873-152.778-8.911-39.687,2.24-85.938,11.957-125.324,26.611-41.048-10.584-81.554-26-120.845-44.949-2.167-1.06-4.395-2.131-6.526-3.2l-.132-.686c-.47-2.457-.964-4.925-1.385-7.394q-1.462-7.675-2.793-15.388l-.1-.422c-.975-5.539-1.9-11.029-2.769-16.556l-.362-2.264c-.867-5.467-1.734-10.97-2.54-16.448-.867-5.948-1.7-11.848-2.517-17.749l-.132-.855c-.759-5.623-1.53-11.21-2.2-16.785-.506-3.853-.963-7.658-1.385-11.451-2.046-16.569-3.768-32.812-5.274-48.682l-.132-1.481c-.771-7.851-1.481-15.533-2.119-23.167l-.133-1.59c-.421-4.84-.783-9.6-1.216-14.3l-.3-3.624c-.168-2-.349-3.962-.482-5.912-.24-3.227-.457-6.382-.7-9.573-.734-8.814-1.288-17.387-1.9-25.635l3.552-2.493c44.118-30.994,94.968-54.173,139.785-82.867,34.329-21.975,62.541-74.619,105.528-75.257l.47-.048h.024c18.736-.144,37.893,12.27,54.655,27.008,3.865,3.384,7.61,6.888,11.162,10.392,5.2,5.069,10.006,10.1,14.4,14.75l3.179,3.372a122.858,122.858,0,0,1,10.56,13.088c10.126,14.546,19.061,34.293,7.152,46.5-6.719,6.936-18.784,6.55-28.79,5.069-3-.481-5.828-1.023-8.285-1.541l-2.576-.542c-1.529-.265-3.035-.674-4.516-1.047a158.927,158.927,0,0,1-46.394-20.229c-26.238-16.629-45.66-1.734-67.828,15.93-39.482,31.439-73.836,69.85-105.408,109.044-15.087,18.724-28.645,38.267-35.2,61.675-6.791,24.359.169,47.068,6.551,70.489,8.188,30.09,22.348,56.93,55.81,60.735,18.459,2.107,38.122-2.095,56.329-5.069,30.2-4.961,63.275-10.139,93.872-11.68C1506.2,4348.7,1559.626,4356.238,1612.7,4385.125Z" fill="#ededee"/>
    <path id="Path_600" data-name="Path 600" d="M1358.877,3560.923l-8.682,134.162c0,28.911,34.727,76.629,77.557,76.629s77.569-47.718,77.569-76.629l-8.658-134.162Z" fill="#e8936b"/>
    <path id="Path_601" data-name="Path 601" d="M1419.4,3626.727c16.834,4.516,34.51,7.068,51.97,5.925,8.922-.59,21.469-2.842,29.6-5.708l-4.3-66.021H1358.877l-1.674,25.912C1373.531,3605.391,1395.024,3620.213,1419.4,3626.727Z" fill="#1f0000"/>
    <path id="Path_602" data-name="Path 602" d="M1536.375,3443.811c.686-4.5,2.083-8.754,6.009-11.969a14.732,14.732,0,0,1,19.181.217c12.185,10.789,9.259,37.195,4.082,50.416-4.636,11.848-25.178,29.284-35.943,13.811l-.506-1.626c1.3-8.8,2.637-17.616,3.926-26.418.867-6,1.866-11.957,2.492-17.989C1535.857,3448.073,1536.014,3445.93,1536.375,3443.811Z" fill="#e8936b"/>
    <path id="Path_603" data-name="Path 603" d="M1319.165,3443.811c-.71-4.5-2.1-8.754-6.02-11.969a14.733,14.733,0,0,0-19.182.217c-12.173,10.789-9.271,37.195-4.082,50.416,4.636,11.848,25.166,29.284,35.943,13.811l.53-1.626c-1.325-8.8-2.661-17.616-3.938-26.418-.855-6-1.866-11.957-2.5-17.989C1319.695,3448.073,1319.515,3445.93,1319.165,3443.811Z" fill="#e8936b"/>
    <path id="Path_604" data-name="Path 604" d="M1427.764,3280.425a116.629,116.629,0,0,0-116.642,116.654v96.835a116.66,116.66,0,1,0,233.32,0v-96.835A116.667,116.667,0,0,0,1427.764,3280.425Z" fill="#e8936b"/>
    <path id="Path_605" data-name="Path 605" d="M1311.086,3465.376s19.049-16.616,17.712-95.485l-17.712-21.614S1295.228,3395.068,1311.086,3465.376Z" fill="#eaebec"/>
    <path id="Path_606" data-name="Path 606" d="M1544.442,3465.376s-19.049-16.616-17.712-95.485l17.712-21.614S1560.276,3395.068,1544.442,3465.376Z" fill="#eaebec"/>
    <path id="Path_607" data-name="Path 607" d="M1328.8,3369.891s5.78-35.125,58.7-35.125h92.885s36.749,2.18,47.55,38.917l16.508-25.406s-5.984-54.173-32.98-59.58c0,0-21.1-43.143-113.764-34.57-58.364,5.419-61.579,36.713-61.579,36.713s-23.42,5.058-29.814,79.953Z" fill="#eaebec"/>
    <path id="Path_608" data-name="Path 608" d="M1505.333,3343.364s-31.861,23.312-110.381,44.2v-11.524a90.959,90.959,0,0,1-36,16.376c-21.614,4.492-41.782,20.278-42.505,38.676l9.91-111.031,164.4-26.864Z" fill="#eaebec"/>
    <path id="Path_609" data-name="Path 609" d="M1531.619,3489.338c-3.829,9.621-12.523,15.052-22.024,17.809-11.559,3.287-24.925.53-36.219-2.324a176.437,176.437,0,0,0-91.212,0c-11.33,2.854-24.672,5.611-36.207,2.324-9.513-2.757-18.219-8.188-22.047-17.809a384.727,384.727,0,0,1-12.812-37.219v41.8a116.642,116.642,0,0,0,116.654,116.666h.012a116.67,116.67,0,0,0,116.678-116.666v-41.8A388.347,388.347,0,0,1,1531.619,3489.338Z" fill="#eaebec"/>
    <path id="Path_610" data-name="Path 610" d="M1673.571,3776.856c-120.146-110.887-80.061,199.5-80.061,199.5s-45.853-4.021-92.548-12.547c-13.9-2.54-35.955,365.207,76.7,379.283,87.7,10.946,140.52-26.683,167.179-45.924C1845.735,4224.352,1749.3,3846.755,1673.571,3776.856Z" fill="#fff"/>
    <path id="Path_611" data-name="Path 611" d="M1423.73,3893.053c.53-15.124,2.926-30.127,3.661-45.239a249.074,249.074,0,0,0,.072-26.478c-.361-6.406-2.276-14.413-6.31-19.434-8.1-10.007-7.236,3.877-7.525,7.8-2.42,30.645-4.841,61.422-10.849,91.043-2.987,14.642-5.623,34.618-15.389,46.358-14.69,17.7-49.079,35.425-167.13,80.11-11.957,4.527-32.632,15-32.632,15s124.288-329.2-18.6-249.841c0,0-106.516,174.777-121.351,288.06-14.81,113.258,89.972,160.712,364.424-87.286l-.276.1a40.835,40.835,0,0,0,6.755-7.333c9.982-14.389,9.693-33.113,8.224-49.814C1425.524,3921.759,1423.213,3907.5,1423.73,3893.053Z" fill="#e8936b"/>
    <path id="Path_612" data-name="Path 612" d="M1218.044,3932.451c-6.683,39.387-13.582,72.668-32.631,107.852-2.349,4.311,4.226,8.152,6.562,3.83,19.4-35.8,26.575-69.466,33.4-109.659C1226.184,3929.682,1218.863,3927.623,1218.044,3932.451Z" fill="#1a5082"/>
    <path id="Path_613" data-name="Path 613" d="M1494.8,4033.284s21.265-4.853,34.715-15.678c13.486-10.8,20.132-16.256,34.81-14.064,0,0-5.478,47.033-5.984,69.682l-56.208,8.116S1492.329,4044.06,1494.8,4033.284Z" fill="#e8936b"/>
    <path id="Path_614" data-name="Path 614" d="M1511.45,3966.841c-15.052-3.938-29.332-8.923-39.652-21.217-10.584-12.595-15.8-29.055-19.013-44.877-6.032-29.621-8.464-60.4-10.861-91.043-.313-3.925.566-17.809-7.513-7.8-4.07,5.021-5.973,13.028-6.31,19.434a252.576,252.576,0,0,0,.036,26.478c.735,15.112,3.119,30.115,3.649,45.239.53,14.449-1.818,28.706-3.071,43.047-1.445,16.7-1.721,35.425,8.236,49.814,11.837,17.05,34.269,21.6,53.463,24.419,5.936.891,11.848,1.6,17.8,2.3l-.386-1.24Z" fill="#e8936b"/>
    <path id="Path_615" data-name="Path 615" d="M1581.288,3962.048c-14.172-5.719-73.679-17.832-100.471-8.055.939,10.548,2.107,27.116,2.2,37.737.168,19.049.409,38.038,1.156,57.074,1.168,29.188,1.866,58.34,1.36,87.588-.578,32.631-2.348,65.66,2.637,98.05,4.853,31.187,16.725,62.4,38.845,84.758,7.694,7.79,16.617,14.377,26.647,18.423,7.718,3.13,15.822,4.419,24,5.466Z" fill="#ededee"/>
    <path id="Path_616" data-name="Path 616" d="M1581.288,3963.963c48.6,5.406,76.425,33.848,91.97,79.267,1.578,4.611,8.923,2.624,7.333-2.035-16.761-48.96-47-79.026-99.3-84.818C1576.412,3955.823,1576.46,3963.433,1581.288,3963.963Z" fill="#1a5082"/>
  </g>
</svg>
