<svg xmlns="http://www.w3.org/2000/svg" width="1295.389" height="1095.66" viewBox="0 0 1295.389 1095.66">
  <g id="Group_140" data-name="Group 140" transform="translate(1072.107 -3603)">
    <path id="Path_975" data-name="Path 975" d="M37.05,4085.03c-120.895-15.809-231.268,47.274-252.289-120.891-15.771-115.614,26.283-220.705-84.078-310.059-94.586-73.578-217.033-60.777-310.059-5.262-425.632,253.989-568.143,666.477-383.649,835.609,69.7,60.165,131.716,51.645,196.486,34.212,1.341-.382,2.708-.745,4.027-1.126a25.4,25.4,0,0,1,11.375-25.437c64.614-43.683,158.519-36.593,216.42,15.127a24.407,24.407,0,0,1,7.573,11.719c1.477.994,2.991,1.979,4.459,3.017l.969.719a251.861,251.861,0,0,1,24.269,20c17.806,16.528,34.016,35.256,50.718,53.76l.381.46c18.487,20.483,37.561,40.662,59.99,57.259a200.551,200.551,0,0,0,43.479,24.747c5.939,2.581,12.014,4.89,18.178,6.972a253.144,253.144,0,0,0,66.328,12.336,301.377,301.377,0,0,0,34.528-.068c41.246-2.267,84.226-12.276,126.69-28.229a610.821,610.821,0,0,0,102.29-50.112c7.077-4.242,14.036-8.7,20.94-13.24H-3.9q8.56-5.578,16.951-11.532c9.239-6.446,18.271-13.144,27.137-20h.042q18.865-14.689,36.457-30.492,11.136-9.932,21.676-20.349v-.017c41.039-40.361,74.547-84.552,96.134-128.813v-.051a276.209,276.209,0,0,0,21.2-58C247.247,4205.892,178.936,4100.784,37.05,4085.03Z" transform="translate(0 0.001)" fill="#83d4f6"/>
    <path id="Path_976" data-name="Path 976" d="M-719.572,3720.524A115.154,115.154,0,0,1-834.735,3835.7a115.155,115.155,0,0,1-115.141-115.175,115.147,115.147,0,0,1,115.141-115.142A115.147,115.147,0,0,1-719.572,3720.524Z" transform="translate(394.848 7.699)" fill="#fdd789"/>
    <path id="Path_977" data-name="Path 977" d="M-797.949,3768.7a25.607,25.607,0,0,0-16.481,6,25.635,25.635,0,0,0-24.21-17.158,25.179,25.179,0,0,0-5.677.656,25.679,25.679,0,0,0-25.568-23.5,25.436,25.436,0,0,0-14.129,4.281,45.14,45.14,0,0,0-45-41.842,45.137,45.137,0,0,0-41.513,27.408,18.216,18.216,0,0,0-3.621-.372,18.075,18.075,0,0,0-16.63,10.965,34.6,34.6,0,0,0-11.65-2.03,34.221,34.221,0,0,0-34.228,34.22,33.775,33.775,0,0,0,1.383,9.594,18.059,18.059,0,0,0-11.316,9.273h272.937A25.639,25.639,0,0,0-797.949,3768.7Z" transform="translate(82.422 304.086)" fill="#f1f1f2"/>
    <path id="Path_978" data-name="Path 978" d="M-607.343,3730.744a16.77,16.77,0,0,0-5.542.921l.009-.921a56.292,56.292,0,0,0-56.289-56.3,56.008,56.008,0,0,0-33.34,10.939,44.056,44.056,0,0,0-43.551-37.6,44.051,44.051,0,0,0-44.025,42.574,24.512,24.512,0,0,0-8.038-1.366,24.552,24.552,0,0,0-22.1,13.884,16.746,16.746,0,0,0-12.958-6.105,16.791,16.791,0,0,0-13.672,7.069,49.876,49.876,0,0,0-47.418-34.363,49.856,49.856,0,0,0-48.954,40.442l-2.2-.131a20.586,20.586,0,0,0-20.576,20.589,21.17,21.17,0,0,0,.77,5.644l-.77-.043a15,15,0,0,0-14.946,13.74h391.12l.072-1.374A17.6,17.6,0,0,0-607.343,3730.744Z" transform="translate(294.51 144.653)" fill="#f1f1f2"/>
    <path id="Path_979" data-name="Path 979" d="M-664.136,4015.343h-140.9c-16.7-18.5-32.912-37.231-50.718-53.76a250.087,250.087,0,0,0-25.238-20.724c-24.574-17.527-53.078-29.766-89.489-32.032l15.817-125.946h278.551l1.214,23.754,3.135,60.95,6.1,118.026Z" transform="translate(328.302 581.082)" fill="#babcbc"/>
    <path id="Path_980" data-name="Path 980" d="M-888.892,4015.324h133.465l-29.2-232.436H-900.888Z" transform="translate(553.094 581.102)" fill="#cacccc"/>
    <path id="Path_981" data-name="Path 981" d="M-966.737,3903.913S-813.81,3837.18-755.4,3745.424c0,0,93.114,120.941,183.483,158.489Z" transform="translate(340.381 460.079)" fill="#d9dad9"/>
    <path id="Path_982" data-name="Path 982" d="M-966.737,3903.913S-813.81,3837.18-755.4,3745.424c0,0-17.069,81.616,67.229,158.489Z" transform="translate(340.381 460.079)" fill="#cacccc"/>
    <path id="Path_983" data-name="Path 983" d="M-825.606,3909.671c-8.291,38.56-37.51,53.163-37.51,53.163h-10.25c-16.7-18.5-32.912-37.231-50.718-53.76a250.087,250.087,0,0,0-25.238-20.724c14.2-15.645,29.828-42.634,42.422-89.215,12.814,47.479,28.821,74.624,43.23,90.106C-843,3911.469-825.606,3909.671-825.606,3909.671Z" transform="translate(396.637 633.591)" fill="#d9dad9"/>
    <path id="Path_984" data-name="Path 984" d="M-882.388,3962.834h-10.25c-16.7-18.5-32.912-37.231-50.718-53.76a490.092,490.092,0,0,0,17.184-109.938s.9,107.709,35.218,154.061v.038A59.83,59.83,0,0,0-882.388,3962.834Z" transform="translate(415.909 633.591)" fill="#4f494a"/>
    <path id="Path_985" data-name="Path 985" d="M-523.745,3815.454v.051c-21.587,44.262-55.1,88.452-96.134,128.813v.017q-10.54,10.387-21.676,20.349-17.584,15.812-36.457,30.492h-.042c-8.867,6.861-17.9,13.559-27.137,20q-8.376,5.965-16.951,11.532h-.025c-6.9,4.539-13.863,9-20.94,13.24H-849.764l.905-17.251v-.067l7.945-153.8,3.968-77.513v-.018l.465-8.807h308.6Z" transform="translate(718.243 579.835)" fill="#babcbc"/>
    <path id="Path_986" data-name="Path 986" d="M-736.88,4039.966H-884.709l32.342-257.475h128.78Z" transform="translate(605.358 579.823)" fill="#cacccc"/>
    <path id="Path_987" data-name="Path 987" d="M-439.693,3916.554s-169.421-73.912-234.1-175.562c0,0-103.17,133.992-203.272,175.563Z" transform="translate(630.055 445.758)" fill="#d9dad9"/>
    <path id="Path_988" data-name="Path 988" d="M-538.031,3916.554s-169.421-73.912-234.1-175.562c0,0,18.9,90.389-74.492,175.563Z" transform="translate(728.393 445.758)" fill="#cacccc"/>
    <path id="Path_989" data-name="Path 989" d="M-698.673,3886.192v.017q-10.54,10.387-21.676,20.349-17.584,15.812-36.457,30.492h-.042c-8.867,6.861-17.9,13.559-27.137,20q-8.376,5.965-16.951,11.532h-.025a91.749,91.749,0,0,1-24.409-45.671s15.428,1.616,35.125-15.729c17.623-15.5,38.593-46.17,54.969-106.7C-724.36,3840.928-711.377,3868.036-698.673,3886.192Z" transform="translate(797.038 637.96)" fill="#d9dad9"/>
    <path id="Path_990" data-name="Path 990" d="M-772.707,3906.558q-17.584,15.812-36.457,30.492c20.881-57.183,21.528-136.56,21.528-136.56A543.743,543.743,0,0,0-772.707,3906.558Z" transform="translate(849.395 637.96)" fill="#4f494a"/>
    <path id="Path_991" data-name="Path 991" d="M-582.083,4024.138c-42.464,15.953-85.445,25.963-126.69,28.229a301.377,301.377,0,0,1-34.528.068,253.144,253.144,0,0,1-66.328-12.336c-6.164-2.082-12.238-4.391-18.178-6.972a200.551,200.551,0,0,1-43.479-24.747c-22.429-16.6-41.5-36.775-59.99-57.259l.084-.46,1.219-9.6v-.038l8.012-63.954,9.307-74.166H-593.5l7.958,153.8v.067l.875,17.251Z" transform="translate(454.929 645.763)" fill="#babcbc"/>
    <path id="Path_992" data-name="Path 992" d="M-699.807,3949.253q-8.376,5.965-16.951,11.532h-.025c-6.9,4.539-13.863,9-20.94,13.24a610.821,610.821,0,0,1-102.29,50.112l-2.585-50.112-.875-17.251v-.067l-7.958-153.8h133.256l12.108,96.481Z" transform="translate(712.858 645.763)" fill="#cacccc"/>
    <path id="Path_993" data-name="Path 993" d="M-926.875,3941.585s175.22-76.455,242.136-181.608c0,0,106.715,138.606,210.273,181.608Z" transform="translate(469.148 507.091)" fill="#d9dad9"/>
    <path id="Path_994" data-name="Path 994" d="M-926.875,3941.585s175.22-76.455,242.136-181.608c0,0-19.552,93.528,77.043,181.608Z" transform="translate(469.148 507.091)" fill="#cacccc"/>
    <path id="Path_995" data-name="Path 995" d="M-732.277,3948.188a94.9,94.9,0,0,1-22.307,44.021,301.377,301.377,0,0,1-34.528.068,253.144,253.144,0,0,1-66.328-12.336c-6.164-2.082-12.238-4.391-18.178-6.972a200.551,200.551,0,0,1-43.479-24.747c7.086-.127,37.363-4.079,65.676-57.719a277.421,277.421,0,0,0,13.33-29.731,411.053,411.053,0,0,0,12.644-39.244c7.856,29.159,16.816,51.673,25.962,68.976C-767.135,3951.809-732.277,3948.188-732.277,3948.188Z" transform="translate(500.738 705.922)" fill="#d9dad9"/>
    <path id="Path_996" data-name="Path 996" d="M-836.193,3992.276a253.144,253.144,0,0,1-66.328-12.336A521.9,521.9,0,0,0-879.66,3890.5a579.812,579.812,0,0,0,7.132-68.976,591.556,591.556,0,0,0,5.5,68.976C-862.185,3925.268-853.17,3965.553-836.193,3992.276Z" transform="translate(547.82 705.922)" fill="#4f494a"/>
    <path id="Path_997" data-name="Path 997" d="M-729.929,3831.313c-.821,28.3-5.115,69.472-10.508,113.975-2.636,22.057-5.567,44.847-8.516,67.292v.043l-.275,2.153c-1.261,9.8-2.551,19.535-3.752,29.049-4.459,34.113-8.528,65.98-11.227,91.2a165.443,165.443,0,0,0-71.285-20.529c-6.346-.369-12.94-.482-19.786-.208-35.065,1.5-67.88,10.09-99.688,19.1-7.525,2.124-14.958,4.276-22.349,6.367-3.8-36.939-10.995-89.963-17.856-143.422l-.042-.309c-1.041-7.83-2.035-15.678-3.021-23.474-2.382-19.084-4.691-37.934-6.73-55.781l-.182-1.739c-6.146-55.3-9.561-101.244-5.047-116.448l.157-.508.672-1.756c12.082-26.389,73.337-52.058,98.047-61.514,6.421-2.479,10.39-3.854,10.39-3.854l29.887-11.734,29.956,11.734s3.959,1.375,10.381,3.854c8.917,3.381,22.548,8.905,36.914,15.81,3.215,1.506,6.422,3.088,9.636,4.789l1.079.562c1.244.64,2.509,1.32,3.752,1.964,1.908,1.045,3.8,2.072,5.669,3.126,2.212,1.243,4.391,2.543,6.553,3.82,2.162,1.3,4.26,2.656,6.29,3.993l.6.372c1.27.83,2.492,1.692,3.672,2.509l.546.368c1.21.867,2.361,1.705,3.5,2.575,1.312,1,2.61,1.964,3.82,3l1.789,1.521a55.478,55.478,0,0,1,4.984,4.59l1.024,1.029a42.356,42.356,0,0,1,8.207,11.484l.313.729.025.024v.068l.034.076C-730.077,3803.051-729.435,3815.052-729.929,3831.313Z" transform="translate(193.32 375.412)" fill="#e8936b"/>
    <path id="Path_998" data-name="Path 998" d="M-739.914,3918.389c-.288,3.71-.562,7.5-.893,11.325-.55,6.679-1.1,13.49-1.726,20.394q-1.339,14.563-2.885,29.727v.043l-.055.042-.207,2.106c-.156,1.522-.317,3.113-.5,4.645-.33,3.135-.7,6.231-1.049,9.392-.664,6.312-1.426,12.637-2.213,19.059-2.331,19.121-4.975,38.644-7.94,58.229,2.72,16.376,5.047,33.086,7.018,49.923l-.969-.719a181.433,181.433,0,0,0-18.2-11.5,165.443,165.443,0,0,0-71.285-20.529c-6.346-.369-12.94-.482-19.786-.208-35.065,1.5-67.88,10.09-99.688,19.1-7.525,2.124-14.958,4.276-22.349,6.367-4.184,1.167-8.384,2.318-12.543,3.478,1.87-13.969,3.994-27.624,6.371-40.832-.77-3.553-1.531-7.128-2.238-10.715-.423-1.963-.829-3.926-1.176-5.94-.482-2.237-.854-4.509-1.3-6.8-.622-3.325-1.172-6.671-1.717-9.945-.406-2.369-.787-4.755-1.142-7.081-3.541-22.729-6.024-45.219-7.9-65.909v-.263c-.512-5.909-1.011-11.676-1.451-17.251-.14-1.718-.262-3.414-.406-5.081-1.79-23.749-2.9-43.69-4.15-56.644l-.182-1.739-.139-1.5,2.542-1.261c1.316-.589,2.678-1.269,4.019-1.937,9.561-4.642,19.049-9.522,28.4-14.535q5.134-2.722,10.233-5.593a620.02,620.02,0,0,0,75.943-49.119,485.417,485.417,0,0,0,79.188-76.255c3.845-4.624,7.572-9.379,11.168-14.219,3.215,1.548,6.422,3.13,9.636,4.789l1.079.562c1.244.64,2.509,1.32,3.752,1.964,1.908,1.045,3.8,2.072,5.669,3.126,2.212,1.243,4.391,2.543,6.553,3.82,2.162,1.3,4.26,2.656,6.29,3.993l.6.372c1.27.83,2.492,1.692,3.672,2.509l.546.368c1.21.867,2.361,1.705,3.5,2.575,1.312,1,2.61,1.964,3.82,3l1.789,1.521a55.478,55.478,0,0,1,4.984,4.59l1.024,1.029A42.356,42.356,0,0,1-738,3772.34l.313.729.025.093.034.076c1.392,4.471,2.25,16.43,2.369,34.1C-735.049,3833.646-736.44,3872.65-739.914,3918.389Z" transform="translate(198.646 399.387)" fill="#f1f1f2"/>
    <path id="Path_999" data-name="Path 999" d="M-743.328,3771.964c-.288,3.71-.562,7.5-.893,11.325-.55,6.679-1.1,13.49-1.726,20.394q-1.339,14.563-2.885,29.727v.043l-.262,2.148c-.156,1.522-.317,3.113-.5,4.645-.33,3.135-.7,6.231-1.049,9.392-.664,6.312-1.426,12.637-2.213,19.059-2.894,1.637-5.876,3.205-8.867,4.729-14.849,7.581-30.691,13.508-46.974,16.354-26.812,4.666-53.378-.113-80.207-.858-16.93-.49-31.833,4.082-43.907,16.215-15.753,15.885-24.984,36.145-30.9,57.85-7.525,2.124-14.958,4.276-22.349,6.367-4.184,1.167-8.384,2.318-12.543,3.478,1.87-13.969,3.994-27.624,6.371-40.832-.77-3.553-1.531-7.128-2.238-10.715-.423-1.963-.829-3.926-1.176-5.94-.482-2.237-.854-4.509-1.3-6.8-.622-3.325-1.172-6.671-1.717-9.945-.406-2.369-.787-4.755-1.142-7.081-3.541-22.729-6.024-45.219-7.9-65.909v-.263c-.512-5.909-1.011-11.676-1.451-17.251-.14-1.718-.262-3.414-.406-5.081l2.581-.862a200.12,200.12,0,0,1,39.752-8.8c14.121-1.765,26.749.042,39.351,4.149a133.873,133.873,0,0,1,15.014,5.787l.144.089.787.309c2.3,1.028,4.573,2.044,6.883,2.982,1.815.771,3.638,1.548,5.479,2.255a137.709,137.709,0,0,0,33.873,8.965,141.626,141.626,0,0,0,50.485-3.1c17.095-4.158,29.858-14.218,43.263-25.073a137.1,137.1,0,0,1,22.768-14.823C-747.228,3773.859-745.3,3772.9-743.328,3771.964Z" transform="translate(202.061 545.813)" fill="#e2e3e4"/>
    <path id="Path_1000" data-name="Path 1000" d="M-983.948,3707.657l-4.543,70.364c0,15.212,18.22,40.23,40.692,40.23s40.691-25.019,40.691-40.23l-4.547-70.364Z" transform="translate(270.105 338.082)" fill="#e8936b"/>
    <path id="Path_1001" data-name="Path 1001" d="M-955,3742.178a83.433,83.433,0,0,0,27.269,3.093,67.2,67.2,0,0,0,15.529-2.961l-2.263-34.652h-72.292l-.872,13.605C-979.066,3730.993-967.788,3738.764-955,3742.178Z" transform="translate(272.908 338.082)" fill="#1f0000"/>
    <path id="Path_1002" data-name="Path 1002" d="M-962.527,3699.323a9.462,9.462,0,0,1,3.165-6.295,7.7,7.7,0,0,1,10.068.132c6.388,5.643,4.865,19.488,2.149,26.439-2.428,6.206-13.22,15.356-18.867,7.233l-.283-.838c.7-4.623,1.4-9.222,2.056-13.866.469-3.144.985-6.257,1.324-9.447C-962.806,3701.562-962.691,3700.419-962.527,3699.323Z" transform="translate(341.805 284.983)" fill="#e8936b"/>
    <path id="Path_1003" data-name="Path 1003" d="M-978.834,3699.323a9.29,9.29,0,0,0-3.156-6.295,7.689,7.689,0,0,0-10.06.132c-6.371,5.643-4.848,19.488-2.128,26.439,2.42,6.206,13.19,15.356,18.833,7.233l.292-.838c-.689-4.623-1.388-9.222-2.082-13.866-.431-3.144-.969-6.257-1.277-9.447C-978.56,3701.562-978.627,3700.419-978.834,3699.323Z" transform="translate(244.148 284.983)" fill="#e8936b"/>
    <path id="Path_1004" data-name="Path 1004" d="M-932.108,3672.865a61.217,61.217,0,0,0-61.234,61.209v50.849a61.217,61.217,0,0,0,61.234,61.209,61.218,61.218,0,0,0,61.2-61.209v-50.849A61.218,61.218,0,0,0-932.108,3672.865Z" transform="translate(254.437 225.692)" fill="#e8936b"/>
    <path id="Path_1005" data-name="Path 1005" d="M-990.524,3742.7s10-8.714,9.3-50.078l-9.3-11.337S-998.836,3705.832-990.524,3742.7Z" transform="translate(251.607 252.898)" fill="#1f0000"/>
    <path id="Path_1006" data-name="Path 1006" d="M-957.273,3742.7s-10-8.714-9.3-50.078l9.3-11.337S-948.96,3705.832-957.273,3742.7Z" transform="translate(340.803 252.898)" fill="#1f0000"/>
    <path id="Path_1007" data-name="Path 1007" d="M-982.117,3730.8s3.008-18.436,30.8-18.436h48.729s19.265,1.125,24.929,20.415l8.685-13.316s-3.147-28.445-17.31-31.288c0,0-11.092-22.629-59.7-18.11-30.615,2.8-32.307,19.266-32.307,19.266s-12.281,2.631-15.652,41.956Z" transform="translate(252.503 214.722)" fill="#1f0000"/>
    <path id="Path_1008" data-name="Path 1008" d="M-893.593,3700.774s-16.718,12.213-57.9,23.17V3717.9a47.718,47.718,0,0,1-18.9,8.592c-11.325,2.36-21.913,10.639-22.281,20.276l5.182-58.244,86.24-14.069Z" transform="translate(256.589 230.834)" fill="#1f0000"/>
    <path id="Path_1009" data-name="Path 1009" d="M-982.952,3862.382c-12.835-4.463-10.995-47.105,2.348-71.464,24.866-45.307,26.655-1.493,26.655-1.493S-961.4,3869.848-982.952,3862.382Z" transform="translate(259.881 540.72)" fill="#c5c7c9"/>
    <path id="Path_1010" data-name="Path 1010" d="M-805.558,3745.841c-62.478-58.755-70.148,142.063-70.148,142.063s-36.021,2.229-60.523-2.271c-11.291-2.061-21-4.036-29.354-5.872.017,10.721-5.254,98.593-24.016,96.7,83.9,31.655,171.447,4.3,186.617-41.965C-766.723,3823.963-805.558,3745.841-805.558,3745.841Z" transform="translate(266.529 426.64)" fill="#f1f1f2"/>
    <path id="Path_1011" data-name="Path 1011" d="M-993.373,3746.462s-30.027,95.712-22.975,155.229c7.061,59.5,46.6,59.145,204.994-11.676,0,0,2.263,2.047-7.822-23.479,0,0-65,10.208-98.817,9.649-33.792-.571-39.228,1.691-39.228,1.691S-930.912,3687.689-993.373,3746.462Z" transform="translate(176.656 427.022)" fill="#e8936b"/>
    <path id="Path_1012" data-name="Path 1012" d="M-1004.752,3759.354c-7.332,7.062-6.007,23.018-4.425,31.885,3.638,20.233,15.619,21.155,29.68,16.688.922-7.251,3.367-27.849,4.51-51.081C-983.1,3757.082-998.643,3753.5-1004.752,3759.354Z" transform="translate(199.287 494.172)" fill="#e78968"/>
    <path id="Path_1014" data-name="Path 1014" d="M-970.4,3778.329s11.142-2.539,18.22-8.211c7.052-5.669,10.546-8.521,18.262-7.37,0,0-2.885,24.659-3.139,36.567l-29.5,4.269S-971.7,3783.993-970.4,3778.329Z" transform="translate(327.876 515.228)" fill="#e8936b"/>
    <path id="Path_1015" data-name="Path 1015" d="M-925.677,3805.335s-23.051-6.7-27.59-14.062c-4.54-7.4-11.892-21.832-25.877-28.918s-26.109-7.563-29.109-1.455c-.8,1.62-1.125,6.984,6.57,3.744,9.679-4.142,15.123,1.116,15.631,4.789s0,1.988-9.341,3.13c-9.319,1.139-16.266.55-13.3,13.6,2.961,13.026,1.172,14.688,14.079,12.181s16.765,5.905,17.958,9.188c0,0,19.879-1.714,30.822-.7Z" transform="translate(202.607 496.358)" fill="#e8936b"/>
    <path id="Path_1020" data-name="Path 1020" d="M-644.257,3795.721a28.976,28.976,0,0,0-18.66,6.8,29.015,29.015,0,0,0-27.379-19.438,28.976,28.976,0,0,0-6.459.753,29,29,0,0,0-28.91-26.57,28.927,28.927,0,0,0-16.008,4.813,51.1,51.1,0,0,0-50.934-47.354,51.127,51.127,0,0,0-46.982,31.021,20.341,20.341,0,0,0-4.112-.405,20.455,20.455,0,0,0-18.817,12.382,38.94,38.94,0,0,0-13.181-2.28,38.733,38.733,0,0,0-38.737,38.737,38.644,38.644,0,0,0,1.573,10.847,20.546,20.546,0,0,0-12.8,10.5h308.908A29.032,29.032,0,0,0-644.257,3795.721Z" transform="translate(473.064 360.918)" fill="#f1f1f2"/>
  </g>
</svg>
