<svg xmlns="http://www.w3.org/2000/svg" xmlns:xlink="http://www.w3.org/1999/xlink" width="1685.736" height="1803.49" viewBox="0 0 1685.736 1803.49">
  <defs>
    <linearGradient id="linear-gradient" x1="0.328" y1="1.053" x2="1.528" y2="1.053" gradientUnits="objectBoundingBox">
      <stop offset="0.001" stop-color="#00adfa"/>
      <stop offset="0.502" stop-color="#05f"/>
      <stop offset="1" stop-color="#00059e"/>
    </linearGradient>
  </defs>
  <path id="Path_9" data-name="Path 9" d="M747.446,862.821c-29.519,38.376-63.92,70.383-96.123,100.211-94.48,87.439-170.191,156.129-49.011,311.938,110.257,145.071,272.8,214.71,249.578,435.3C828.721,1895.985,679.344,2017.052,515.3,2058.5-235.293,2248.014-848.256,1949.869-831.262,1559.33c15.394-210.054,209.487-240.151,342.943-357.81,108.212-95.389,102.761-216.662,108.791-349.334,6.1-134.188,35.909-258.755,137.616-353.319,143.575-133.559,353.144-188.052,545.306-185.2,123.234,1.8,254.884,7.155,362.766,73.264,179.947,110.236,220.575,301.789,81.286,475.893" transform="translate(831.607 -313.558)" fill="url(#linear-gradient)"/>
</svg>
