<svg xmlns="http://www.w3.org/2000/svg" width="25.27" height="25.332" viewBox="0 0 25.27 25.332">
  <path id="Icon_simple-pinterest" data-name="Icon simple-pinterest" d="M12.7,0A12.652,12.652,0,0,0,8.084,24.434a12.163,12.163,0,0,1,.043-3.63c.231-.989,1.484-6.288,1.484-6.288a4.578,4.578,0,0,1-.379-1.88c0-1.755,1.021-3.073,2.288-3.073a1.59,1.59,0,0,1,1.6,1.782,25.359,25.359,0,0,1-1.047,4.214,1.836,1.836,0,0,0,1.874,2.285c2.246,0,3.977-2.37,3.977-5.792a4.994,4.994,0,0,0-5.286-5.139A5.475,5.475,0,0,0,6.932,12.4a4.927,4.927,0,0,0,.938,2.893.386.386,0,0,1,.09.364c-.095.4-.309,1.266-.353,1.439-.056.237-.182.286-.423.174-1.578-.728-2.568-3.038-2.568-4.9,0-3.986,2.9-7.655,8.36-7.655,4.389,0,7.8,3.132,7.8,7.307,0,4.365-2.752,7.876-6.579,7.876a3.417,3.417,0,0,1-2.911-1.456L10.5,21.447a13.784,13.784,0,0,1-1.581,3.321A12.653,12.653,0,1,0,12.663.027Z" transform="translate(-0.044)" fill="#fff"/>
</svg>
