<svg xmlns="http://www.w3.org/2000/svg" xmlns:xlink="http://www.w3.org/1999/xlink" width="1148.235" height="971.195" viewBox="0 0 1148.235 971.195">
  <defs>
    <linearGradient id="linear-gradient" x1="-52.053" y1="-258.112" x2="-52.01" y2="-258.112" gradientUnits="objectBoundingBox">
      <stop offset="0" stop-color="#fff"/>
      <stop offset="0.921" stop-color="#496bb2"/>
      <stop offset="1" stop-color="#496bb2"/>
    </linearGradient>
    <linearGradient id="linear-gradient-2" x1="-37.692" y1="-223.993" x2="-37.662" y2="-223.993" xlink:href="#linear-gradient"/>
    <linearGradient id="linear-gradient-3" x1="-48.358" y1="-229.123" x2="-48.32" y2="-229.123" xlink:href="#linear-gradient"/>
  </defs>
  <g id="Group_12" data-name="Group 12" transform="translate(-806.893 -4756)">
    <path id="Path_618" data-name="Path 618" d="M1790.052,5183.272c-107.161-14.014-205,41.9-223.63-107.156-13.979-102.482,23.3-195.635-74.527-274.838-83.841-65.219-192.378-53.873-274.836-4.664-377.28,225.137-503.6,590.766-340.068,740.686,61.785,53.33,116.753,45.777,174.166,30.324,1.189-.336,2.4-.658,3.57-1a22.517,22.517,0,0,1,10.083-22.547c57.274-38.723,140.512-32.436,191.835,13.408a21.626,21.626,0,0,1,6.712,10.387c1.309.881,2.651,1.756,3.952,2.674l.859.637a223.5,223.5,0,0,1,21.512,17.734c15.783,14.65,30.152,31.25,44.956,47.65l.338.41c16.386,18.156,33.294,36.043,53.176,50.754a177.731,177.731,0,0,0,38.54,21.936c5.265,2.287,10.649,4.334,16.113,6.18a224.393,224.393,0,0,0,58.793,10.934,266.791,266.791,0,0,0,30.606-.061c36.56-2.01,74.658-10.881,112.3-25.021a541.463,541.463,0,0,0,90.67-44.42c6.273-3.762,12.442-7.715,18.561-11.736h.023q7.588-4.942,15.025-10.223c8.189-5.715,16.2-11.65,24.055-17.732h.038q16.722-13.02,32.315-27.029,9.872-8.8,19.214-18.035v-.016c36.377-35.777,66.078-74.945,85.213-114.182v-.043a244.886,244.886,0,0,0,18.794-51.41C1976.371,5290.4,1915.82,5197.237,1790.052,5183.272Z" transform="translate(0 0)" fill="#496bb2"/>
    <path id="Path_619" data-name="Path 619" d="M1133.266,4860.445a102.071,102.071,0,1,1-102.08-102.062A102.072,102.072,0,0,1,1133.266,4860.445Z" transform="translate(336.108 6.552)" fill="#fdd789"/>
    <path id="Path_620" data-name="Path 620" d="M1052.805,4913.57a22.69,22.69,0,0,0-14.609,5.318,22.725,22.725,0,0,0-21.46-15.211,22.248,22.248,0,0,0-5.032.582,22.7,22.7,0,0,0-35.188-17.035,40,40,0,0,0-76.687-12.795,16.253,16.253,0,0,0-3.21-.33,16.02,16.02,0,0,0-14.74,9.721,30.644,30.644,0,0,0-10.327-1.8,30.333,30.333,0,0,0-30.339,30.332,29.943,29.943,0,0,0,1.226,8.506,16,16,0,0,0-10.031,8.219H1074.34A22.729,22.729,0,0,0,1052.805,4913.57Z" transform="translate(70.161 258.846)" fill="url(#linear-gradient)"/>
    <path id="Path_621" data-name="Path 621" d="M1229.218,4874.32a14.883,14.883,0,0,0-4.912.816l.008-.816a49.89,49.89,0,0,0-79.447-40.209,39.034,39.034,0,0,0-77.628,4.4,21.713,21.713,0,0,0-26.713,11.1,14.874,14.874,0,0,0-23.6.855,44.207,44.207,0,0,0-85.424,5.389l-1.946-.115a18.247,18.247,0,0,0-18.239,18.25,18.777,18.777,0,0,0,.682,5l-.682-.039a13.3,13.3,0,0,0-13.248,12.18h346.69l.064-1.221A15.6,15.6,0,0,0,1229.218,4874.32Z" transform="translate(250.697 123.131)" fill="url(#linear-gradient-2)"/>
    <path id="Path_622" data-name="Path 622" d="M1180.064,5141.936h-124.89c-14.8-16.4-29.173-33-44.956-47.65a221.574,221.574,0,0,0-22.371-18.371c-21.782-15.535-47.048-26.383-79.323-28.395l14.021-111.639h246.908l1.076,21.057,2.779,54.025,5.411,104.621Z" transform="translate(279.463 494.637)" fill="#babcbc"/>
    <path id="Path_623" data-name="Path 623" d="M988.745,5141.919h118.3l-25.887-206.029H978.112Z" transform="translate(470.813 494.653)" fill="#cacccc"/>
    <path id="Path_624" data-name="Path 624" d="M912.263,5038.91s135.555-59.154,187.328-140.486c0,0,82.537,107.205,162.639,140.486Z" transform="translate(289.744 391.634)" fill="#d9dad9"/>
    <path id="Path_625" data-name="Path 625" d="M912.263,5038.91s135.555-59.154,187.328-140.486c0,0-15.13,72.346,59.592,140.486Z" transform="translate(289.744 391.634)" fill="#cacccc"/>
    <path id="Path_626" data-name="Path 626" d="M1039.34,5050.114c-7.349,34.18-33.249,47.123-33.249,47.123h-9.086c-14.8-16.4-29.173-33-44.956-47.65a221.574,221.574,0,0,0-22.371-18.371c12.588-13.867,26.44-37.791,37.6-79.078,11.358,42.082,25.547,66.145,38.319,79.869C1023.925,5051.708,1039.34,5050.114,1039.34,5050.114Z" transform="translate(337.632 539.334)" fill="#d9dad9"/>
    <path id="Path_627" data-name="Path 627" d="M989.686,5097.237H980.6c-14.8-16.4-29.173-33-44.956-47.65a434.444,434.444,0,0,0,15.232-97.449s.795,95.473,31.217,136.559v.033A52.988,52.988,0,0,0,989.686,5097.237Z" transform="translate(354.037 539.334)" fill="#4f494a"/>
    <path id="Path_628" data-name="Path 628" d="M1318.22,4964.712v.043c-19.135,39.236-48.836,78.4-85.213,114.182v.016q-9.343,9.208-19.214,18.035-15.586,14.019-32.315,27.029h-.038c-7.86,6.082-15.866,12.018-24.055,17.732q-7.425,5.288-15.025,10.223h-.023c-6.12,4.021-12.288,7.975-18.561,11.736h-94.54l.8-15.293v-.059l7.042-136.332,3.517-68.705v-.016l.412-7.807h273.543Z" transform="translate(611.394 493.574)" fill="#babcbc"/>
    <path id="Path_629" data-name="Path 629" d="M1125.327,5163.719H994.291l28.668-228.227H1137.11Z" transform="translate(515.303 493.564)" fill="#cacccc"/>
    <path id="Path_630" data-name="Path 630" d="M1389.622,5049.61s-150.175-65.516-207.505-155.619c0,0-91.45,118.77-180.181,155.619Z" transform="translate(536.325 379.446)" fill="#d9dad9"/>
    <path id="Path_631" data-name="Path 631" d="M1305.913,5049.61s-150.175-65.516-207.505-155.619c0,0,16.75,80.121-66.03,155.619Z" transform="translate(620.034 379.446)" fill="#cacccc"/>
    <path id="Path_632" data-name="Path 632" d="M1165.934,5029.456v.016q-9.343,9.208-19.214,18.035-15.586,14.019-32.315,27.029h-.038c-7.86,6.082-15.866,12.018-24.055,17.732q-7.425,5.288-15.025,10.223h-.023a81.323,81.323,0,0,1-21.636-40.482s13.676,1.432,31.135-13.943c15.622-13.734,34.209-40.924,48.725-94.574C1143.165,4989.333,1154.673,5013.362,1165.934,5029.456Z" transform="translate(678.467 543.054)" fill="#d9dad9"/>
    <path id="Path_633" data-name="Path 633" d="M1102.151,5047.507q-15.586,14.019-32.315,27.029c18.509-50.686,19.083-121.045,19.083-121.045A481.964,481.964,0,0,0,1102.151,5047.507Z" transform="translate(723.035 543.054)" fill="#4f494a"/>
    <path id="Path_634" data-name="Path 634" d="M1257.249,5152.008c-37.64,14.141-75.738,23.012-112.3,25.021a266.791,266.791,0,0,1-30.606.061,224.393,224.393,0,0,1-58.793-10.934c-5.464-1.846-10.848-3.893-16.113-6.18a177.731,177.731,0,0,1-38.54-21.936c-19.881-14.711-36.789-32.6-53.176-50.754l.075-.41,1.08-8.508v-.033l7.1-56.689,8.25-65.742h282.9l7.053,136.332v.059l.776,15.293Z" transform="translate(387.251 549.695)" fill="#babcbc"/>
    <path id="Path_635" data-name="Path 635" d="M1161.969,5085.629q-7.425,5.288-15.025,10.223h-.023c-6.12,4.021-12.288,7.975-18.561,11.736a541.463,541.463,0,0,1-90.67,44.42l-2.291-44.42-.776-15.293v-.059l-7.053-136.332h118.118l10.732,85.521Z" transform="translate(606.81 549.695)" fill="#cacccc"/>
    <path id="Path_636" data-name="Path 636" d="M952.125,5073.956s155.316-67.771,214.63-160.979c0,0,94.592,122.861,186.387,160.979Z" transform="translate(399.356 431.652)" fill="#d9dad9"/>
    <path id="Path_637" data-name="Path 637" d="M952.125,5073.956s155.316-67.771,214.63-160.979c0,0-17.331,82.9,68.291,160.979Z" transform="translate(399.356 431.652)" fill="#cacccc"/>
    <path id="Path_638" data-name="Path 638" d="M1125.728,5086.8a84.127,84.127,0,0,1-19.772,39.018,266.791,266.791,0,0,1-30.606.061,224.393,224.393,0,0,1-58.793-10.934c-5.464-1.846-10.848-3.893-16.113-6.18a177.731,177.731,0,0,1-38.54-21.936c6.281-.115,33.118-3.615,58.215-51.164a245.7,245.7,0,0,0,11.816-26.352,364.57,364.57,0,0,0,11.208-34.789c6.963,25.848,14.906,45.8,23.012,61.141C1094.83,5090.012,1125.728,5086.8,1125.728,5086.8Z" transform="translate(426.246 600.904)" fill="#d9dad9"/>
    <path id="Path_639" data-name="Path 639" d="M1035.272,5125.881a224.393,224.393,0,0,1-58.793-10.934,462.632,462.632,0,0,0,20.264-79.279,513.97,513.97,0,0,0,6.322-61.141,524.32,524.32,0,0,0,4.878,61.141C1012.233,5066.484,1020.224,5102.2,1035.272,5125.881Z" transform="translate(466.324 600.904)" fill="#4f494a"/>
    <path id="Path_640" data-name="Path 640" d="M1117,4971.579c-.728,25.082-4.534,61.578-9.314,101.027-2.336,19.553-4.935,39.75-7.548,59.648v.035l-.244,1.91c-1.117,8.688-2.261,17.318-3.326,25.75-3.952,30.238-7.559,58.484-9.952,80.842a146.668,146.668,0,0,0-63.188-18.2c-5.625-.326-11.47-.426-17.538-.182-31.082,1.326-60.169,8.943-88.364,16.926-6.671,1.883-13.259,3.791-19.81,5.643-3.371-32.742-9.746-79.742-15.828-127.127l-.038-.275c-.923-6.941-1.8-13.9-2.677-20.807-2.111-16.916-4.159-33.625-5.966-49.445l-.161-1.541c-5.448-49.016-8.475-89.744-4.474-103.219l.139-.451.6-1.557c10.709-23.391,65.006-46.145,86.909-54.525,5.692-2.2,9.21-3.416,9.21-3.416l26.492-10.4,26.552,10.4s3.51,1.219,9.2,3.416c7.9,3,19.986,7.893,32.721,14.014,2.85,1.336,5.692,2.738,8.542,4.244l.956.5c1.1.566,2.224,1.17,3.326,1.742,1.691.924,3.371,1.836,5.025,2.77,1.961,1.1,3.892,2.254,5.808,3.385,1.916,1.152,3.776,2.355,5.576,3.541l.529.33c1.125.734,2.209,1.5,3.255,2.223l.484.328c1.073.768,2.093,1.51,3.1,2.283,1.162.881,2.313,1.74,3.386,2.658l1.586,1.35a48.739,48.739,0,0,1,4.417,4.068l.907.912a37.536,37.536,0,0,1,7.275,10.18l.277.645.022.023v.059l.03.068C1116.867,4946.528,1117.437,4957.167,1117,4971.579Z" transform="translate(164.561 319.563)" fill="#e8936b"/>
    <path id="Path_641" data-name="Path 641" d="M1108.335,5049.6c-.255,3.289-.5,6.652-.791,10.039-.487,5.922-.979,11.959-1.53,18.078q-1.187,12.908-2.557,26.348v.039l-.049.037-.184,1.867c-.139,1.352-.281,2.762-.442,4.117-.292,2.779-.623,5.525-.93,8.326-.589,5.594-1.264,11.2-1.961,16.893-2.066,16.949-4.41,34.252-7.038,51.615,2.411,14.514,4.473,29.326,6.221,44.25l-.859-.637a160.831,160.831,0,0,0-16.135-10.2,146.668,146.668,0,0,0-63.188-18.2c-5.625-.326-11.47-.426-17.538-.182-31.082,1.326-60.169,8.943-88.364,16.926-6.671,1.883-13.259,3.791-19.81,5.643-3.709,1.035-7.432,2.055-11.118,3.082,1.657-12.381,3.54-24.484,5.647-36.191-.682-3.15-1.357-6.318-1.984-9.5-.375-1.74-.735-3.48-1.042-5.266-.427-1.982-.757-4-1.151-6.029-.552-2.947-1.039-5.914-1.522-8.816-.36-2.1-.7-4.215-1.012-6.275-3.139-20.148-5.34-40.082-7-58.422v-.232c-.454-5.238-.9-10.352-1.286-15.293-.124-1.521-.232-3.027-.36-4.5-1.586-21.053-2.569-38.729-3.678-50.211l-.161-1.541-.124-1.328,2.253-1.117c1.167-.521,2.374-1.125,3.563-1.717,8.474-4.113,16.885-8.439,25.176-12.885q4.55-2.414,9.071-4.957a549.3,549.3,0,0,0,67.316-43.539,430.211,430.211,0,0,0,70.192-67.592c3.409-4.1,6.712-8.314,9.9-12.6,2.85,1.371,5.692,2.773,8.542,4.244l.956.5c1.1.566,2.224,1.17,3.326,1.742,1.691.924,3.371,1.836,5.025,2.77,1.961,1.1,3.892,2.254,5.808,3.385,1.916,1.152,3.776,2.355,5.576,3.541l.529.33c1.125.734,2.209,1.5,3.255,2.223l.484.328c1.073.768,2.093,1.51,3.1,2.283,1.162.881,2.313,1.74,3.386,2.658l1.586,1.35a48.739,48.739,0,0,1,4.417,4.068l.907.912a37.536,37.536,0,0,1,7.275,10.18l.277.645.022.082.03.068c1.234,3.963,1.995,14.564,2.1,30.227C1112.648,4974.489,1111.414,5009.062,1108.335,5049.6Z" transform="translate(169.095 339.973)" fill="#f1f1f2"/>
    <path id="Path_642" data-name="Path 642" d="M1105.429,4924.964c-.255,3.289-.5,6.652-.791,10.039-.487,5.922-.979,11.959-1.53,18.078q-1.187,12.908-2.557,26.348v.039l-.233,1.9c-.139,1.352-.281,2.762-.442,4.117-.292,2.779-.623,5.525-.93,8.326-.589,5.594-1.264,11.2-1.961,16.893-2.565,1.449-5.208,2.842-7.86,4.191-13.162,6.721-27.2,11.973-41.637,14.5-23.766,4.137-47.315-.1-71.1-.762-15.007-.434-28.217,3.621-38.919,14.373-13.964,14.082-22.146,32.039-27.388,51.279-6.671,1.883-13.259,3.791-19.81,5.643-3.709,1.035-7.432,2.055-11.118,3.082,1.657-12.381,3.54-24.484,5.647-36.191-.682-3.15-1.357-6.318-1.984-9.5-.375-1.74-.735-3.48-1.042-5.266-.427-1.982-.757-4-1.151-6.029-.552-2.947-1.039-5.914-1.522-8.816-.36-2.1-.7-4.215-1.012-6.275-3.139-20.148-5.34-40.082-7-58.422v-.232c-.454-5.238-.9-10.352-1.286-15.293-.124-1.521-.232-3.027-.36-4.5l2.288-.766a177.245,177.245,0,0,1,35.237-7.8,78.061,78.061,0,0,1,34.88,3.678,118.519,118.519,0,0,1,13.308,5.131l.127.078.7.273c2.04.91,4.054,1.811,6.1,2.643,1.609.684,3.225,1.373,4.856,2a122.1,122.1,0,0,0,30.024,7.943,125.436,125.436,0,0,0,44.75-2.748c15.153-3.686,26.466-12.6,38.349-22.223a121.544,121.544,0,0,1,20.181-13.141C1101.972,4926.646,1103.682,4925.794,1105.429,4924.964Z" transform="translate(172.001 464.614)" fill="#e2e3e4"/>
    <path id="Path_643" data-name="Path 643" d="M894.535,4860.657l-4.027,62.371c0,13.484,16.15,35.658,36.069,35.658s36.069-22.174,36.069-35.658l-4.031-62.371Z" transform="translate(229.923 287.788)" fill="#e8936b"/>
    <path id="Path_644" data-name="Path 644" d="M920.3,4891.255a73.815,73.815,0,0,0,24.171,2.74,59.393,59.393,0,0,0,13.765-2.623l-2.006-30.715h-64.08l-.772,12.059C898.962,4881.341,908.959,4888.229,920.3,4891.255Z" transform="translate(232.309 287.788)" fill="#1f0000"/>
    <path id="Path_645" data-name="Path 645" d="M916.045,4851.4a8.382,8.382,0,0,1,2.8-5.58,6.822,6.822,0,0,1,8.925.117c5.662,5,4.312,17.273,1.9,23.436-2.152,5.5-11.718,13.611-16.724,6.412l-.251-.744c.623-4.1,1.241-8.174,1.823-12.291.416-2.787.874-5.545,1.174-8.373C915.8,4853.387,915.9,4852.375,916.045,4851.4Z" transform="translate(290.957 242.588)" fill="#e8936b"/>
    <path id="Path_646" data-name="Path 646" d="M898.156,4851.4a8.23,8.23,0,0,0-2.8-5.58,6.812,6.812,0,0,0-8.917.117c-5.647,5-4.3,17.273-1.886,23.436,2.145,5.5,11.692,13.611,16.694,6.412l.259-.744c-.611-4.1-1.23-8.174-1.845-12.291-.383-2.787-.859-5.545-1.133-8.373C898.4,4853.387,898.339,4852.375,898.156,4851.4Z" transform="translate(207.827 242.588)" fill="#e8936b"/>
    <path id="Path_647" data-name="Path 647" d="M939.936,4825.867a54.261,54.261,0,0,0-54.278,54.254v45.072a54.263,54.263,0,0,0,108.526,0v-45.072A54.262,54.262,0,0,0,939.936,4825.867Z" transform="translate(216.586 192.116)" fill="#e8936b"/>
    <path id="Path_648" data-name="Path 648" d="M888.056,4888.729s8.865-7.725,8.246-44.391l-8.246-10.049S880.688,4856.045,888.056,4888.729Z" transform="translate(214.177 215.274)" fill="#1f0000"/>
    <path id="Path_649" data-name="Path 649" d="M920.667,4888.729s-8.864-7.725-8.242-44.391l8.242-10.049S928.035,4856.045,920.667,4888.729Z" transform="translate(290.103 215.274)" fill="#1f0000"/>
    <path id="Path_650" data-name="Path 650" d="M895.54,4876.835s2.666-16.342,27.3-16.342h43.194s17.076,1,22.1,18.1l7.7-11.8s-2.79-25.215-15.344-27.734c0,0-9.832-20.057-52.917-16.053-27.137,2.482-28.637,17.076-28.637,17.076s-10.885,2.334-13.874,37.191Z" transform="translate(214.939 182.777)" fill="#1f0000"/>
    <path id="Path_651" data-name="Path 651" d="M974.151,4850.787s-14.819,10.824-51.323,20.535v-5.354a42.277,42.277,0,0,1-16.754,7.615c-10.038,2.092-19.424,9.432-19.75,17.973l4.594-51.625,76.443-12.473Z" transform="translate(218.418 196.493)" fill="#1f0000"/>
    <path id="Path_652" data-name="Path 652" d="M895.06,5004.931c-11.377-3.955-9.746-41.752,2.081-63.344,22.041-40.162,23.627-1.324,23.627-1.324S914.165,5011.55,895.06,5004.931Z" transform="translate(221.22 460.28)" fill="#c5c7c9"/>
    <path id="Path_653" data-name="Path 653" d="M1052.535,4897.618c-55.38-52.08-62.179,125.926-62.179,125.926s-31.929,1.975-53.648-2.014c-10.008-1.828-18.61-3.578-26.02-5.205.015,9.5-4.657,87.393-21.288,85.715,74.365,28.061,151.971,3.814,165.418-37.2C1086.958,4966.864,1052.535,4897.618,1052.535,4897.618Z" transform="translate(226.879 363.169)" fill="#f1f1f2"/>
    <path id="Path_654" data-name="Path 654" d="M882.9,4898.183s-26.616,84.838-20.365,137.594c6.258,52.736,41.307,52.426,181.707-10.348,0,0,2.006,1.814-6.933-20.812,0,0-57.619,9.047-87.591,8.553-29.953-.506-34.772,1.5-34.772,1.5S938.261,4846.087,882.9,4898.183Z" transform="translate(150.376 363.494)" fill="#e8936b"/>
    <path id="Path_655" data-name="Path 655" d="M873.6,4911.972c-6.5,6.258-5.325,20.4-3.922,28.262,3.225,17.938,13.844,18.754,26.308,14.793.818-6.428,2.985-24.686,4-45.277C892.8,4909.958,879.019,4906.786,873.6,4911.972Z" transform="translate(169.641 420.654)" fill="#e78968"/>
    <path id="Path_656" data-name="Path 656" d="M875.319,4896.006c10.447,22.9,9.423,49.467,4.586,73.652-.442,2.24,2.966,3.188,3.42.941,5.04-25.25,5.943-52.516-4.957-76.373C877.426,4892.15,874.374,4893.951,875.319,4896.006Z" transform="translate(187.662 377.563)" fill="#1a5082"/>
    <path id="Path_657" data-name="Path 657" d="M908.58,4929.53s9.877-2.25,16.15-7.279c6.251-5.023,9.348-7.551,16.188-6.531,0,0-2.557,21.857-2.782,32.414l-26.147,3.783S907.425,4934.552,908.58,4929.53Z" transform="translate(279.1 438.581)" fill="#e8936b"/>
    <path id="Path_658" data-name="Path 658" d="M943.813,4952.806s-20.432-5.936-24.456-12.465c-4.024-6.559-10.541-19.354-22.937-25.633s-23.144-6.705-25.8-1.289c-.7,1.436-1,6.189,5.823,3.318,8.58-3.672,13.406.99,13.855,4.244s0,1.762-8.28,2.775c-8.261,1.008-14.418.486-11.789,12.055,2.625,11.545,1.039,13.02,12.479,10.795s14.86,5.234,15.918,8.146c0,0,17.62-1.52,27.321-.623Z" transform="translate(172.467 422.515)" fill="#e8936b"/>
    <path id="Path_659" data-name="Path 659" d="M873.739,4938.565c18.205-15.322,51.361-9.215,73.871-10.381,18.869-.977,37.738-2.8,56.423-5.605,2.254-.352,1.286-3.75-.941-3.428a580.364,580.364,0,0,1-80.519,6.338c-18.2.2-36.605-1.83-51.331,10.578C869.487,4937.542,872.01,4940.032,873.739,4938.565Z" transform="translate(175.311 448.568)" fill="#1a5082"/>
    <path id="Path_660" data-name="Path 660" d="M864.744,4960.7c37.07,34.131,118.156-16.145,154.255-30.67,2.092-.85,1.181-4.268-.941-3.416-33.793,13.6-115.981,63.641-150.816,31.588C865.562,4956.653,863.064,4959.151,864.744,4960.7Z" transform="translate(157.547 468.78)" fill="#1a5082"/>
    <path id="Path_661" data-name="Path 661" d="M891.436,4995.854c62.018,22.576,162.287,14.762,170.116-66.371.214-2.264-3.334-2.25-3.547,0-7.586,78.674-106.407,84.52-165.628,62.951C890.224,4991.652,889.306,4995.076,891.436,4995.854Z" transform="translate(229.149 472.384)" fill="#1a5082"/>
    <path id="Path_662" data-name="Path 662" d="M919.427,5009.115A237.748,237.748,0,0,1,944.8,4895.451c1.028-2.029-2.021-3.812-3.049-1.785a241.69,241.69,0,0,0-25.862,115.449C915.947,5011.387,919.487,5011.395,919.427,5009.115Z" transform="translate(299.458 376.09)" fill="#1a5082"/>
    <path id="Path_663" data-name="Path 663" d="M1202.776,4939.521a25.686,25.686,0,0,0-16.54,6.029,25.6,25.6,0,0,0-29.995-16.562,25.721,25.721,0,0,0-39.815-19.285,45.275,45.275,0,0,0-86.792-14.479,18.226,18.226,0,0,0-20.324,10.617,34.308,34.308,0,0,0-44.626,41.93,18.214,18.214,0,0,0-11.347,9.3h273.817A25.733,25.733,0,0,0,1202.776,4939.521Z" transform="translate(402.689 307.224)" fill="url(#linear-gradient-3)"/>
  </g>
</svg>
