<svg xmlns="http://www.w3.org/2000/svg" width="26.655" height="21.649" viewBox="0 0 26.655 21.649">
  <path id="Icon_awesome-twitter" data-name="Icon awesome-twitter" d="M23.915,8.776c.017.237.017.474.017.71A15.437,15.437,0,0,1,8.389,25.03,15.438,15.438,0,0,1,0,22.577a11.3,11.3,0,0,0,1.319.068A10.941,10.941,0,0,0,8.1,20.311a5.473,5.473,0,0,1-5.108-3.789,6.889,6.889,0,0,0,1.032.085,5.778,5.778,0,0,0,1.438-.186,5.464,5.464,0,0,1-4.381-5.362v-.068a5.5,5.5,0,0,0,2.469.693A5.471,5.471,0,0,1,1.86,4.379,15.528,15.528,0,0,0,13.125,10.1a6.167,6.167,0,0,1-.135-1.252,5.468,5.468,0,0,1,9.455-3.738,10.756,10.756,0,0,0,3.467-1.319,5.448,5.448,0,0,1-2.4,3.011,10.952,10.952,0,0,0,3.146-.846,11.743,11.743,0,0,1-2.74,2.824Z" transform="translate(0 -3.381)" fill="#fff"/>
</svg>
