<svg xmlns="http://www.w3.org/2000/svg" width="28.432" height="19.992" viewBox="0 0 28.432 19.992">
  <path id="Icon_awesome-youtube" data-name="Icon awesome-youtube" d="M28.888,7.628A3.573,3.573,0,0,0,26.375,5.1c-2.217-.6-11.108-.6-11.108-.6s-8.891,0-11.108.6a3.573,3.573,0,0,0-2.514,2.53,37.477,37.477,0,0,0-.594,6.888A37.477,37.477,0,0,0,1.644,21.4a3.519,3.519,0,0,0,2.514,2.49c2.217.6,11.108.6,11.108.6s8.891,0,11.108-.6a3.519,3.519,0,0,0,2.514-2.49,37.477,37.477,0,0,0,.594-6.888,37.477,37.477,0,0,0-.594-6.888ZM12.358,18.744V10.288l7.431,4.228-7.431,4.227Z" transform="translate(-1.05 -4.5)" fill="#fff"/>
</svg>
